  0
SECTION
  2
HEADER
  9
$ACADVER
  1
AC1027
  9
$ACADMAINTVER
 70
   125
  9
$DWGCODEPAGE
  3
ANSI_1252
  9
$REQUIREDVERSIONS
160
                 0
  9
$INSBASE
 10
0.0
 20
0.0
 30
0.0
  9
$EXTMIN
 10
1.000000000000000E+20
 20
1.000000000000000E+20
 30
1.000000000000000E+20
  9
$EXTMAX
 10
-1.000000000000000E+20
 20
-1.000000000000000E+20
 30
-1.000000000000000E+20
  9
$LIMMIN
 10
0.0
 20
0.0
  9
$LIMMAX
 10
12.0
 20
9.0
  9
$ORTHOMODE
 70
     0
  9
$REGENMODE
 70
     1
  9
$FILLMODE
 70
     1
  9
$QTEXTMODE
 70
     0
  9
$MIRRTEXT
 70
     0
  9
$LTSCALE
 40
1.0
  9
$ATTMODE
 70
     1
  9
$TEXTSIZE
 40
0.2
  9
$TRACEWID
 40
0.05
  9
$TEXTSTYLE
  7
Standard
  9
$CLAYER
  8
0
  9
$CELTYPE
  6
ByLayer
  9
$CECOLOR
 62
   256
  9
$CELTSCALE
 40
1.0
  9
$DISPSILH
 70
     0
  9
$DIMSCALE
 40
1.0
  9
$DIMASZ
 40
0.18
  9
$DIMEXO
 40
0.0625
  9
$DIMDLI
 40
0.38
  9
$DIMRND
 40
0.0
  9
$DIMDLE
 40
0.0
  9
$DIMEXE
 40
0.18
  9
$DIMTP
 40
0.0
  9
$DIMTM
 40
0.0
  9
$DIMTXT
 40
0.18
  9
$DIMCEN
 40
0.09
  9
$DIMTSZ
 40
0.0
  9
$DIMTOL
 70
     0
  9
$DIMLIM
 70
     0
  9
$DIMTIH
 70
     1
  9
$DIMTOH
 70
     1
  9
$DIMSE1
 70
     0
  9
$DIMSE2
 70
     0
  9
$DIMTAD
 70
     0
  9
$DIMZIN
 70
     0
  9
$DIMBLK
  1

  9
$DIMASO
 70
     1
  9
$DIMSHO
 70
     1
  9
$DIMPOST
  1

  9
$DIMAPOST
  1

  9
$DIMALT
 70
     0
  9
$DIMALTD
 70
     2
  9
$DIMALTF
 40
25.4
  9
$DIMLFAC
 40
1.0
  9
$DIMTOFL
 70
     0
  9
$DIMTVP
 40
0.0
  9
$DIMTIX
 70
     0
  9
$DIMSOXD
 70
     0
  9
$DIMSAH
 70
     0
  9
$DIMBLK1
  1

  9
$DIMBLK2
  1

  9
$DIMSTYLE
  2
Standard
  9
$DIMCLRD
 70
     0
  9
$DIMCLRE
 70
     0
  9
$DIMCLRT
 70
     0
  9
$DIMTFAC
 40
1.0
  9
$DIMGAP
 40
0.09
  9
$DIMJUST
 70
     0
  9
$DIMSD1
 70
     0
  9
$DIMSD2
 70
     0
  9
$DIMTOLJ
 70
     1
  9
$DIMTZIN
 70
     0
  9
$DIMALTZ
 70
     0
  9
$DIMALTTZ
 70
     0
  9
$DIMUPT
 70
     0
  9
$DIMDEC
 70
     4
  9
$DIMTDEC
 70
     4
  9
$DIMALTU
 70
     2
  9
$DIMALTTD
 70
     2
  9
$DIMTXSTY
  7
Standard
  9
$DIMAUNIT
 70
     0
  9
$DIMADEC
 70
     0
  9
$DIMALTRND
 40
0.0
  9
$DIMAZIN
 70
     0
  9
$DIMDSEP
 70
    46
  9
$DIMATFIT
 70
     3
  9
$DIMFRAC
 70
     0
  9
$DIMLDRBLK
  1

  9
$DIMLUNIT
 70
     2
  9
$DIMLWD
 70
    -2
  9
$DIMLWE
 70
    -2
  9
$DIMTMOVE
 70
     0
  9
$DIMFXL
 40
1.0
  9
$DIMFXLON
 70
     0
  9
$DIMJOGANG
 40
0.7853981633974483
  9
$DIMTFILL
 70
     0
  9
$DIMTFILLCLR
 70
     0
  9
$DIMARCSYM
 70
     0
  9
$DIMLTYPE
  6

  9
$DIMLTEX1
  6

  9
$DIMLTEX2
  6

  9
$DIMTXTDIRECTION
 70
     0
  9
$LUNITS
 70
     2
  9
$LUPREC
 70
     4
  9
$SKETCHINC
 40
0.1
  9
$FILLETRAD
 40
0.0
  9
$AUNITS
 70
     0
  9
$AUPREC
 70
     0
  9
$MENU
  1
.
  9
$ELEVATION
 40
0.0
  9
$PELEVATION
 40
0.0
  9
$THICKNESS
 40
0.0
  9
$LIMCHECK
 70
     0
  9
$CHAMFERA
 40
0.0
  9
$CHAMFERB
 40
0.0
  9
$CHAMFERC
 40
0.0
  9
$CHAMFERD
 40
0.0
  9
$SKPOLY
 70
     0
  9
$TDCREATE
 40
2459171.744027778
  9
$TDUCREATE
 40
2459171.744027778
  9
$TDUPDATE
 40
2459171.744027778
  9
$TDUUPDATE
 40
2459171.744027778
  9
$TDINDWG
 40
0.0000000000
  9
$TDUSRTIMER
 40
0.0000000000
  9
$USRTIMER
 70
     1
  9
$ANGBASE
 50
0.0
  9
$ANGDIR
 70
     0
  9
$PDMODE
 70
     0
  9
$PDSIZE
 40
0.0
  9
$PLINEWID
 40
0.0
  9
$SPLFRAME
 70
     0
  9
$SPLINETYPE
 70
     6
  9
$SPLINESEGS
 70
     8
  9
$HANDSEED
  5
2CA
  9
$SURFTAB1
 70
     6
  9
$SURFTAB2
 70
     6
  9
$SURFTYPE
 70
     6
  9
$SURFU
 70
     6
  9
$SURFV
 70
     6
  9
$UCSBASE
  2

  9
$UCSNAME
  2

  9
$UCSORG
 10
0.0
 20
0.0
 30
0.0
  9
$UCSXDIR
 10
1.0
 20
0.0
 30
0.0
  9
$UCSYDIR
 10
0.0
 20
1.0
 30
0.0
  9
$UCSORTHOREF
  2

  9
$UCSORTHOVIEW
 70
     0
  9
$UCSORGTOP
 10
0.0
 20
0.0
 30
0.0
  9
$UCSORGBOTTOM
 10
0.0
 20
0.0
 30
0.0
  9
$UCSORGLEFT
 10
0.0
 20
0.0
 30
0.0
  9
$UCSORGRIGHT
 10
0.0
 20
0.0
 30
0.0
  9
$UCSORGFRONT
 10
0.0
 20
0.0
 30
0.0
  9
$UCSORGBACK
 10
0.0
 20
0.0
 30
0.0
  9
$PUCSBASE
  2

  9
$PUCSNAME
  2

  9
$PUCSORG
 10
0.0
 20
0.0
 30
0.0
  9
$PUCSXDIR
 10
1.0
 20
0.0
 30
0.0
  9
$PUCSYDIR
 10
0.0
 20
1.0
 30
0.0
  9
$PUCSORTHOREF
  2

  9
$PUCSORTHOVIEW
 70
     0
  9
$PUCSORGTOP
 10
0.0
 20
0.0
 30
0.0
  9
$PUCSORGBOTTOM
 10
0.0
 20
0.0
 30
0.0
  9
$PUCSORGLEFT
 10
0.0
 20
0.0
 30
0.0
  9
$PUCSORGRIGHT
 10
0.0
 20
0.0
 30
0.0
  9
$PUCSORGFRONT
 10
0.0
 20
0.0
 30
0.0
  9
$PUCSORGBACK
 10
0.0
 20
0.0
 30
0.0
  9
$USERI1
 70
     0
  9
$USERI2
 70
     0
  9
$USERI3
 70
     0
  9
$USERI4
 70
     0
  9
$USERI5
 70
     0
  9
$USERR1
 40
0.0
  9
$USERR2
 40
0.0
  9
$USERR3
 40
0.0
  9
$USERR4
 40
0.0
  9
$USERR5
 40
0.0
  9
$WORLDVIEW
 70
     1
  9
$SHADEDGE
 70
     3
  9
$SHADEDIF
 70
    70
  9
$TILEMODE
 70
     1
  9
$MAXACTVP
 70
    64
  9
$PINSBASE
 10
0.0
 20
0.0
 30
0.0
  9
$PLIMCHECK
 70
     0
  9
$PEXTMIN
 10
1.000000000000000E+20
 20
1.000000000000000E+20
 30
1.000000000000000E+20
  9
$PEXTMAX
 10
-1.000000000000000E+20
 20
-1.000000000000000E+20
 30
-1.000000000000000E+20
  9
$PLIMMIN
 10
0.0
 20
0.0
  9
$PLIMMAX
 10
12.0
 20
9.0
  9
$UNITMODE
 70
     0
  9
$VISRETAIN
 70
     1
  9
$PLINEGEN
 70
     0
  9
$PSLTSCALE
 70
     1
  9
$TREEDEPTH
 70
  3020
  9
$CMLSTYLE
  2
Standard
  9
$CMLJUST
 70
     0
  9
$CMLSCALE
 40
1.0
  9
$PROXYGRAPHICS
 70
     1
  9
$MEASUREMENT
 70
     0
  9
$CELWEIGHT
370
    -1
  9
$ENDCAPS
280
     0
  9
$JOINSTYLE
280
     0
  9
$LWDISPLAY
290
     0
  9
$INSUNITS
 70
     5
  9
$HYPERLINKBASE
  1

  9
$STYLESHEET
  1

  9
$XEDIT
290
     1
  9
$CEPSNTYPE
380
     0
  9
$PSTYLEMODE
290
     1
  9
$FINGERPRINTGUID
  2
{E8CC7068-210F-7843-8572-84D8649FD047}
  9
$VERSIONGUID
  2
{C25D8D12-F284-9243-8014-5E1F28E597F7}
  9
$EXTNAMES
290
     1
  9
$PSVPSCALE
 40
0.0
  9
$OLESTARTUP
290
     0
  9
$SORTENTS
280
   127
  9
$INDEXCTL
280
     0
  9
$HIDETEXT
280
     1
  9
$XCLIPFRAME
280
     2
  9
$HALOGAP
280
     0
  9
$OBSCOLOR
 70
   257
  9
$OBSLTYPE
280
     0
  9
$INTERSECTIONDISPLAY
280
     0
  9
$INTERSECTIONCOLOR
 70
   257
  9
$DIMASSOC
280
     2
  9
$PROJECTNAME
  1

  9
$CAMERADISPLAY
290
     0
  9
$LENSLENGTH
 40
50.0
  9
$CAMERAHEIGHT
 40
0.0
  9
$STEPSPERSEC
 40
2.0
  9
$STEPSIZE
 40
6.0
  9
$3DDWFPREC
 40
2.0
  9
$PSOLWIDTH
 40
0.25
  9
$PSOLHEIGHT
 40
4.0
  9
$LOFTANG1
 40
1.570796326794896
  9
$LOFTANG2
 40
1.570796326794896
  9
$LOFTMAG1
 40
0.0
  9
$LOFTMAG2
 40
0.0
  9
$LOFTPARAM
 70
     7
  9
$LOFTNORMALS
280
     1
  9
$LATITUDE
 40
37.795
  9
$LONGITUDE
 40
-122.394
  9
$NORTHDIRECTION
 40
0.0
  9
$TIMEZONE
 70
 -8000
  9
$LIGHTGLYPHDISPLAY
280
     1
  9
$TILEMODELIGHTSYNCH
280
     1
  9
$CMATERIAL
347
11
  9
$SOLIDHIST
280
     0
  9
$SHOWHIST
280
     1
  9
$DWFFRAME
280
     2
  9
$DGNFRAME
280
     0
  9
$REALWORLDSCALE
290
     1
  9
$INTERFERECOLOR
 62
     1
  9
$INTERFEREOBJVS
345
33
  9
$INTERFEREVPVS
346
30
  9
$CSHADOW
280
     0
  9
$SHADOWPLANELOCATION
 40
0.0
  0
ENDSEC
  0
SECTION
  2
CLASSES
  0
CLASS
  1
ACDBDICTIONARYWDFLT
  2
AcDbDictionaryWithDefault
  3
ObjectDBX Classes
 90
        0
 91
        1
280
     0
281
     0
  0
CLASS
  1
MATERIAL
  2
AcDbMaterial
  3
ObjectDBX Classes
 90
     1153
 91
        3
280
     0
281
     0
  0
CLASS
  1
VISUALSTYLE
  2
AcDbVisualStyle
  3
ObjectDBX Classes
 90
     4095
 91
       24
280
     0
281
     0
  0
CLASS
  1
SCALE
  2
AcDbScale
  3
ObjectDBX Classes
 90
     1153
 91
       17
280
     0
281
     0
  0
CLASS
  1
TABLESTYLE
  2
AcDbTableStyle
  3
ObjectDBX Classes
 90
     4095
 91
        1
280
     0
281
     0
  0
CLASS
  1
MLEADERSTYLE
  2
AcDbMLeaderStyle
  3
ACDB_MLEADERSTYLE_CLASS
 90
     4095
 91
        1
280
     0
281
     0
  0
CLASS
  1
ACDBSECTIONVIEWSTYLE
  2
AcDbSectionViewStyle
  3
ObjectDBX Classes
 90
     1025
 91
        1
280
     0
281
     0
  0
CLASS
  1
ACDBDETAILVIEWSTYLE
  2
AcDbDetailViewStyle
  3
ObjectDBX Classes
 90
     1025
 91
        1
280
     0
281
     0
  0
CLASS
  1
DICTIONARYVAR
  2
AcDbDictionaryVar
  3
ObjectDBX Classes
 90
        0
 91
        5
280
     0
281
     0
  0
CLASS
  1
CELLSTYLEMAP
  2
AcDbCellStyleMap
  3
ObjectDBX Classes
 90
     1152
 91
        1
280
     0
281
     0
  0
ENDSEC
  0
SECTION
  2
TABLES
  0
TABLE
  2
VPORT
  5
8
330
0
100
AcDbSymbolTable
 70
     1
1001
ACAD
1000
DbSaveVer
1071
      224
  0
VPORT
  5
57
330
8
100
AcDbSymbolTableRecord
100
AcDbViewportTableRecord
  2
*Active
 70
     0
 10
0.0
 20
0.0
 11
1.0
 21
1.0
 12
500.0
 22
500.0
 13
0.0
 23
0.0
 14
1.0
 24
1.0
 15
0.0
 25
0.0
 16
0.0
 26
0.0
 36
1.0
 17
0.0
 27
0.0
 37
0.0
 40
12.0
 41
1.0
 42
50.0
 43
0.0
 44
0.0
 50
0.0
 51
0.0
 71
     0
 72
   100
 73
     1
 74
     1
 75
     0
 76
     0
 77
     0
 78
     0
281
     0
 65
     1
110
0.0
120
0.0
130
0.0
111
1.0
121
0.0
131
0.0
112
0.0
122
1.0
132
0.0
 79
     0
146
0.0
 60
     3
 61
     5
292
     1
282
     1
141
0.0
142
0.0
 63
   250
421
  3355443
  0
ENDTAB
  0
TABLE
  2
LTYPE
  5
5
330
0
100
AcDbSymbolTable
 70
     1
  0
LTYPE
  5
5B
330
5
100
AcDbSymbolTableRecord
100
AcDbLinetypeTableRecord
  2
ByBlock
 70
     0
  3

 72
    65
 73
     0
 40
0.0
  0
LTYPE
  5
5C
330
5
100
AcDbSymbolTableRecord
100
AcDbLinetypeTableRecord
  2
ByLayer
 70
     0
  3

 72
    65
 73
     0
 40
0.0
  0
LTYPE
  5
5D
330
5
100
AcDbSymbolTableRecord
100
AcDbLinetypeTableRecord
  2
Continuous
 70
     0
  3
Solid line
 72
    65
 73
     0
 40
0.0
  0
ENDTAB
  0
TABLE
  2
LAYER
  5
2
330
0
100
AcDbSymbolTable
 70
     2
  0
LAYER
  5
54
330
2
100
AcDbSymbolTableRecord
100
AcDbLayerTableRecord
  2
0
 70
     0
 62
     7
  6
Continuous
370
    -3
390
F
347
21
348
0
  0
LAYER
  5
7A
330
2
100
AcDbSymbolTableRecord
100
AcDbLayerTableRecord
  2
plate-20201117-040118 v19_0
 70
     0
 62
     7
  6
Continuous
370
    -3
390
F
347
21
348
0
1001
NFusion_SketchTransform
1000
1.000000;0.000000;0.000000;0.000000;0.000000;1.000000;0.000000;0.000000;0.000000;0.000000;1.000000;0.000000;0.000000;0.000000;0.000000;1.000000
  0
ENDTAB
  0
TABLE
  2
STYLE
  5
3
330
0
100
AcDbSymbolTable
 70
     2
  0
STYLE
  5
55
330
3
100
AcDbSymbolTableRecord
100
AcDbTextStyleTableRecord
  2
Standard
 70
     0
 40
0.0
 41
1.0
 50
0.0
 71
     0
 42
0.2
  3
txt
  4

  0
STYLE
  5
5A
330
3
100
AcDbSymbolTableRecord
100
AcDbTextStyleTableRecord
  2
Annotative
 70
     0
 40
0.0
 41
1.0
 50
0.0
 71
     0
 42
0.2
  3
txt
  4

1001
AcadAnnotative
1000
AnnotativeData
1002
{
1070
     1
1070
     1
1002
}
  0
ENDTAB
  0
TABLE
  2
VIEW
  5
6
330
0
100
AcDbSymbolTable
 70
     0
  0
ENDTAB
  0
TABLE
  2
UCS
  5
7
330
0
100
AcDbSymbolTable
 70
     0
  0
ENDTAB
  0
TABLE
  2
APPID
  5
9
330
0
100
AcDbSymbolTable
 70
     4
  0
APPID
  5
56
330
9
100
AcDbSymbolTableRecord
100
AcDbRegAppTableRecord
  2
ACAD
 70
     0
  0
APPID
  5
5E
330
9
100
AcDbSymbolTableRecord
100
AcDbRegAppTableRecord
  2
AcadAnnotative
 70
     0
  0
APPID
  5
78
330
9
100
AcDbSymbolTableRecord
100
AcDbRegAppTableRecord
  2
EDIT_IN_FUSION_ACAD_ADDIN
 70
     0
  0
APPID
  5
79
330
9
100
AcDbSymbolTableRecord
100
AcDbRegAppTableRecord
  2
NFusion_SketchTransform
 70
     0
  0
ENDTAB
  0
TABLE
  2
DIMSTYLE
  5
A
330
0
100
AcDbSymbolTable
 70
     2
100
AcDbDimStyleTable
 71
     0
  0
DIMSTYLE
105
58
330
A
100
AcDbSymbolTableRecord
100
AcDbDimStyleTableRecord
  2
Standard
 70
     0
340
55
  0
DIMSTYLE
105
59
330
A
100
AcDbSymbolTableRecord
100
AcDbDimStyleTableRecord
  2
Annotative
 70
     0
340
55
1001
AcadAnnotative
1000
AnnotativeData
1002
{
1070
     1
1070
     1
1002
}
  0
ENDTAB
  0
TABLE
  2
BLOCK_RECORD
  5
1
330
0
100
AcDbSymbolTable
 70
     1
  0
BLOCK_RECORD
  5
70
330
1
100
AcDbSymbolTableRecord
100
AcDbBlockTableRecord
  2
*Model_Space
340
73
 70
     0
280
     1
281
     0
  0
BLOCK_RECORD
  5
6C
330
1
100
AcDbSymbolTableRecord
100
AcDbBlockTableRecord
  2
*Paper_Space
340
6F
 70
     0
280
     1
281
     0
  0
BLOCK_RECORD
  5
74
330
1
100
AcDbSymbolTableRecord
100
AcDbBlockTableRecord
  2
*Paper_Space0
340
77
 70
     0
280
     1
281
     0
  0
ENDTAB
  0
ENDSEC
  0
SECTION
  2
BLOCKS
  0
BLOCK
  5
71
330
70
100
AcDbEntity
  8
0
100
AcDbBlockBegin
  2
*Model_Space
 70
     0
 10
0.0
 20
0.0
 30
0.0
  3
*Model_Space
  1

  0
ENDBLK
  5
72
330
70
100
AcDbEntity
  8
0
100
AcDbBlockEnd
  0
BLOCK
  5
6D
330
6C
100
AcDbEntity
 67
     1
  8
0
100
AcDbBlockBegin
  2
*Paper_Space
 70
     0
 10
0.0
 20
0.0
 30
0.0
  3
*Paper_Space
  1

  0
ENDBLK
  5
6E
330
6C
100
AcDbEntity
 67
     1
  8
0
100
AcDbBlockEnd
  0
BLOCK
  5
75
330
74
100
AcDbEntity
 67
     1
  8
0
100
AcDbBlockBegin
  2
*Paper_Space0
 70
     0
 10
0.0
 20
0.0
 30
0.0
  3
*Paper_Space0
  1

  0
ENDBLK
  5
76
330
74
100
AcDbEntity
 67
     1
  8
0
100
AcDbBlockEnd
  0
ENDSEC
  0
SECTION
  2
ENTITIES
  0
ARC
  5
7B
330
70
100
AcDbEntity
  8
plate-20201117-040118 v19_0
100
AcDbCircle
 10
13.58375
 20
-1.5425
 30
0.0
 40
0.0500000000000001
100
AcDbArc
 50
270.0
 51
0.0
  0
LINE
  5
7C
330
70
100
AcDbEntity
  8
plate-20201117-040118 v19_0
100
AcDbLine
 10
8.273749999999999
 20
-0.3625
 30
0.0
 11
8.273749999999999
 21
-1.5425
 31
0.0
  0
LINE
  5
7D
330
70
100
AcDbEntity
  8
plate-20201117-040118 v19_0
100
AcDbLine
 10
15.94375
 20
-1.5925
 30
0.0
 11
17.39375
 21
-1.5925
 31
0.0
  0
LINE
  5
7E
330
70
100
AcDbEntity
  8
plate-20201117-040118 v19_0
100
AcDbLine
 10
2.60875
 20
-1.5925
 30
0.0
 11
4.058749999999999
 21
-1.5925
 31
0.0
  0
LINE
  5
7F
330
70
100
AcDbEntity
  8
plate-20201117-040118 v19_0
100
AcDbLine
 10
6.41875
 20
-1.5925
 30
0.0
 11
7.86875
 21
-1.5925
 31
0.0
  0
LINE
  5
80
330
70
100
AcDbEntity
  8
plate-20201117-040118 v19_0
100
AcDbLine
 10
6.01375
 20
-0.3625
 30
0.0
 11
6.01375
 21
-1.5425
 31
0.0
  0
ARC
  5
81
330
70
100
AcDbEntity
  8
plate-20201117-040118 v19_0
100
AcDbCircle
 10
4.058749999999999
 20
-0.3625
 30
0.0
 40
0.0499999999999998
100
AcDbArc
 50
0.0
 51
90.0
  0
LINE
  5
82
330
70
100
AcDbEntity
  8
plate-20201117-040118 v19_0
100
AcDbLine
 10
12.13375
 20
-1.5925
 30
0.0
 11
13.58375
 21
-1.5925
 31
0.0
  0
LINE
  5
83
330
70
100
AcDbEntity
  8
plate-20201117-040118 v19_0
100
AcDbLine
 10
26.37125
 20
-7.9825
 30
0.0
 11
26.37125
 21
-9.162499999999999
 31
0.0
  0
ARC
  5
84
330
70
100
AcDbEntity
  8
plate-20201117-040118 v19_0
100
AcDbCircle
 10
27.87125
 20
-9.162499999999999
 30
0.0
 40
0.0500000000000007
100
AcDbArc
 50
270.0
 51
0.0
  0
LINE
  5
85
330
70
100
AcDbEntity
  8
plate-20201117-040118 v19_0
100
AcDbLine
 10
21.1825
 20
-7.9325
 30
0.0
 11
22.6325
 21
-7.9325
 31
0.0
  0
ARC
  5
86
330
70
100
AcDbEntity
  8
plate-20201117-040118 v19_0
100
AcDbCircle
 10
23.801875
 20
-7.9825
 30
0.0
 40
0.0499999999999998
100
AcDbArc
 50
90.0
 51
180.0
  0
ARC
  5
87
330
70
100
AcDbEntity
  8
plate-20201117-040118 v19_0
100
AcDbCircle
 10
18.9195
 20
-9.431
 30
0.0
 40
0.0500000000000007
100
AcDbArc
 50
270.0
 51
0.0
  0
ARC
  5
88
330
70
100
AcDbEntity
  8
plate-20201117-040118 v19_0
100
AcDbCircle
 10
21.1825
 20
-9.162499999999999
 30
0.0
 40
0.0500000000000007
100
AcDbArc
 50
180.0
 51
270.0
  0
LINE
  5
89
330
70
100
AcDbEntity
  8
plate-20201117-040118 v19_0
100
AcDbLine
 10
0.2999999999999999
 20
-9.525
 30
0.0
 11
28.275
 21
-9.524999999999998
 31
0.0
  0
ARC
  5
8A
330
70
100
AcDbEntity
  8
plate-20201117-040118 v19_0
100
AcDbCircle
 10
9.655499999999999
 20
-9.009999999999999
 30
0.0
 40
0.0500000000000007
100
AcDbArc
 50
90.0
 51
180.0
  0
LINE
  5
8B
330
70
100
AcDbEntity
  8
plate-20201117-040118 v19_0
100
AcDbLine
 10
9.605500000000001
 20
-9.009999999999999
 30
0.0
 11
9.605500000000001
 21
-9.431
 31
0.0
  0
LINE
  5
8C
330
70
100
AcDbEntity
  8
plate-20201117-040118 v19_0
100
AcDbLine
 10
9.8725
 20
-9.009999999999999
 30
0.0
 11
9.8725
 21
-9.431
 31
0.0
  0
ARC
  5
8D
330
70
100
AcDbEntity
  8
plate-20201117-040118 v19_0
100
AcDbCircle
 10
18.7525
 20
-9.431
 30
0.0
 40
0.0500000000000007
100
AcDbArc
 50
180.0
 51
270.0
  0
LINE
  5
8E
330
70
100
AcDbEntity
  8
plate-20201117-040118 v19_0
100
AcDbLine
 10
18.7525
 20
-8.959999999999999
 30
0.0
 11
18.9195
 21
-8.959999999999999
 31
0.0
  0
ARC
  5
8F
330
70
100
AcDbEntity
  8
plate-20201117-040118 v19_0
100
AcDbCircle
 10
15.0125
 20
-9.162499999999999
 30
0.0
 40
0.0500000000000007
100
AcDbArc
 50
270.0
 51
0.0
  0
LINE
  5
90
330
70
100
AcDbEntity
  8
plate-20201117-040118 v19_0
100
AcDbLine
 10
22.6825
 20
-7.9825
 30
0.0
 11
22.6825
 21
-9.162499999999999
 31
0.0
  0
ARC
  5
91
330
70
100
AcDbEntity
  8
plate-20201117-040118 v19_0
100
AcDbCircle
 10
15.0125
 20
-7.9825
 30
0.0
 40
0.0500000000000007
100
AcDbArc
 50
0.0
 51
90.0
  0
ARC
  5
92
330
70
100
AcDbEntity
  8
plate-20201117-040118 v19_0
100
AcDbCircle
 10
9.655499999999999
 20
-9.431
 30
0.0
 40
0.0499999999999989
100
AcDbArc
 50
180.0
 51
270.0
  0
LINE
  5
93
330
70
100
AcDbEntity
  8
plate-20201117-040118 v19_0
100
AcDbLine
 10
27.92125
 20
-7.9825
 30
0.0
 11
27.92125
 21
-9.162499999999999
 31
0.0
  0
LINE
  5
94
330
70
100
AcDbEntity
  8
plate-20201117-040118 v19_0
100
AcDbLine
 10
9.655499999999999
 20
-9.481000000000001
 30
0.0
 11
9.822500000000001
 21
-9.480999999999999
 31
0.0
  0
LINE
  5
95
330
70
100
AcDbEntity
  8
plate-20201117-040118 v19_0
100
AcDbLine
 10
18.7525
 20
-9.481000000000001
 30
0.0
 11
18.9195
 21
-9.481000000000001
 31
0.0
  0
ARC
  5
96
330
70
100
AcDbEntity
  8
plate-20201117-040118 v19_0
100
AcDbCircle
 10
25.251875
 20
-9.162499999999999
 30
0.0
 40
0.0500000000000007
100
AcDbArc
 50
270.0
 51
0.0
  0
ARC
  5
97
330
70
100
AcDbEntity
  8
plate-20201117-040118 v19_0
100
AcDbCircle
 10
18.9195
 20
-9.009999999999999
 30
0.0
 40
0.0500000000000007
100
AcDbArc
 50
0.0
 51
90.0
  0
LINE
  5
98
330
70
100
AcDbEntity
  8
plate-20201117-040118 v19_0
100
AcDbLine
 10
13.5625
 20
-7.9325
 30
0.0
 11
15.0125
 21
-7.9325
 31
0.0
  0
ARC
  5
99
330
70
100
AcDbEntity
  8
plate-20201117-040118 v19_0
100
AcDbCircle
 10
9.822500000000001
 20
-9.009999999999999
 30
0.0
 40
0.0499999999999989
100
AcDbArc
 50
0.0
 51
90.0
  0
LINE
  5
9A
330
70
100
AcDbEntity
  8
plate-20201117-040118 v19_0
100
AcDbLine
 10
26.42125
 20
-9.2125
 30
0.0
 11
27.87125
 21
-9.2125
 31
0.0
  0
LINE
  5
9B
330
70
100
AcDbEntity
  8
plate-20201117-040118 v19_0
100
AcDbLine
 10
7.442499999999999
 20
-7.9825
 30
0.0
 11
7.442499999999999
 21
-9.162499999999999
 31
0.0
  0
ARC
  5
9C
330
70
100
AcDbEntity
  8
plate-20201117-040118 v19_0
100
AcDbCircle
 10
25.251875
 20
-7.9825
 30
0.0
 40
0.0500000000000007
100
AcDbArc
 50
0.0
 51
90.0
  0
ARC
  5
9D
330
70
100
AcDbEntity
  8
plate-20201117-040118 v19_0
100
AcDbCircle
 10
9.822500000000001
 20
-9.431
 30
0.0
 40
0.0499999999999989
100
AcDbArc
 50
270.0
 51
0.0
  0
ARC
  5
9E
330
70
100
AcDbEntity
  8
plate-20201117-040118 v19_0
100
AcDbCircle
 10
22.6325
 20
-9.162499999999999
 30
0.0
 40
0.0500000000000007
100
AcDbArc
 50
270.0
 51
0.0
  0
ARC
  5
9F
330
70
100
AcDbEntity
  8
plate-20201117-040118 v19_0
100
AcDbCircle
 10
21.1825
 20
-7.9825
 30
0.0
 40
0.0499999999999998
100
AcDbArc
 50
90.0
 51
180.0
  0
ARC
  5
A0
330
70
100
AcDbEntity
  8
plate-20201117-040118 v19_0
100
AcDbCircle
 10
13.5625
 20
-7.9825
 30
0.0
 40
0.0499999999999998
100
AcDbArc
 50
90.0
 51
180.0
  0
LINE
  5
A1
330
70
100
AcDbEntity
  8
plate-20201117-040118 v19_0
100
AcDbLine
 10
21.1325
 20
-7.9825
 30
0.0
 11
21.1325
 21
-9.162499999999999
 31
0.0
  0
LINE
  5
A2
330
70
100
AcDbEntity
  8
plate-20201117-040118 v19_0
100
AcDbLine
 10
23.801875
 20
-9.2125
 30
0.0
 11
25.251875
 21
-9.2125
 31
0.0
  0
LINE
  5
A3
330
70
100
AcDbEntity
  8
plate-20201117-040118 v19_0
100
AcDbLine
 10
18.7025
 20
-9.009999999999999
 30
0.0
 11
18.7025
 21
-9.431
 31
0.0
  0
LINE
  5
A4
330
70
100
AcDbEntity
  8
plate-20201117-040118 v19_0
100
AcDbLine
 10
25.301875
 20
-7.9825
 30
0.0
 11
25.301875
 21
-9.162499999999999
 31
0.0
  0
LINE
  5
A5
330
70
100
AcDbEntity
  8
plate-20201117-040118 v19_0
100
AcDbLine
 10
23.751875
 20
-7.9825
 30
0.0
 11
23.751875
 21
-9.162499999999999
 31
0.0
  0
LINE
  5
A6
330
70
100
AcDbEntity
  8
plate-20201117-040118 v19_0
100
AcDbLine
 10
13.5125
 20
-7.9825
 30
0.0
 11
13.5125
 21
-9.162499999999999
 31
0.0
  0
ARC
  5
A7
330
70
100
AcDbEntity
  8
plate-20201117-040118 v19_0
100
AcDbCircle
 10
5.942499999999999
 20
-9.162499999999999
 30
0.0
 40
0.0499999999999998
100
AcDbArc
 50
180.0
 51
270.0
  0
ARC
  5
A8
330
70
100
AcDbEntity
  8
plate-20201117-040118 v19_0
100
AcDbCircle
 10
26.42125
 20
-9.162499999999999
 30
0.0
 40
0.0500000000000007
100
AcDbArc
 50
180.0
 51
270.0
  0
LINE
  5
A9
330
70
100
AcDbEntity
  8
plate-20201117-040118 v19_0
100
AcDbLine
 10
15.0625
 20
-7.9825
 30
0.0
 11
15.0625
 21
-9.162499999999999
 31
0.0
  0
ARC
  5
AA
330
70
100
AcDbEntity
  8
plate-20201117-040118 v19_0
100
AcDbCircle
 10
22.6325
 20
-7.9825
 30
0.0
 40
0.0500000000000007
100
AcDbArc
 50
0.0
 51
90.0
  0
ARC
  5
AB
330
70
100
AcDbEntity
  8
plate-20201117-040118 v19_0
100
AcDbCircle
 10
13.5625
 20
-9.162499999999999
 30
0.0
 40
0.0500000000000007
100
AcDbArc
 50
180.0
 51
270.0
  0
ARC
  5
AC
330
70
100
AcDbEntity
  8
plate-20201117-040118 v19_0
100
AcDbCircle
 10
5.942499999999999
 20
-7.9825
 30
0.0
 40
0.0499999999999998
100
AcDbArc
 50
90.0
 51
180.0
  0
LINE
  5
AD
330
70
100
AcDbEntity
  8
plate-20201117-040118 v19_0
100
AcDbLine
 10
18.9695
 20
-9.009999999999999
 30
0.0
 11
18.9695
 21
-9.431
 31
0.0
  0
LINE
  5
AE
330
70
100
AcDbEntity
  8
plate-20201117-040118 v19_0
100
AcDbLine
 10
26.42125
 20
-7.9325
 30
0.0
 11
27.87125
 21
-7.9325
 31
0.0
  0
ARC
  5
AF
330
70
100
AcDbEntity
  8
plate-20201117-040118 v19_0
100
AcDbCircle
 10
7.3925
 20
-9.162499999999999
 30
0.0
 40
0.0500000000000007
100
AcDbArc
 50
270.0
 51
0.0
  0
LINE
  5
B0
330
70
100
AcDbEntity
  8
plate-20201117-040118 v19_0
100
AcDbLine
 10
21.1825
 20
-9.2125
 30
0.0
 11
22.6325
 21
-9.2125
 31
0.0
  0
LINE
  5
B1
330
70
100
AcDbEntity
  8
plate-20201117-040118 v19_0
100
AcDbLine
 10
9.655499999999999
 20
-8.959999999999999
 30
0.0
 11
9.822500000000001
 21
-8.959999999999999
 31
0.0
  0
ARC
  5
B2
330
70
100
AcDbEntity
  8
plate-20201117-040118 v19_0
100
AcDbCircle
 10
23.801875
 20
-9.162499999999999
 30
0.0
 40
0.0500000000000007
100
AcDbArc
 50
180.0
 51
270.0
  0
ARC
  5
B3
330
70
100
AcDbEntity
  8
plate-20201117-040118 v19_0
100
AcDbCircle
 10
27.87125
 20
-7.9825
 30
0.0
 40
0.0500000000000007
100
AcDbArc
 50
0.0
 51
90.0
  0
ARC
  5
B4
330
70
100
AcDbEntity
  8
plate-20201117-040118 v19_0
100
AcDbCircle
 10
18.7525
 20
-9.009999999999999
 30
0.0
 40
0.0500000000000007
100
AcDbArc
 50
90.0
 51
180.0
  0
LINE
  5
B5
330
70
100
AcDbEntity
  8
plate-20201117-040118 v19_0
100
AcDbLine
 10
23.801875
 20
-7.9325
 30
0.0
 11
25.251875
 21
-7.9325
 31
0.0
  0
LINE
  5
B6
330
70
100
AcDbEntity
  8
plate-20201117-040118 v19_0
100
AcDbLine
 10
9.82375
 20
-0.3625
 30
0.0
 11
9.82375
 21
-1.5425
 31
0.0
  0
ARC
  5
B7
330
70
100
AcDbEntity
  8
plate-20201117-040118 v19_0
100
AcDbCircle
 10
11.67875
 20
-0.3625
 30
0.0
 40
0.0500000000000007
100
AcDbArc
 50
0.0
 51
90.0
  0
LINE
  5
B8
330
70
100
AcDbEntity
  8
plate-20201117-040118 v19_0
100
AcDbLine
 10
8.32375
 20
-1.5925
 30
0.0
 11
9.773749999999999
 21
-1.5925
 31
0.0
  0
ARC
  5
B9
330
70
100
AcDbEntity
  8
plate-20201117-040118 v19_0
100
AcDbCircle
 10
12.13375
 20
-1.5425
 30
0.0
 40
0.0500000000000007
100
AcDbArc
 50
180.0
 51
270.0
  0
LINE
  5
BA
330
70
100
AcDbEntity
  8
plate-20201117-040118 v19_0
100
AcDbLine
 10
13.63375
 20
-0.3625
 30
0.0
 11
13.63375
 21
-1.5425
 31
0.0
  0
LINE
  5
BB
330
70
100
AcDbEntity
  8
plate-20201117-040118 v19_0
100
AcDbLine
 10
2.60875
 20
-0.3125
 30
0.0
 11
4.058749999999999
 21
-0.3125
 31
0.0
  0
LINE
  5
BC
330
70
100
AcDbEntity
  8
plate-20201117-040118 v19_0
100
AcDbLine
 10
4.51375
 20
-1.5925
 30
0.0
 11
5.96375
 21
-1.5925
 31
0.0
  0
ARC
  5
BD
330
70
100
AcDbEntity
  8
plate-20201117-040118 v19_0
100
AcDbCircle
 10
7.86875
 20
-0.3625
 30
0.0
 40
0.0499999999999998
100
AcDbArc
 50
0.0
 51
90.0
  0
ARC
  5
BE
330
70
100
AcDbEntity
  8
plate-20201117-040118 v19_0
100
AcDbCircle
 10
6.41875
 20
-0.3625
 30
0.0
 40
0.05
100
AcDbArc
 50
90.0
 51
180.0
  0
ARC
  5
BF
330
70
100
AcDbEntity
  8
plate-20201117-040118 v19_0
100
AcDbCircle
 10
15.48875
 20
-0.3625
 30
0.0
 40
0.0500000000000007
100
AcDbArc
 50
0.0
 51
90.0
  0
ARC
  5
C0
330
70
100
AcDbEntity
  8
plate-20201117-040118 v19_0
100
AcDbCircle
 10
7.86875
 20
-1.5425
 30
0.0
 40
0.0500000000000001
100
AcDbArc
 50
270.0
 51
0.0
  0
LINE
  5
C1
330
70
100
AcDbEntity
  8
plate-20201117-040118 v19_0
100
AcDbLine
 10
13.5625
 20
-9.2125
 30
0.0
 11
15.0125
 21
-9.2125
 31
0.0
  0
LINE
  5
C2
330
70
100
AcDbEntity
  8
plate-20201117-040118 v19_0
100
AcDbLine
 10
0.415625
 20
-0.3625
 30
0.0
 11
0.415625
 21
-1.5425
 31
0.0
  0
ARC
  5
C3
330
70
100
AcDbEntity
  8
plate-20201117-040118 v19_0
100
AcDbCircle
 10
1.915625
 20
-0.3625
 30
0.0
 40
0.0500000000000001
100
AcDbArc
 50
0.0
 51
90.0
  0
LINE
  5
C4
330
70
100
AcDbEntity
  8
plate-20201117-040118 v19_0
100
AcDbLine
 10
0.465625
 20
-0.3125
 30
0.0
 11
1.915625
 21
-0.3125
 31
0.0
  0
LINE
  5
C5
330
70
100
AcDbEntity
  8
plate-20201117-040118 v19_0
100
AcDbLine
 10
17.44375
 20
-0.3625
 30
0.0
 11
17.44375
 21
-1.5425
 31
0.0
  0
LINE
  5
C6
330
70
100
AcDbEntity
  8
plate-20201117-040118 v19_0
100
AcDbLine
 10
10.22875
 20
-1.5925
 30
0.0
 11
11.67875
 21
-1.5925
 31
0.0
  0
LINE
  5
C7
330
70
100
AcDbEntity
  8
plate-20201117-040118 v19_0
100
AcDbLine
 10
14.03875
 20
-1.5925
 30
0.0
 11
15.48875
 21
-1.5925
 31
0.0
  0
ARC
  5
C8
330
70
100
AcDbEntity
  8
plate-20201117-040118 v19_0
100
AcDbCircle
 10
15.48875
 20
-1.5425
 30
0.0
 40
0.0500000000000001
100
AcDbArc
 50
270.0
 51
0.0
  0
ARC
  5
C9
330
70
100
AcDbEntity
  8
plate-20201117-040118 v19_0
100
AcDbCircle
 10
0.465625
 20
-0.3625
 30
0.0
 40
0.05
100
AcDbArc
 50
90.0
 51
180.0
  0
ARC
  5
CA
330
70
100
AcDbEntity
  8
plate-20201117-040118 v19_0
100
AcDbCircle
 10
4.51375
 20
-0.3625
 30
0.0
 40
0.05
100
AcDbArc
 50
90.0
 51
180.0
  0
ARC
  5
CB
330
70
100
AcDbEntity
  8
plate-20201117-040118 v19_0
100
AcDbCircle
 10
13.58375
 20
-0.3625
 30
0.0
 40
0.0500000000000007
100
AcDbArc
 50
0.0
 51
90.0
  0
LINE
  5
CC
330
70
100
AcDbEntity
  8
plate-20201117-040118 v19_0
100
AcDbLine
 10
12.08375
 20
-0.3625
 30
0.0
 11
12.08375
 21
-1.5425
 31
0.0
  0
ARC
  5
CD
330
70
100
AcDbEntity
  8
plate-20201117-040118 v19_0
100
AcDbCircle
 10
8.32375
 20
-1.5425
 30
0.0
 40
0.0500000000000007
100
AcDbArc
 50
180.0
 51
270.0
  0
ARC
  5
CE
330
70
100
AcDbEntity
  8
plate-20201117-040118 v19_0
100
AcDbCircle
 10
11.67875
 20
-1.5425
 30
0.0
 40
0.0500000000000001
100
AcDbArc
 50
270.0
 51
0.0
  0
ARC
  5
CF
330
70
100
AcDbEntity
  8
plate-20201117-040118 v19_0
100
AcDbCircle
 10
2.60875
 20
-1.5425
 30
0.0
 40
0.0499999999999998
100
AcDbArc
 50
180.0
 51
270.0
  0
LINE
  5
D0
330
70
100
AcDbEntity
  8
plate-20201117-040118 v19_0
100
AcDbLine
 10
1.965625
 20
-0.3625
 30
0.0
 11
1.965625
 21
-1.5425
 31
0.0
  0
ARC
  5
D1
330
70
100
AcDbEntity
  8
plate-20201117-040118 v19_0
100
AcDbCircle
 10
5.96375
 20
-1.5425
 30
0.0
 40
0.0500000000000001
100
AcDbArc
 50
270.0
 51
0.0
  0
LINE
  5
D2
330
70
100
AcDbEntity
  8
plate-20201117-040118 v19_0
100
AcDbLine
 10
0.465625
 20
-1.5925
 30
0.0
 11
1.915625
 21
-1.5925
 31
0.0
  0
LINE
  5
D3
330
70
100
AcDbEntity
  8
plate-20201117-040118 v19_0
100
AcDbLine
 10
8.32375
 20
-0.3125
 30
0.0
 11
9.773749999999999
 21
-0.3125
 31
0.0
  0
LINE
  5
D4
330
70
100
AcDbEntity
  8
plate-20201117-040118 v19_0
100
AcDbLine
 10
4.108749999999999
 20
-0.3625
 30
0.0
 11
4.108749999999999
 21
-1.5425
 31
0.0
  0
LINE
  5
D5
330
70
100
AcDbEntity
  8
plate-20201117-040118 v19_0
100
AcDbLine
 10
6.36875
 20
-0.3625
 30
0.0
 11
6.36875
 21
-1.5425
 31
0.0
  0
ARC
  5
D6
330
70
100
AcDbEntity
  8
plate-20201117-040118 v19_0
100
AcDbCircle
 10
4.51375
 20
-1.5425
 30
0.0
 40
0.0499999999999998
100
AcDbArc
 50
180.0
 51
270.0
  0
LINE
  5
D7
330
70
100
AcDbEntity
  8
plate-20201117-040118 v19_0
100
AcDbLine
 10
11.72875
 20
-0.3625
 30
0.0
 11
11.72875
 21
-1.5425
 31
0.0
  0
ARC
  5
D8
330
70
100
AcDbEntity
  8
plate-20201117-040118 v19_0
100
AcDbCircle
 10
9.773749999999999
 20
-1.5425
 30
0.0
 40
0.0500000000000001
100
AcDbArc
 50
270.0
 51
0.0
  0
ARC
  5
D9
330
70
100
AcDbEntity
  8
plate-20201117-040118 v19_0
100
AcDbCircle
 10
5.96375
 20
-0.3625
 30
0.0
 40
0.0499999999999998
100
AcDbArc
 50
0.0
 51
90.0
  0
LINE
  5
DA
330
70
100
AcDbEntity
  8
plate-20201117-040118 v19_0
100
AcDbLine
 10
4.51375
 20
-0.3125
 30
0.0
 11
5.96375
 21
-0.3125
 31
0.0
  0
LINE
  5
DB
330
70
100
AcDbEntity
  8
plate-20201117-040118 v19_0
100
AcDbLine
 10
10.17875
 20
-0.3625
 30
0.0
 11
10.17875
 21
-1.5425
 31
0.0
  0
ARC
  5
DC
330
70
100
AcDbEntity
  8
plate-20201117-040118 v19_0
100
AcDbCircle
 10
0.465625
 20
-1.5425
 30
0.0
 40
0.05
100
AcDbArc
 50
180.0
 51
270.0
  0
ARC
  5
DD
330
70
100
AcDbEntity
  8
plate-20201117-040118 v19_0
100
AcDbCircle
 10
1.915625
 20
-1.5425
 30
0.0
 40
0.0500000000000001
100
AcDbArc
 50
270.0
 51
0.0
  0
ARC
  5
DE
330
70
100
AcDbEntity
  8
plate-20201117-040118 v19_0
100
AcDbCircle
 10
10.22875
 20
-0.3625
 30
0.0
 40
0.05
100
AcDbArc
 50
90.0
 51
180.0
  0
LINE
  5
DF
330
70
100
AcDbEntity
  8
plate-20201117-040118 v19_0
100
AcDbLine
 10
13.98875
 20
-0.3625
 30
0.0
 11
13.98875
 21
-1.5425
 31
0.0
  0
ARC
  5
E0
330
70
100
AcDbEntity
  8
plate-20201117-040118 v19_0
100
AcDbCircle
 10
2.60875
 20
-0.3625
 30
0.0
 40
0.05
100
AcDbArc
 50
90.0
 51
180.0
  0
ARC
  5
E1
330
70
100
AcDbEntity
  8
plate-20201117-040118 v19_0
100
AcDbCircle
 10
7.3925
 20
-7.9825
 30
0.0
 40
0.0499999999999998
100
AcDbArc
 50
0.0
 51
90.0
  0
LINE
  5
E2
330
70
100
AcDbEntity
  8
plate-20201117-040118 v19_0
100
AcDbLine
 10
12.13375
 20
-0.3125
 30
0.0
 11
13.58375
 21
-0.3125
 31
0.0
  0
LINE
  5
E3
330
70
100
AcDbEntity
  8
plate-20201117-040118 v19_0
100
AcDbLine
 10
2.55875
 20
-0.3625
 30
0.0
 11
2.558749999999999
 21
-1.5425
 31
0.0
  0
ARC
  5
E4
330
70
100
AcDbEntity
  8
plate-20201117-040118 v19_0
100
AcDbCircle
 10
10.22875
 20
-1.5425
 30
0.0
 40
0.0500000000000007
100
AcDbArc
 50
180.0
 51
270.0
  0
ARC
  5
E5
330
70
100
AcDbEntity
  8
plate-20201117-040118 v19_0
100
AcDbCircle
 10
8.32375
 20
-0.3625
 30
0.0
 40
0.05
100
AcDbArc
 50
90.0
 51
180.0
  0
ARC
  5
E6
330
70
100
AcDbEntity
  8
plate-20201117-040118 v19_0
100
AcDbCircle
 10
12.13375
 20
-0.3625
 30
0.0
 40
0.05
100
AcDbArc
 50
90.0
 51
180.0
  0
LINE
  5
E7
330
70
100
AcDbEntity
  8
plate-20201117-040118 v19_0
100
AcDbLine
 10
4.46375
 20
-0.3625
 30
0.0
 11
4.46375
 21
-1.5425
 31
0.0
  0
LINE
  5
E8
330
70
100
AcDbEntity
  8
plate-20201117-040118 v19_0
100
AcDbLine
 10
15.53875
 20
-0.3625
 30
0.0
 11
15.53875
 21
-1.5425
 31
0.0
  0
LINE
  5
E9
330
70
100
AcDbEntity
  8
plate-20201117-040118 v19_0
100
AcDbLine
 10
0.2999999999999999
 20
0.0
 30
0.0
 11
28.275
 21
0.0
 31
0.0
  0
ARC
  5
EA
330
70
100
AcDbEntity
  8
plate-20201117-040118 v19_0
100
AcDbCircle
 10
14.03875
 20
-1.5425
 30
0.0
 40
0.0500000000000007
100
AcDbArc
 50
180.0
 51
270.0
  0
LINE
  5
EB
330
70
100
AcDbEntity
  8
plate-20201117-040118 v19_0
100
AcDbLine
 10
10.22875
 20
-0.3125
 30
0.0
 11
11.67875
 21
-0.3125
 31
0.0
  0
LINE
  5
EC
330
70
100
AcDbEntity
  8
plate-20201117-040118 v19_0
100
AcDbLine
 10
14.03875
 20
-0.3125
 30
0.0
 11
15.48875
 21
-0.3125
 31
0.0
  0
ARC
  5
ED
330
70
100
AcDbEntity
  8
plate-20201117-040118 v19_0
100
AcDbCircle
 10
14.03875
 20
-0.3625
 30
0.0
 40
0.05
100
AcDbArc
 50
90.0
 51
180.0
  0
LINE
  5
EE
330
70
100
AcDbEntity
  8
plate-20201117-040118 v19_0
100
AcDbLine
 10
7.91875
 20
-0.3625
 30
0.0
 11
7.91875
 21
-1.5425
 31
0.0
  0
ARC
  5
EF
330
70
100
AcDbEntity
  8
plate-20201117-040118 v19_0
100
AcDbCircle
 10
9.773749999999999
 20
-0.3625
 30
0.0
 40
0.0500000000000007
100
AcDbArc
 50
0.0
 51
90.0
  0
ARC
  5
F0
330
70
100
AcDbEntity
  8
plate-20201117-040118 v19_0
100
AcDbCircle
 10
4.058749999999999
 20
-1.5425
 30
0.0
 40
0.0500000000000001
100
AcDbArc
 50
270.0
 51
0.0
  0
ARC
  5
F1
330
70
100
AcDbEntity
  8
plate-20201117-040118 v19_0
100
AcDbCircle
 10
26.42125
 20
-7.9825
 30
0.0
 40
0.0499999999999998
100
AcDbArc
 50
90.0
 51
180.0
  0
LINE
  5
F2
330
70
100
AcDbEntity
  8
plate-20201117-040118 v19_0
100
AcDbLine
 10
15.89375
 20
-0.3625
 30
0.0
 11
15.89375
 21
-1.5425
 31
0.0
  0
ARC
  5
F3
330
70
100
AcDbEntity
  8
plate-20201117-040118 v19_0
100
AcDbCircle
 10
6.41875
 20
-1.5425
 30
0.0
 40
0.0499999999999998
100
AcDbArc
 50
180.0
 51
270.0
  0
LINE
  5
F4
330
70
100
AcDbEntity
  8
plate-20201117-040118 v19_0
100
AcDbLine
 10
21.73
 20
-6.0775
 30
0.0
 11
21.73
 21
-7.2575
 31
0.0
  0
ARC
  5
F5
330
70
100
AcDbEntity
  8
plate-20201117-040118 v19_0
100
AcDbCircle
 10
16.42
 20
-6.0775
 30
0.0
 40
0.0499999999999998
100
AcDbArc
 50
90.0
 51
180.0
  0
ARC
  5
F6
330
70
100
AcDbEntity
  8
plate-20201117-040118 v19_0
100
AcDbCircle
 10
24.71025
 20
-7.105
 30
0.0
 40
0.0499999999999998
100
AcDbArc
 50
90.0
 51
180.0
  0
ARC
  5
F7
330
70
100
AcDbEntity
  8
plate-20201117-040118 v19_0
100
AcDbCircle
 10
10.25
 20
-7.2575
 30
0.0
 40
0.0499999999999998
100
AcDbArc
 50
270.0
 51
0.0
  0
LINE
  5
F8
330
70
100
AcDbEntity
  8
plate-20201117-040118 v19_0
100
AcDbLine
 10
14.11
 20
-6.0775
 30
0.0
 11
14.11
 21
-7.2575
 31
0.0
  0
LINE
  5
F9
330
70
100
AcDbEntity
  8
plate-20201117-040118 v19_0
100
AcDbLine
 10
25.41875
 20
-6.0775
 30
0.0
 11
25.41875
 21
-7.2575
 31
0.0
  0
ARC
  5
FA
330
70
100
AcDbEntity
  8
plate-20201117-040118 v19_0
100
AcDbCircle
 10
15.965
 20
-6.0775
 30
0.0
 40
0.0499999999999989
100
AcDbArc
 50
0.0
 51
90.0
  0
LINE
  5
FB
330
70
100
AcDbEntity
  8
plate-20201117-040118 v19_0
100
AcDbLine
 10
12.61
 20
-6.027499999999999
 30
0.0
 11
14.06
 21
-6.027499999999999
 31
0.0
  0
LINE
  5
FC
330
70
100
AcDbEntity
  8
plate-20201117-040118 v19_0
100
AcDbLine
 10
16.42
 20
-7.3075
 30
0.0
 11
17.87
 21
-7.3075
 31
0.0
  0
ARC
  5
FD
330
70
100
AcDbEntity
  8
plate-20201117-040118 v19_0
100
AcDbCircle
 10
27.51025
 20
-7.526
 30
0.0
 40
0.0500000000000007
100
AcDbArc
 50
180.0
 51
270.0
  0
LINE
  5
FE
330
70
100
AcDbEntity
  8
plate-20201117-040118 v19_0
100
AcDbLine
 10
23.635
 20
-6.0775
 30
0.0
 11
23.635
 21
-7.2575
 31
0.0
  0
LINE
  5
FF
330
70
100
AcDbEntity
  8
plate-20201117-040118 v19_0
100
AcDbLine
 10
16.015
 20
-6.0775
 30
0.0
 11
16.015
 21
-7.2575
 31
0.0
  0
ARC
  5
100
330
70
100
AcDbEntity
  8
plate-20201117-040118 v19_0
100
AcDbCircle
 10
14.515
 20
-6.0775
 30
0.0
 40
0.0499999999999998
100
AcDbArc
 50
90.0
 51
180.0
  0
ARC
  5
101
330
70
100
AcDbEntity
  8
plate-20201117-040118 v19_0
100
AcDbCircle
 10
14.515
 20
-7.2575
 30
0.0
 40
0.0500000000000007
100
AcDbArc
 50
180.0
 51
270.0
  0
LINE
  5
102
330
70
100
AcDbEntity
  8
plate-20201117-040118 v19_0
100
AcDbLine
 10
0.70375
 20
-7.9325
 30
0.0
 11
2.15375
 21
-7.9325
 31
0.0
  0
ARC
  5
103
330
70
100
AcDbEntity
  8
plate-20201117-040118 v19_0
100
AcDbCircle
 10
20.23000000000001
 20
-7.2575
 30
0.0
 40
0.0500000000000007
100
AcDbArc
 50
180.0
 51
270.0
  0
ARC
  5
104
330
70
100
AcDbEntity
  8
plate-20201117-040118 v19_0
100
AcDbCircle
 10
24.87725000000001
 20
-7.526
 30
0.0
 40
0.0499999999999998
100
AcDbArc
 50
270.0
 51
0.0
  0
LINE
  5
105
330
70
100
AcDbEntity
  8
plate-20201117-040118 v19_0
100
AcDbLine
 10
18.325
 20
-6.027499999999999
 30
0.0
 11
19.775
 21
-6.027499999999999
 31
0.0
  0
LINE
  5
106
330
70
100
AcDbEntity
  8
plate-20201117-040118 v19_0
100
AcDbLine
 10
18.275
 20
-6.0775
 30
0.0
 11
18.275
 21
-7.2575
 31
0.0
  0
ARC
  5
107
330
70
100
AcDbEntity
  8
plate-20201117-040118 v19_0
100
AcDbCircle
 10
24.71025
 20
-7.526
 30
0.0
 40
0.0500000000000007
100
AcDbArc
 50
180.0
 51
270.0
  0
ARC
  5
108
330
70
100
AcDbEntity
  8
plate-20201117-040118 v19_0
100
AcDbCircle
 10
12.155
 20
-6.0775
 30
0.0
 40
0.0500000000000007
100
AcDbArc
 50
0.0
 51
90.0
  0
LINE
  5
109
330
70
100
AcDbEntity
  8
plate-20201117-040118 v19_0
100
AcDbLine
 10
16.37
 20
-6.0775
 30
0.0
 11
16.37
 21
-7.2575
 31
0.0
  0
ARC
  5
10A
330
70
100
AcDbEntity
  8
plate-20201117-040118 v19_0
100
AcDbCircle
 10
17.87
 20
-7.2575
 30
0.0
 40
0.0499999999999998
100
AcDbArc
 50
270.0
 51
0.0
  0
LINE
  5
10B
330
70
100
AcDbEntity
  8
plate-20201117-040118 v19_0
100
AcDbLine
 10
25.46875
 20
-6.0275
 30
0.0
 11
26.91875
 21
-6.027499999999999
 31
0.0
  0
LINE
  5
10C
330
70
100
AcDbEntity
  8
plate-20201117-040118 v19_0
100
AcDbLine
 10
16.42
 20
-6.0275
 30
0.0
 11
17.87
 21
-6.027499999999999
 31
0.0
  0
ARC
  5
10D
330
70
100
AcDbEntity
  8
plate-20201117-040118 v19_0
100
AcDbCircle
 10
25.46875
 20
-6.0775
 30
0.0
 40
0.0499999999999998
100
AcDbArc
 50
90.0
 51
180.0
  0
ARC
  5
10E
330
70
100
AcDbEntity
  8
plate-20201117-040118 v19_0
100
AcDbCircle
 10
27.67725
 20
-7.526
 30
0.0
 40
0.0499999999999998
100
AcDbArc
 50
270.0
 51
0.0
  0
LINE
  5
10F
330
70
100
AcDbEntity
  8
plate-20201117-040118 v19_0
100
AcDbLine
 10
24.92725
 20
-7.105
 30
0.0
 11
24.92725
 21
-7.526
 31
0.0
  0
ARC
  5
110
330
70
100
AcDbEntity
  8
plate-20201117-040118 v19_0
100
AcDbCircle
 10
22.135
 20
-7.2575
 30
0.0
 40
0.0500000000000007
100
AcDbArc
 50
180.0
 51
270.0
  0
LINE
  5
111
330
70
100
AcDbEntity
  8
plate-20201117-040118 v19_0
100
AcDbLine
 10
14.515
 20
-7.3075
 30
0.0
 11
15.965
 21
-7.3075
 31
0.0
  0
LINE
  5
112
330
70
100
AcDbEntity
  8
plate-20201117-040118 v19_0
100
AcDbLine
 10
27.72725
 20
-7.105
 30
0.0
 11
27.72725
 21
-7.526
 31
0.0
  0
ARC
  5
113
330
70
100
AcDbEntity
  8
plate-20201117-040118 v19_0
100
AcDbCircle
 10
10.705
 20
-6.0775
 30
0.0
 40
0.0499999999999998
100
AcDbArc
 50
90.0
 51
180.0
  0
ARC
  5
114
330
70
100
AcDbEntity
  8
plate-20201117-040118 v19_0
100
AcDbCircle
 10
10.25
 20
-6.0775
 30
0.0
 40
0.0500000000000007
100
AcDbArc
 50
0.0
 51
90.0
  0
LINE
  5
115
330
70
100
AcDbEntity
  8
plate-20201117-040118 v19_0
100
AcDbLine
 10
22.135
 20
-7.3075
 30
0.0
 11
23.585
 21
-7.3075
 31
0.0
  0
LINE
  5
116
330
70
100
AcDbEntity
  8
plate-20201117-040118 v19_0
100
AcDbLine
 10
20.18
 20
-6.0775
 30
0.0
 11
20.18
 21
-7.2575
 31
0.0
  0
LINE
  5
117
330
70
100
AcDbEntity
  8
plate-20201117-040118 v19_0
100
AcDbLine
 10
25.46875
 20
-7.3075
 30
0.0
 11
26.91875
 21
-7.3075
 31
0.0
  0
LINE
  5
118
330
70
100
AcDbEntity
  8
plate-20201117-040118 v19_0
100
AcDbLine
 10
10.655
 20
-6.0775
 30
0.0
 11
10.655
 21
-7.2575
 31
0.0
  0
ARC
  5
119
330
70
100
AcDbEntity
  8
plate-20201117-040118 v19_0
100
AcDbCircle
 10
16.42
 20
-7.2575
 30
0.0
 40
0.0500000000000007
100
AcDbArc
 50
180.0
 51
270.0
  0
ARC
  5
11A
330
70
100
AcDbEntity
  8
plate-20201117-040118 v19_0
100
AcDbCircle
 10
24.87725000000001
 20
-7.105
 30
0.0
 40
0.0500000000000007
100
AcDbArc
 50
0.0
 51
90.0
  0
LINE
  5
11B
330
70
100
AcDbEntity
  8
plate-20201117-040118 v19_0
100
AcDbLine
 10
6.41875
 20
-0.3125
 30
0.0
 11
7.86875
 21
-0.3125
 31
0.0
  0
LINE
  5
11C
330
70
100
AcDbEntity
  8
plate-20201117-040118 v19_0
100
AcDbLine
 10
22.085
 20
-6.0775
 30
0.0
 11
22.085
 21
-7.2575
 31
0.0
  0
ARC
  5
11D
330
70
100
AcDbEntity
  8
plate-20201117-040118 v19_0
100
AcDbCircle
 10
17.87
 20
-6.0775
 30
0.0
 40
0.0500000000000007
100
AcDbArc
 50
0.0
 51
90.0
  0
ARC
  5
11E
330
70
100
AcDbEntity
  8
plate-20201117-040118 v19_0
100
AcDbCircle
 10
21.68000000000001
 20
-7.2575
 30
0.0
 40
0.0499999999999998
100
AcDbArc
 50
270.0
 51
0.0
  0
LINE
  5
11F
330
70
100
AcDbEntity
  8
plate-20201117-040118 v19_0
100
AcDbLine
 10
14.465
 20
-6.0775
 30
0.0
 11
14.465
 21
-7.2575
 31
0.0
  0
ARC
  5
120
330
70
100
AcDbEntity
  8
plate-20201117-040118 v19_0
100
AcDbCircle
 10
19.775
 20
-6.0775
 30
0.0
 40
0.0500000000000007
100
AcDbArc
 50
0.0
 51
90.0
  0
LINE
  5
121
330
70
100
AcDbEntity
  8
plate-20201117-040118 v19_0
100
AcDbLine
 10
12.205
 20
-6.0775
 30
0.0
 11
12.205
 21
-7.2575
 31
0.0
  0
ARC
  5
122
330
70
100
AcDbEntity
  8
plate-20201117-040118 v19_0
100
AcDbCircle
 10
19.775
 20
-7.2575
 30
0.0
 40
0.0499999999999998
100
AcDbArc
 50
270.0
 51
0.0
  0
LINE
  5
123
330
70
100
AcDbEntity
  8
plate-20201117-040118 v19_0
100
AcDbLine
 10
27.51025
 20
-7.576
 30
0.0
 11
27.67725
 21
-7.576
 31
0.0
  0
ARC
  5
124
330
70
100
AcDbEntity
  8
plate-20201117-040118 v19_0
100
AcDbCircle
 10
10.705
 20
-7.2575
 30
0.0
 40
0.0500000000000007
100
AcDbArc
 50
180.0
 51
270.0
  0
ARC
  5
125
330
70
100
AcDbEntity
  8
plate-20201117-040118 v19_0
100
AcDbCircle
 10
14.06
 20
-7.2575
 30
0.0
 40
0.0499999999999998
100
AcDbArc
 50
270.0
 51
0.0
  0
ARC
  5
126
330
70
100
AcDbEntity
  8
plate-20201117-040118 v19_0
100
AcDbCircle
 10
21.68000000000001
 20
-6.0775
 30
0.0
 40
0.0500000000000007
100
AcDbArc
 50
0.0
 51
90.0
  0
ARC
  5
127
330
70
100
AcDbEntity
  8
plate-20201117-040118 v19_0
100
AcDbCircle
 10
20.23000000000001
 20
-6.0775
 30
0.0
 40
0.0499999999999998
100
AcDbArc
 50
90.0
 51
180.0
  0
ARC
  5
128
330
70
100
AcDbEntity
  8
plate-20201117-040118 v19_0
100
AcDbCircle
 10
8.8
 20
-7.2575
 30
0.0
 40
0.0500000000000007
100
AcDbArc
 50
180.0
 51
270.0
  0
LINE
  5
129
330
70
100
AcDbEntity
  8
plate-20201117-040118 v19_0
100
AcDbLine
 10
15.94375
 20
-0.3125
 30
0.0
 11
17.39375
 21
-0.3125
 31
0.0
  0
ARC
  5
12A
330
70
100
AcDbEntity
  8
plate-20201117-040118 v19_0
100
AcDbCircle
 10
2.15375
 20
-9.162499999999999
 30
0.0
 40
0.0500000000000007
100
AcDbArc
 50
270.0
 51
0.0
  0
LINE
  5
12B
330
70
100
AcDbEntity
  8
plate-20201117-040118 v19_0
100
AcDbLine
 10
18.325
 20
-7.3075
 30
0.0
 11
19.775
 21
-7.3075
 31
0.0
  0
LINE
  5
12C
330
70
100
AcDbEntity
  8
plate-20201117-040118 v19_0
100
AcDbLine
 10
14.515
 20
-6.027499999999999
 30
0.0
 11
15.965
 21
-6.027499999999999
 31
0.0
  0
ARC
  5
12D
330
70
100
AcDbEntity
  8
plate-20201117-040118 v19_0
100
AcDbCircle
 10
23.585
 20
-6.0775
 30
0.0
 40
0.0500000000000007
100
AcDbArc
 50
0.0
 51
90.0
  0
ARC
  5
12E
330
70
100
AcDbEntity
  8
plate-20201117-040118 v19_0
100
AcDbCircle
 10
18.325
 20
-6.0775
 30
0.0
 40
0.0499999999999998
100
AcDbArc
 50
90.0
 51
180.0
  0
ARC
  5
12F
330
70
100
AcDbEntity
  8
plate-20201117-040118 v19_0
100
AcDbCircle
 10
15.965
 20
-7.2575
 30
0.0
 40
0.0499999999999998
100
AcDbArc
 50
270.0
 51
0.0
  0
ARC
  5
130
330
70
100
AcDbEntity
  8
plate-20201117-040118 v19_0
100
AcDbCircle
 10
27.51025
 20
-7.105
 30
0.0
 40
0.0499999999999998
100
AcDbArc
 50
90.0
 51
180.0
  0
LINE
  5
131
330
70
100
AcDbEntity
  8
plate-20201117-040118 v19_0
100
AcDbLine
 10
20.23000000000001
 20
-7.3075
 30
0.0
 11
21.68000000000001
 21
-7.3075
 31
0.0
  0
LINE
  5
132
330
70
100
AcDbEntity
  8
plate-20201117-040118 v19_0
100
AcDbLine
 10
19.825
 20
-6.0775
 30
0.0
 11
19.825
 21
-7.2575
 31
0.0
  0
LINE
  5
133
330
70
100
AcDbEntity
  8
plate-20201117-040118 v19_0
100
AcDbLine
 10
12.56
 20
-6.0775
 30
0.0
 11
12.56
 21
-7.2575
 31
0.0
  0
LINE
  5
134
330
70
100
AcDbEntity
  8
plate-20201117-040118 v19_0
100
AcDbLine
 10
11.6575
 20
-5.402499999999999
 30
0.0
 11
13.1075
 21
-5.402499999999999
 31
0.0
  0
ARC
  5
135
330
70
100
AcDbEntity
  8
plate-20201117-040118 v19_0
100
AcDbCircle
 10
26.91875
 20
-6.0775
 30
0.0
 40
0.0500000000000007
100
AcDbArc
 50
0.0
 51
90.0
  0
ARC
  5
136
330
70
100
AcDbEntity
  8
plate-20201117-040118 v19_0
100
AcDbCircle
 10
11.6575
 20
-5.3525
 30
0.0
 40
0.0500000000000007
100
AcDbArc
 50
180.0
 51
270.0
  0
ARC
  5
137
330
70
100
AcDbEntity
  8
plate-20201117-040118 v19_0
100
AcDbCircle
 10
7.3925
 20
-4.1725
 30
0.0
 40
0.0499999999999998
100
AcDbArc
 50
0.0
 51
90.0
  0
LINE
  5
138
330
70
100
AcDbEntity
  8
plate-20201117-040118 v19_0
100
AcDbLine
 10
21.1825
 20
-5.402499999999999
 30
0.0
 11
22.6325
 21
-5.402499999999999
 31
0.0
  0
ARC
  5
139
330
70
100
AcDbEntity
  8
plate-20201117-040118 v19_0
100
AcDbCircle
 10
0.70375
 20
-7.9825
 30
0.0
 40
0.0499999999999998
100
AcDbArc
 50
90.0
 51
180.0
  0
ARC
  5
13A
330
70
100
AcDbEntity
  8
plate-20201117-040118 v19_0
100
AcDbCircle
 10
25.46875
 20
-7.2575
 30
0.0
 40
0.0500000000000007
100
AcDbArc
 50
180.0
 51
270.0
  0
ARC
  5
13B
330
70
100
AcDbEntity
  8
plate-20201117-040118 v19_0
100
AcDbCircle
 10
8.345
 20
-6.0775
 30
0.0
 40
0.0500000000000007
100
AcDbArc
 50
0.0
 51
90.0
  0
ARC
  5
13C
330
70
100
AcDbEntity
  8
plate-20201117-040118 v19_0
100
AcDbCircle
 10
3.085
 20
-6.0775
 30
0.0
 40
0.0499999999999998
100
AcDbArc
 50
90.0
 51
180.0
  0
LINE
  5
13D
330
70
100
AcDbEntity
  8
plate-20201117-040118 v19_0
100
AcDbLine
 10
22.135
 20
-6.027499999999999
 30
0.0
 11
23.585
 21
-6.0275
 31
0.0
  0
LINE
  5
13E
330
70
100
AcDbEntity
  8
plate-20201117-040118 v19_0
100
AcDbLine
 10
24.66025
 20
-7.105
 30
0.0
 11
24.66025
 21
-7.526
 31
0.0
  0
ARC
  5
13F
330
70
100
AcDbEntity
  8
plate-20201117-040118 v19_0
100
AcDbCircle
 10
14.06
 20
-6.0775
 30
0.0
 40
0.0500000000000007
100
AcDbArc
 50
0.0
 51
90.0
  0
LINE
  5
140
330
70
100
AcDbEntity
  8
plate-20201117-040118 v19_0
100
AcDbLine
 10
26.96875
 20
-6.0775
 30
0.0
 11
26.96875
 21
-7.2575
 31
0.0
  0
ARC
  5
141
330
70
100
AcDbEntity
  8
plate-20201117-040118 v19_0
100
AcDbCircle
 10
23.585
 20
-7.2575
 30
0.0
 40
0.0499999999999998
100
AcDbArc
 50
270.0
 51
0.0
  0
LINE
  5
142
330
70
100
AcDbEntity
  8
plate-20201117-040118 v19_0
100
AcDbLine
 10
0.70375
 20
-9.2125
 30
0.0
 11
2.15375
 21
-9.2125
 31
0.0
  0
LINE
  5
143
330
70
100
AcDbEntity
  8
plate-20201117-040118 v19_0
100
AcDbLine
 10
15.4175
 20
-4.1725
 30
0.0
 11
15.4175
 21
-5.3525
 31
0.0
  0
ARC
  5
144
330
70
100
AcDbEntity
  8
plate-20201117-040118 v19_0
100
AcDbCircle
 10
12.61
 20
-6.0775
 30
0.0
 40
0.0499999999999998
100
AcDbArc
 50
90.0
 51
180.0
  0
ARC
  5
145
330
70
100
AcDbEntity
  8
plate-20201117-040118 v19_0
100
AcDbCircle
 10
3.085
 20
-7.2575
 30
0.0
 40
0.0499999999999998
100
AcDbArc
 50
180.0
 51
270.0
  0
LINE
  5
146
330
70
100
AcDbEntity
  8
plate-20201117-040118 v19_0
100
AcDbLine
 10
9.752500000000001
 20
-5.402499999999999
 30
0.0
 11
11.2025
 21
-5.402499999999999
 31
0.0
  0
LINE
  5
147
330
70
100
AcDbEntity
  8
plate-20201117-040118 v19_0
100
AcDbLine
 10
21.1825
 20
-4.1225
 30
0.0
 11
22.6325
 21
-4.1225
 31
0.0
  0
LINE
  5
148
330
70
100
AcDbEntity
  8
plate-20201117-040118 v19_0
100
AcDbLine
 10
27.46025
 20
-7.105
 30
0.0
 11
27.46025
 21
-7.526
 31
0.0
  0
LINE
  5
149
330
70
100
AcDbEntity
  8
plate-20201117-040118 v19_0
100
AcDbLine
 10
24.71025
 20
-7.055
 30
0.0
 11
24.87725000000001
 21
-7.055
 31
0.0
  0
LINE
  5
14A
330
70
100
AcDbEntity
  8
plate-20201117-040118 v19_0
100
AcDbLine
 10
0.65375
 20
-7.9825
 30
0.0
 11
0.6537500000000001
 21
-9.162499999999999
 31
0.0
  0
LINE
  5
14B
330
70
100
AcDbEntity
  8
plate-20201117-040118 v19_0
100
AcDbLine
 10
13.5125
 20
-4.1725
 30
0.0
 11
13.5125
 21
-5.3525
 31
0.0
  0
LINE
  5
14C
330
70
100
AcDbEntity
  8
plate-20201117-040118 v19_0
100
AcDbLine
 10
11.2525
 20
-4.1725
 30
0.0
 11
11.2525
 21
-5.3525
 31
0.0
  0
LINE
  5
14D
330
70
100
AcDbEntity
  8
plate-20201117-040118 v19_0
100
AcDbLine
 10
0.70375
 20
-7.3075
 30
0.0
 11
2.15375
 21
-7.3075
 31
0.0
  0
LINE
  5
14E
330
70
100
AcDbEntity
  8
plate-20201117-040118 v19_0
100
AcDbLine
 10
10.705
 20
-7.3075
 30
0.0
 11
12.155
 21
-7.3075
 31
0.0
  0
LINE
  5
14F
330
70
100
AcDbEntity
  8
plate-20201117-040118 v19_0
100
AcDbLine
 10
3.323125
 20
-7.9325
 30
0.0
 11
4.773125
 21
-7.9325
 31
0.0
  0
LINE
  5
150
330
70
100
AcDbEntity
  8
plate-20201117-040118 v19_0
100
AcDbLine
 10
2.203749999999999
 20
-7.9825
 30
0.0
 11
2.203749999999999
 21
-9.162499999999999
 31
0.0
  0
ARC
  5
151
330
70
100
AcDbEntity
  8
plate-20201117-040118 v19_0
100
AcDbCircle
 10
0.70375
 20
-9.162499999999999
 30
0.0
 40
0.0500000000000001
100
AcDbArc
 50
180.0
 51
270.0
  0
ARC
  5
152
330
70
100
AcDbEntity
  8
plate-20201117-040118 v19_0
100
AcDbCircle
 10
26.4425
 20
-5.3525
 30
0.0
 40
0.0499999999999998
100
AcDbArc
 50
270.0
 51
0.0
  0
ARC
  5
153
330
70
100
AcDbEntity
  8
plate-20201117-040118 v19_0
100
AcDbCircle
 10
12.61
 20
-7.2575
 30
0.0
 40
0.0500000000000007
100
AcDbArc
 50
180.0
 51
270.0
  0
ARC
  5
154
330
70
100
AcDbEntity
  8
plate-20201117-040118 v19_0
100
AcDbCircle
 10
13.1075
 20
-4.1725
 30
0.0
 40
0.0500000000000007
100
AcDbArc
 50
0.0
 51
90.0
  0
LINE
  5
155
330
70
100
AcDbEntity
  8
plate-20201117-040118 v19_0
100
AcDbLine
 10
6.845
 20
-6.0775
 30
0.0
 11
6.845
 21
-7.2575
 31
0.0
  0
ARC
  5
156
330
70
100
AcDbEntity
  8
plate-20201117-040118 v19_0
100
AcDbCircle
 10
7.8475
 20
-5.3525
 30
0.0
 40
0.0499999999999998
100
AcDbArc
 50
180.0
 51
270.0
  0
ARC
  5
157
330
70
100
AcDbEntity
  8
plate-20201117-040118 v19_0
100
AcDbCircle
 10
2.15375
 20
-7.9825
 30
0.0
 40
0.0499999999999998
100
AcDbArc
 50
0.0
 51
90.0
  0
LINE
  5
158
330
70
100
AcDbEntity
  8
plate-20201117-040118 v19_0
100
AcDbLine
 10
24.71025
 20
-7.576
 30
0.0
 11
24.87725000000001
 21
-7.576
 31
0.0
  0
LINE
  5
159
330
70
100
AcDbEntity
  8
plate-20201117-040118 v19_0
100
AcDbLine
 10
10.3
 20
-6.0775
 30
0.0
 11
10.3
 21
-7.2575
 31
0.0
  0
LINE
  5
15A
330
70
100
AcDbEntity
  8
plate-20201117-040118 v19_0
100
AcDbLine
 10
8.8
 20
-7.3075
 30
0.0
 11
10.25
 21
-7.3075
 31
0.0
  0
ARC
  5
15B
330
70
100
AcDbEntity
  8
plate-20201117-040118 v19_0
100
AcDbCircle
 10
18.325
 20
-7.2575
 30
0.0
 40
0.0500000000000007
100
AcDbArc
 50
180.0
 51
270.0
  0
LINE
  5
15C
330
70
100
AcDbEntity
  8
plate-20201117-040118 v19_0
100
AcDbLine
 10
20.23000000000001
 20
-6.0275
 30
0.0
 11
21.68000000000001
 21
-6.0275
 31
0.0
  0
ARC
  5
15D
330
70
100
AcDbEntity
  8
plate-20201117-040118 v19_0
100
AcDbCircle
 10
11.2025
 20
-4.1725
 30
0.0
 40
0.0500000000000007
100
AcDbArc
 50
0.0
 51
90.0
  0
ARC
  5
15E
330
70
100
AcDbEntity
  8
plate-20201117-040118 v19_0
100
AcDbCircle
 10
17.3725
 20
-5.3525
 30
0.0
 40
0.0500000000000007
100
AcDbArc
 50
180.0
 51
270.0
  0
LINE
  5
15F
330
70
100
AcDbEntity
  8
plate-20201117-040118 v19_0
100
AcDbLine
 10
8.8
 20
-6.027499999999999
 30
0.0
 11
10.25
 21
-6.0275
 31
0.0
  0
ARC
  5
160
330
70
100
AcDbEntity
  8
plate-20201117-040118 v19_0
100
AcDbCircle
 10
22.135
 20
-6.0775
 30
0.0
 40
0.0499999999999998
100
AcDbArc
 50
90.0
 51
180.0
  0
ARC
  5
161
330
70
100
AcDbEntity
  8
plate-20201117-040118 v19_0
100
AcDbCircle
 10
13.5625
 20
-4.1725
 30
0.0
 40
0.0499999999999998
100
AcDbArc
 50
90.0
 51
180.0
  0
LINE
  5
162
330
70
100
AcDbEntity
  8
plate-20201117-040118 v19_0
100
AcDbLine
 10
4.94
 20
-6.0775
 30
0.0
 11
4.94
 21
-7.2575
 31
0.0
  0
ARC
  5
163
330
70
100
AcDbEntity
  8
plate-20201117-040118 v19_0
100
AcDbCircle
 10
6.895
 20
-7.2575
 30
0.0
 40
0.0499999999999998
100
AcDbArc
 50
180.0
 51
270.0
  0
LINE
  5
164
330
70
100
AcDbEntity
  8
plate-20201117-040118 v19_0
100
AcDbLine
 10
17.92
 20
-6.0775
 30
0.0
 11
17.92
 21
-7.2575
 31
0.0
  0
LINE
  5
165
330
70
100
AcDbEntity
  8
plate-20201117-040118 v19_0
100
AcDbLine
 10
10.705
 20
-6.0275
 30
0.0
 11
12.155
 21
-6.0275
 31
0.0
  0
ARC
  5
166
330
70
100
AcDbEntity
  8
plate-20201117-040118 v19_0
100
AcDbCircle
 10
27.67725
 20
-7.105
 30
0.0
 40
0.0500000000000007
100
AcDbArc
 50
0.0
 51
90.0
  0
LINE
  5
167
330
70
100
AcDbEntity
  8
plate-20201117-040118 v19_0
100
AcDbLine
 10
12.61
 20
-7.3075
 30
0.0
 11
14.06
 21
-7.3075
 31
0.0
  0
LINE
  5
168
330
70
100
AcDbEntity
  8
plate-20201117-040118 v19_0
100
AcDbLine
 10
23.0875
 20
-4.1225
 30
0.0
 11
24.5375
 21
-4.1225
 31
0.0
  0
ARC
  5
169
330
70
100
AcDbEntity
  8
plate-20201117-040118 v19_0
100
AcDbCircle
 10
22.6325
 20
-5.3525
 30
0.0
 40
0.0499999999999998
100
AcDbArc
 50
270.0
 51
0.0
  0
ARC
  5
16A
330
70
100
AcDbEntity
  8
plate-20201117-040118 v19_0
100
AcDbCircle
 10
26.91875
 20
-7.2575
 30
0.0
 40
0.0499999999999998
100
AcDbArc
 50
270.0
 51
0.0
  0
LINE
  5
16B
330
70
100
AcDbEntity
  8
plate-20201117-040118 v19_0
100
AcDbLine
 10
27.51025
 20
-7.055
 30
0.0
 11
27.67725
 21
-7.055
 31
0.0
  0
ARC
  5
16C
330
70
100
AcDbEntity
  8
plate-20201117-040118 v19_0
100
AcDbCircle
 10
12.155
 20
-7.2575
 30
0.0
 40
0.0499999999999998
100
AcDbArc
 50
270.0
 51
0.0
  0
ARC
  5
16D
330
70
100
AcDbEntity
  8
plate-20201117-040118 v19_0
100
AcDbCircle
 10
11.2025
 20
-5.3525
 30
0.0
 40
0.0499999999999998
100
AcDbArc
 50
270.0
 51
0.0
  0
LINE
  5
16E
330
70
100
AcDbEntity
  8
plate-20201117-040118 v19_0
100
AcDbLine
 10
4.99
 20
-6.027499999999999
 30
0.0
 11
6.440000000000001
 21
-6.027499999999999
 31
0.0
  0
ARC
  5
16F
330
70
100
AcDbEntity
  8
plate-20201117-040118 v19_0
100
AcDbCircle
 10
0.70375
 20
-7.2575
 30
0.0
 40
0.0500000000000001
100
AcDbArc
 50
180.0
 51
270.0
  0
ARC
  5
170
330
70
100
AcDbEntity
  8
plate-20201117-040118 v19_0
100
AcDbCircle
 10
23.0875
 20
-5.3525
 30
0.0
 40
0.0500000000000007
100
AcDbArc
 50
180.0
 51
270.0
  0
ARC
  5
171
330
70
100
AcDbEntity
  8
plate-20201117-040118 v19_0
100
AcDbCircle
 10
5.942499999999999
 20
-5.3525
 30
0.0
 40
0.0499999999999998
100
AcDbArc
 50
180.0
 51
270.0
  0
LINE
  5
172
330
70
100
AcDbEntity
  8
plate-20201117-040118 v19_0
100
AcDbLine
 10
26.4925
 20
-4.1725
 30
0.0
 11
26.4925
 21
-5.3525
 31
0.0
  0
ARC
  5
173
330
70
100
AcDbEntity
  8
plate-20201117-040118 v19_0
100
AcDbCircle
 10
9.752500000000001
 20
-4.1725
 30
0.0
 40
0.0499999999999998
100
AcDbArc
 50
90.0
 51
180.0
  0
LINE
  5
174
330
70
100
AcDbEntity
  8
plate-20201117-040118 v19_0
100
AcDbLine
 10
0.70375
 20
-6.0275
 30
0.0
 11
2.15375
 21
-6.0275
 31
0.0
  0
ARC
  5
175
330
70
100
AcDbEntity
  8
plate-20201117-040118 v19_0
100
AcDbCircle
 10
4.535
 20
-6.0775
 30
0.0
 40
0.0499999999999998
100
AcDbArc
 50
0.0
 51
90.0
  0
LINE
  5
176
330
70
100
AcDbEntity
  8
plate-20201117-040118 v19_0
100
AcDbLine
 10
24.9925
 20
-4.1225
 30
0.0
 11
26.4425
 21
-4.1225
 31
0.0
  0
LINE
  5
177
330
70
100
AcDbEntity
  8
plate-20201117-040118 v19_0
100
AcDbLine
 10
23.0375
 20
-4.1725
 30
0.0
 11
23.0375
 21
-5.3525
 31
0.0
  0
ARC
  5
178
330
70
100
AcDbEntity
  8
plate-20201117-040118 v19_0
100
AcDbCircle
 10
15.4675
 20
-4.1725
 30
0.0
 40
0.0499999999999998
100
AcDbArc
 50
90.0
 51
180.0
  0
LINE
  5
179
330
70
100
AcDbEntity
  8
plate-20201117-040118 v19_0
100
AcDbLine
 10
9.7025
 20
-4.1725
 30
0.0
 11
9.7025
 21
-5.3525
 31
0.0
  0
ARC
  5
17A
330
70
100
AcDbEntity
  8
plate-20201117-040118 v19_0
100
AcDbCircle
 10
4.99
 20
-7.2575
 30
0.0
 40
0.0499999999999998
100
AcDbArc
 50
180.0
 51
270.0
  0
ARC
  5
17B
330
70
100
AcDbEntity
  8
plate-20201117-040118 v19_0
100
AcDbCircle
 10
21.1825
 20
-5.3525
 30
0.0
 40
0.0500000000000007
100
AcDbArc
 50
180.0
 51
270.0
  0
ARC
  5
17C
330
70
100
AcDbEntity
  8
plate-20201117-040118 v19_0
100
AcDbCircle
 10
15.4675
 20
-5.3525
 30
0.0
 40
0.0500000000000007
100
AcDbArc
 50
180.0
 51
270.0
  0
LINE
  5
17D
330
70
100
AcDbEntity
  8
plate-20201117-040118 v19_0
100
AcDbLine
 10
6.895
 20
-7.3075
 30
0.0
 11
8.345
 21
-7.3075
 31
0.0
  0
ARC
  5
17E
330
70
100
AcDbEntity
  8
plate-20201117-040118 v19_0
100
AcDbCircle
 10
24.9925
 20
-5.3525
 30
0.0
 40
0.0500000000000007
100
AcDbArc
 50
180.0
 51
270.0
  0
ARC
  5
17F
330
70
100
AcDbEntity
  8
plate-20201117-040118 v19_0
100
AcDbCircle
 10
4.99
 20
-6.0775
 30
0.0
 40
0.0499999999999998
100
AcDbArc
 50
90.0
 51
180.0
  0
ARC
  5
180
330
70
100
AcDbEntity
  8
plate-20201117-040118 v19_0
100
AcDbCircle
 10
6.440000000000001
 20
-7.2575
 30
0.0
 40
0.0499999999999998
100
AcDbArc
 50
270.0
 51
0.0
  0
ARC
  5
181
330
70
100
AcDbEntity
  8
plate-20201117-040118 v19_0
100
AcDbCircle
 10
4.535
 20
-7.2575
 30
0.0
 40
0.0499999999999998
100
AcDbArc
 50
270.0
 51
0.0
  0
LINE
  5
182
330
70
100
AcDbEntity
  8
plate-20201117-040118 v19_0
100
AcDbLine
 10
2.20375
 20
-6.0775
 30
0.0
 11
2.20375
 21
-7.2575
 31
0.0
  0
ARC
  5
183
330
70
100
AcDbEntity
  8
plate-20201117-040118 v19_0
100
AcDbCircle
 10
24.9925
 20
-4.1725
 30
0.0
 40
0.0499999999999998
100
AcDbArc
 50
90.0
 51
180.0
  0
ARC
  5
184
330
70
100
AcDbEntity
  8
plate-20201117-040118 v19_0
100
AcDbCircle
 10
21.1825
 20
-4.1725
 30
0.0
 40
0.0499999999999998
100
AcDbArc
 50
90.0
 51
180.0
  0
ARC
  5
185
330
70
100
AcDbEntity
  8
plate-20201117-040118 v19_0
100
AcDbCircle
 10
13.1075
 20
-5.3525
 30
0.0
 40
0.0499999999999998
100
AcDbArc
 50
270.0
 51
0.0
  0
LINE
  5
186
330
70
100
AcDbEntity
  8
plate-20201117-040118 v19_0
100
AcDbLine
 10
3.085
 20
-6.0275
 30
0.0
 11
4.535
 21
-6.027499999999999
 31
0.0
  0
ARC
  5
187
330
70
100
AcDbEntity
  8
plate-20201117-040118 v19_0
100
AcDbCircle
 10
24.5375
 20
-5.3525
 30
0.0
 40
0.0499999999999998
100
AcDbArc
 50
270.0
 51
0.0
  0
LINE
  5
188
330
70
100
AcDbEntity
  8
plate-20201117-040118 v19_0
100
AcDbLine
 10
18.8725
 20
-4.1725
 30
0.0
 11
18.8725
 21
-5.3525
 31
0.0
  0
LINE
  5
189
330
70
100
AcDbEntity
  8
plate-20201117-040118 v19_0
100
AcDbLine
 10
4.584999999999999
 20
-6.0775
 30
0.0
 11
4.584999999999999
 21
-7.2575
 31
0.0
  0
LINE
  5
18A
330
70
100
AcDbEntity
  8
plate-20201117-040118 v19_0
100
AcDbLine
 10
0.65375
 20
-6.0775
 30
0.0
 11
0.65375
 21
-7.2575
 31
0.0
  0
LINE
  5
18B
330
70
100
AcDbEntity
  8
plate-20201117-040118 v19_0
100
AcDbLine
 10
17.3225
 20
-4.1725
 30
0.0
 11
17.3225
 21
-5.3525
 31
0.0
  0
ARC
  5
18C
330
70
100
AcDbEntity
  8
plate-20201117-040118 v19_0
100
AcDbCircle
 10
6.440000000000001
 20
-6.0775
 30
0.0
 40
0.0499999999999998
100
AcDbArc
 50
0.0
 51
90.0
  0
ARC
  5
18D
330
70
100
AcDbEntity
  8
plate-20201117-040118 v19_0
100
AcDbCircle
 10
0.70375
 20
-6.0775
 30
0.0
 40
0.0499999999999998
100
AcDbArc
 50
90.0
 51
180.0
  0
LINE
  5
18E
330
70
100
AcDbEntity
  8
plate-20201117-040118 v19_0
100
AcDbLine
 10
19.2275
 20
-4.1725
 30
0.0
 11
19.2275
 21
-5.3525
 31
0.0
  0
LINE
  5
18F
330
70
100
AcDbEntity
  8
plate-20201117-040118 v19_0
100
AcDbLine
 10
22.6825
 20
-4.1725
 30
0.0
 11
22.6825
 21
-5.3525
 31
0.0
  0
ARC
  5
190
330
70
100
AcDbEntity
  8
plate-20201117-040118 v19_0
100
AcDbCircle
 10
2.15375
 20
-7.2575
 30
0.0
 40
0.0499999999999998
100
AcDbArc
 50
270.0
 51
0.0
  0
LINE
  5
191
330
70
100
AcDbEntity
  8
plate-20201117-040118 v19_0
100
AcDbLine
 10
21.1325
 20
-4.1725
 30
0.0
 11
21.1325
 21
-5.3525
 31
0.0
  0
LINE
  5
192
330
70
100
AcDbEntity
  8
plate-20201117-040118 v19_0
100
AcDbLine
 10
9.3475
 20
-4.1725
 30
0.0
 11
9.3475
 21
-5.3525
 31
0.0
  0
ARC
  5
193
330
70
100
AcDbEntity
  8
plate-20201117-040118 v19_0
100
AcDbCircle
 10
6.895
 20
-6.0775
 30
0.0
 40
0.0499999999999998
100
AcDbArc
 50
90.0
 51
180.0
  0
ARC
  5
194
330
70
100
AcDbEntity
  8
plate-20201117-040118 v19_0
100
AcDbCircle
 10
5.942499999999999
 20
-4.1725
 30
0.0
 40
0.0499999999999998
100
AcDbArc
 50
90.0
 51
180.0
  0
LINE
  5
195
330
70
100
AcDbEntity
  8
plate-20201117-040118 v19_0
100
AcDbLine
 10
5.8925
 20
-4.1725
 30
0.0
 11
5.8925
 21
-5.3525
 31
0.0
  0
LINE
  5
196
330
70
100
AcDbEntity
  8
plate-20201117-040118 v19_0
100
AcDbLine
 10
11.6075
 20
-4.1725
 30
0.0
 11
11.6075
 21
-5.3525
 31
0.0
  0
LINE
  5
197
330
70
100
AcDbEntity
  8
plate-20201117-040118 v19_0
100
AcDbLine
 10
17.3725
 20
-4.1225
 30
0.0
 11
18.8225
 21
-4.1225
 31
0.0
  0
LINE
  5
198
330
70
100
AcDbEntity
  8
plate-20201117-040118 v19_0
100
AcDbLine
 10
7.797499999999999
 20
-4.1725
 30
0.0
 11
7.7975
 21
-5.3525
 31
0.0
  0
ARC
  5
199
330
70
100
AcDbEntity
  8
plate-20201117-040118 v19_0
100
AcDbCircle
 10
2.15375
 20
-6.0775
 30
0.0
 40
0.0499999999999998
100
AcDbArc
 50
0.0
 51
90.0
  0
LINE
  5
19A
330
70
100
AcDbEntity
  8
plate-20201117-040118 v19_0
100
AcDbLine
 10
4.99
 20
-7.3075
 30
0.0
 11
6.440000000000001
 21
-7.3075
 31
0.0
  0
LINE
  5
19B
330
70
100
AcDbEntity
  8
plate-20201117-040118 v19_0
100
AcDbLine
 10
6.490000000000001
 20
-6.0775
 30
0.0
 11
6.490000000000001
 21
-7.2575
 31
0.0
  0
ARC
  5
19C
330
70
100
AcDbEntity
  8
plate-20201117-040118 v19_0
100
AcDbCircle
 10
11.6575
 20
-4.1725
 30
0.0
 40
0.0499999999999998
100
AcDbArc
 50
90.0
 51
180.0
  0
ARC
  5
19D
330
70
100
AcDbEntity
  8
plate-20201117-040118 v19_0
100
AcDbCircle
 10
13.5625
 20
-5.3525
 30
0.0
 40
0.0500000000000007
100
AcDbArc
 50
180.0
 51
270.0
  0
LINE
  5
19E
330
70
100
AcDbEntity
  8
plate-20201117-040118 v19_0
100
AcDbLine
 10
17.3725
 20
-5.402499999999999
 30
0.0
 11
18.8225
 21
-5.402499999999999
 31
0.0
  0
LINE
  5
19F
330
70
100
AcDbEntity
  8
plate-20201117-040118 v19_0
100
AcDbLine
 10
23.0875
 20
-5.402499999999999
 30
0.0
 11
24.5375
 21
-5.402499999999999
 31
0.0
  0
LINE
  5
1A0
330
70
100
AcDbEntity
  8
plate-20201117-040118 v19_0
100
AcDbLine
 10
3.085
 20
-7.3075
 30
0.0
 11
4.535
 21
-7.3075
 31
0.0
  0
ARC
  5
1A1
330
70
100
AcDbEntity
  8
plate-20201117-040118 v19_0
100
AcDbCircle
 10
19.2775
 20
-4.1725
 30
0.0
 40
0.0499999999999998
100
AcDbArc
 50
90.0
 51
180.0
  0
ARC
  5
1A2
330
70
100
AcDbEntity
  8
plate-20201117-040118 v19_0
100
AcDbCircle
 10
16.9175
 20
-5.3525
 30
0.0
 40
0.0499999999999998
100
AcDbArc
 50
270.0
 51
0.0
  0
ARC
  5
1A3
330
70
100
AcDbEntity
  8
plate-20201117-040118 v19_0
100
AcDbCircle
 10
16.9175
 20
-4.1725
 30
0.0
 40
0.0500000000000007
100
AcDbArc
 50
0.0
 51
90.0
  0
LINE
  5
1A4
330
70
100
AcDbEntity
  8
plate-20201117-040118 v19_0
100
AcDbLine
 10
7.442499999999999
 20
-4.1725
 30
0.0
 11
7.442499999999999
 21
-5.3525
 31
0.0
  0
ARC
  5
1A5
330
70
100
AcDbEntity
  8
plate-20201117-040118 v19_0
100
AcDbCircle
 10
15.0125
 20
-4.1725
 30
0.0
 40
0.0500000000000007
100
AcDbArc
 50
0.0
 51
90.0
  0
LINE
  5
1A6
330
70
100
AcDbEntity
  8
plate-20201117-040118 v19_0
100
AcDbLine
 10
24.9925
 20
-5.402499999999999
 30
0.0
 11
26.4425
 21
-5.402499999999999
 31
0.0
  0
LINE
  5
1A7
330
70
100
AcDbEntity
  8
plate-20201117-040118 v19_0
100
AcDbLine
 10
13.1575
 20
-4.1725
 30
0.0
 11
13.1575
 21
-5.3525
 31
0.0
  0
LINE
  5
1A8
330
70
100
AcDbEntity
  8
plate-20201117-040118 v19_0
100
AcDbLine
 10
13.5625
 20
-4.1225
 30
0.0
 11
15.0125
 21
-4.1225
 31
0.0
  0
LINE
  5
1A9
330
70
100
AcDbEntity
  8
plate-20201117-040118 v19_0
100
AcDbLine
 10
6.895
 20
-6.0275
 30
0.0
 11
8.345
 21
-6.0275
 31
0.0
  0
LINE
  5
1AA
330
70
100
AcDbEntity
  8
plate-20201117-040118 v19_0
100
AcDbLine
 10
9.752500000000001
 20
-4.1225
 30
0.0
 11
11.2025
 21
-4.1225
 31
0.0
  0
ARC
  5
1AB
330
70
100
AcDbEntity
  8
plate-20201117-040118 v19_0
100
AcDbCircle
 10
24.5375
 20
-4.1725
 30
0.0
 40
0.0500000000000007
100
AcDbArc
 50
0.0
 51
90.0
  0
LINE
  5
1AC
330
70
100
AcDbEntity
  8
plate-20201117-040118 v19_0
100
AcDbLine
 10
11.6575
 20
-4.1225
 30
0.0
 11
13.1075
 21
-4.1225
 31
0.0
  0
LINE
  5
1AD
330
70
100
AcDbEntity
  8
plate-20201117-040118 v19_0
100
AcDbLine
 10
15.4675
 20
-5.402499999999999
 30
0.0
 11
16.9175
 21
-5.402499999999999
 31
0.0
  0
LINE
  5
1AE
330
70
100
AcDbEntity
  8
plate-20201117-040118 v19_0
100
AcDbLine
 10
19.2775
 20
-4.1225
 30
0.0
 11
20.7275
 21
-4.1225
 31
0.0
  0
LINE
  5
1AF
330
70
100
AcDbEntity
  8
plate-20201117-040118 v19_0
100
AcDbLine
 10
3.035
 20
-6.0775
 30
0.0
 11
3.035
 21
-7.2575
 31
0.0
  0
ARC
  5
1B0
330
70
100
AcDbEntity
  8
plate-20201117-040118 v19_0
100
AcDbCircle
 10
9.752500000000001
 20
-5.3525
 30
0.0
 40
0.0500000000000007
100
AcDbArc
 50
180.0
 51
270.0
  0
LINE
  5
1B1
330
70
100
AcDbEntity
  8
plate-20201117-040118 v19_0
100
AcDbLine
 10
15.4675
 20
-4.1225
 30
0.0
 11
16.9175
 21
-4.1225
 31
0.0
  0
ARC
  5
1B2
330
70
100
AcDbEntity
  8
plate-20201117-040118 v19_0
100
AcDbCircle
 10
9.297499999999999
 20
-4.1725
 30
0.0
 40
0.0500000000000007
100
AcDbArc
 50
0.0
 51
90.0
  0
LINE
  5
1B3
330
70
100
AcDbEntity
  8
plate-20201117-040118 v19_0
100
AcDbLine
 10
24.5875
 20
-4.1725
 30
0.0
 11
24.5875
 21
-5.3525
 31
0.0
  0
ARC
  5
1B4
330
70
100
AcDbEntity
  8
plate-20201117-040118 v19_0
100
AcDbCircle
 10
7.8475
 20
-4.1725
 30
0.0
 40
0.0499999999999998
100
AcDbArc
 50
90.0
 51
180.0
  0
ARC
  5
1B5
330
70
100
AcDbEntity
  8
plate-20201117-040118 v19_0
100
AcDbCircle
 10
22.6325
 20
-4.1725
 30
0.0
 40
0.0500000000000007
100
AcDbArc
 50
0.0
 51
90.0
  0
LINE
  5
1B6
330
70
100
AcDbEntity
  8
plate-20201117-040118 v19_0
100
AcDbLine
 10
23.51375
 20
-0.3625
 30
0.0
 11
23.51375
 21
-1.5425
 31
0.0
  0
LINE
  5
1B7
330
70
100
AcDbEntity
  8
plate-20201117-040118 v19_0
100
AcDbLine
 10
23.56375
 20
-0.3125
 30
0.0
 11
25.01375
 21
-0.3125
 31
0.0
  0
LINE
  5
1B8
330
70
100
AcDbEntity
  8
plate-20201117-040118 v19_0
100
AcDbLine
 10
5.8925
 20
-7.9825
 30
0.0
 11
5.8925
 21
-9.162499999999999
 31
0.0
  0
ARC
  5
1B9
330
70
100
AcDbEntity
  8
plate-20201117-040118 v19_0
100
AcDbCircle
 10
21.65875
 20
-0.3625
 30
0.0
 40
0.05
100
AcDbArc
 50
90.0
 51
180.0
  0
LINE
  5
1BA
330
70
100
AcDbEntity
  8
plate-20201117-040118 v19_0
100
AcDbLine
 10
23.56375
 20
-1.5925
 30
0.0
 11
25.01375
 21
-1.5925
 31
0.0
  0
LINE
  5
1BB
330
70
100
AcDbEntity
  8
plate-20201117-040118 v19_0
100
AcDbLine
 10
13.5625
 20
-5.402499999999999
 30
0.0
 11
15.0125
 21
-5.402499999999999
 31
0.0
  0
ARC
  5
1BC
330
70
100
AcDbEntity
  8
plate-20201117-040118 v19_0
100
AcDbCircle
 10
15.0125
 20
-5.3525
 30
0.0
 40
0.0499999999999998
100
AcDbArc
 50
270.0
 51
0.0
  0
ARC
  5
1BD
330
70
100
AcDbEntity
  8
plate-20201117-040118 v19_0
100
AcDbCircle
 10
25.01375
 20
-0.3625
 30
0.0
 40
0.0500000000000007
100
AcDbArc
 50
0.0
 51
90.0
  0
LINE
  5
1BE
330
70
100
AcDbEntity
  8
plate-20201117-040118 v19_0
100
AcDbLine
 10
25.06375
 20
-0.3625
 30
0.0
 11
25.06375
 21
-1.5425
 31
0.0
  0
ARC
  5
1BF
330
70
100
AcDbEntity
  8
plate-20201117-040118 v19_0
100
AcDbCircle
 10
17.39375
 20
-0.3625
 30
0.0
 40
0.0500000000000007
100
AcDbArc
 50
0.0
 51
90.0
  0
ARC
  5
1C0
330
70
100
AcDbEntity
  8
plate-20201117-040118 v19_0
100
AcDbCircle
 10
8.8
 20
-6.0775
 30
0.0
 40
0.0499999999999998
100
AcDbArc
 50
90.0
 51
180.0
  0
LINE
  5
1C1
330
70
100
AcDbEntity
  8
plate-20201117-040118 v19_0
100
AcDbLine
 10
8.395000000000001
 20
-6.0775
 30
0.0
 11
8.395000000000001
 21
-7.2575
 31
0.0
  0
LINE
  5
1C2
330
70
100
AcDbEntity
  8
plate-20201117-040118 v19_0
100
AcDbLine
 10
5.942499999999999
 20
-5.402499999999999
 30
0.0
 11
7.3925
 21
-5.402499999999999
 31
0.0
  0
ARC
  5
1C3
330
70
100
AcDbEntity
  8
plate-20201117-040118 v19_0
100
AcDbCircle
 10
20.7275
 20
-5.3525
 30
0.0
 40
0.0499999999999998
100
AcDbArc
 50
270.0
 51
0.0
  0
LINE
  5
1C4
330
70
100
AcDbEntity
  8
plate-20201117-040118 v19_0
100
AcDbLine
 10
19.2775
 20
-5.402499999999999
 30
0.0
 11
20.7275
 21
-5.402499999999999
 31
0.0
  0
LINE
  5
1C5
330
70
100
AcDbEntity
  8
plate-20201117-040118 v19_0
100
AcDbLine
 10
4.823125
 20
-7.9825
 30
0.0
 11
4.823125
 21
-9.162499999999999
 31
0.0
  0
ARC
  5
1C6
330
70
100
AcDbEntity
  8
plate-20201117-040118 v19_0
100
AcDbCircle
 10
4.773125
 20
-7.9825
 30
0.0
 40
0.0499999999999998
100
AcDbArc
 50
0.0
 51
90.0
  0
ARC
  5
1C7
330
70
100
AcDbEntity
  8
plate-20201117-040118 v19_0
100
AcDbCircle
 10
23.10875
 20
-0.3625
 30
0.0
 40
0.0500000000000007
100
AcDbArc
 50
0.0
 51
90.0
  0
ARC
  5
1C8
330
70
100
AcDbEntity
  8
plate-20201117-040118 v19_0
100
AcDbCircle
 10
23.10875
 20
-1.5425
 30
0.0
 40
0.0500000000000001
100
AcDbArc
 50
270.0
 51
0.0
  0
LINE
  5
1C9
330
70
100
AcDbEntity
  8
plate-20201117-040118 v19_0
100
AcDbLine
 10
26.183125
 20
-0.3125
 30
0.0
 11
27.633125
 21
-0.3125
 31
0.0
  0
LINE
  5
1CA
330
70
100
AcDbEntity
  8
plate-20201117-040118 v19_0
100
AcDbLine
 10
21.65875
 20
-1.5925
 30
0.0
 11
23.10875
 21
-1.5925
 31
0.0
  0
LINE
  5
1CB
330
70
100
AcDbEntity
  8
plate-20201117-040118 v19_0
100
AcDbLine
 10
5.942499999999999
 20
-7.9325
 30
0.0
 11
7.3925
 21
-7.9325
 31
0.0
  0
ARC
  5
1CC
330
70
100
AcDbEntity
  8
plate-20201117-040118 v19_0
100
AcDbCircle
 10
3.323125
 20
-9.162499999999999
 30
0.0
 40
0.0499999999999998
100
AcDbArc
 50
180.0
 51
270.0
  0
ARC
  5
1CD
330
70
100
AcDbEntity
  8
plate-20201117-040118 v19_0
100
AcDbCircle
 10
4.773125
 20
-9.162499999999999
 30
0.0
 40
0.0500000000000007
100
AcDbArc
 50
270.0
 51
0.0
  0
LINE
  5
1CE
330
70
100
AcDbEntity
  8
plate-20201117-040118 v19_0
100
AcDbLine
 10
5.942499999999999
 20
-9.2125
 30
0.0
 11
7.3925
 21
-9.2125
 31
0.0
  0
ARC
  5
1CF
330
70
100
AcDbEntity
  8
plate-20201117-040118 v19_0
100
AcDbCircle
 10
23.0875
 20
-4.1725
 30
0.0
 40
0.0499999999999998
100
AcDbArc
 50
90.0
 51
180.0
  0
LINE
  5
1D0
330
70
100
AcDbEntity
  8
plate-20201117-040118 v19_0
100
AcDbLine
 10
3.273125
 20
-7.9825
 30
0.0
 11
3.273125
 21
-9.162499999999999
 31
0.0
  0
LINE
  5
1D1
330
70
100
AcDbEntity
  8
plate-20201117-040118 v19_0
100
AcDbLine
 10
3.323125
 20
-9.2125
 30
0.0
 11
4.773125
 21
-9.2125
 31
0.0
  0
LINE
  5
1D2
330
70
100
AcDbEntity
  8
plate-20201117-040118 v19_0
100
AcDbLine
 10
26.183125
 20
-1.5925
 30
0.0
 11
27.633125
 21
-1.5925
 31
0.0
  0
ARC
  5
1D3
330
70
100
AcDbEntity
  8
plate-20201117-040118 v19_0
100
AcDbCircle
 10
19.75375
 20
-1.5425
 30
0.0
 40
0.0500000000000007
100
AcDbArc
 50
180.0
 51
270.0
  0
ARC
  5
1D4
330
70
100
AcDbEntity
  8
plate-20201117-040118 v19_0
100
AcDbCircle
 10
21.20375
 20
-1.5425
 30
0.0
 40
0.0500000000000001
100
AcDbArc
 50
270.0
 51
0.0
  0
ARC
  5
1D5
330
70
100
AcDbEntity
  8
plate-20201117-040118 v19_0
100
AcDbCircle
 10
9.297499999999999
 20
-5.3525
 30
0.0
 40
0.0499999999999998
100
AcDbArc
 50
270.0
 51
0.0
  0
ARC
  5
1D6
330
70
100
AcDbEntity
  8
plate-20201117-040118 v19_0
100
AcDbCircle
 10
7.3925
 20
-5.3525
 30
0.0
 40
0.0499999999999998
100
AcDbArc
 50
270.0
 51
0.0
  0
ARC
  5
1D7
330
70
100
AcDbEntity
  8
plate-20201117-040118 v19_0
100
AcDbCircle
 10
20.7275
 20
-4.1725
 30
0.0
 40
0.0500000000000007
100
AcDbArc
 50
0.0
 51
90.0
  0
LINE
  5
1D8
330
70
100
AcDbEntity
  8
plate-20201117-040118 v19_0
100
AcDbLine
 10
23.15875
 20
-0.3625
 30
0.0
 11
23.15875
 21
-1.5425
 31
0.0
  0
LINE
  5
1D9
330
70
100
AcDbEntity
  8
plate-20201117-040118 v19_0
100
AcDbLine
 10
21.65875
 20
-0.3125
 30
0.0
 11
23.10875
 21
-0.3125
 31
0.0
  0
LINE
  5
1DA
330
70
100
AcDbEntity
  8
plate-20201117-040118 v19_0
100
AcDbLine
 10
16.9675
 20
-4.1725
 30
0.0
 11
16.9675
 21
-5.3525
 31
0.0
  0
ARC
  5
1DB
330
70
100
AcDbEntity
  8
plate-20201117-040118 v19_0
100
AcDbCircle
 10
23.56375
 20
-0.3625
 30
0.0
 40
0.05
100
AcDbArc
 50
90.0
 51
180.0
  0
LINE
  5
1DC
330
70
100
AcDbEntity
  8
plate-20201117-040118 v19_0
100
AcDbLine
 10
21.60875
 20
-0.3625
 30
0.0
 11
21.60875
 21
-1.5425
 31
0.0
  0
ARC
  5
1DD
330
70
100
AcDbEntity
  8
plate-20201117-040118 v19_0
100
AcDbCircle
 10
17.39375
 20
-1.5425
 30
0.0
 40
0.0500000000000001
100
AcDbArc
 50
270.0
 51
0.0
  0
LINE
  5
1DE
330
70
100
AcDbEntity
  8
plate-20201117-040118 v19_0
100
AcDbLine
 10
17.84875
 20
-0.3125
 30
0.0
 11
19.29875
 21
-0.3125
 31
0.0
  0
ARC
  5
1DF
330
70
100
AcDbEntity
  8
plate-20201117-040118 v19_0
100
AcDbCircle
 10
19.29875
 20
-0.3625
 30
0.0
 40
0.0500000000000007
100
AcDbArc
 50
0.0
 51
90.0
  0
LINE
  5
1E0
330
70
100
AcDbEntity
  8
plate-20201117-040118 v19_0
100
AcDbLine
 10
17.79875
 20
-0.3625
 30
0.0
 11
17.79875
 21
-1.5425
 31
0.0
  0
ARC
  5
1E1
330
70
100
AcDbEntity
  8
plate-20201117-040118 v19_0
100
AcDbCircle
 10
18.8225
 20
-4.1725
 30
0.0
 40
0.0500000000000007
100
AcDbArc
 50
0.0
 51
90.0
  0
ARC
  5
1E2
330
70
100
AcDbEntity
  8
plate-20201117-040118 v19_0
100
AcDbCircle
 10
23.56375
 20
-1.5425
 30
0.0
 40
0.0500000000000007
100
AcDbArc
 50
180.0
 51
270.0
  0
LINE
  5
1E3
330
70
100
AcDbEntity
  8
plate-20201117-040118 v19_0
100
AcDbLine
 10
7.8475
 20
-4.1225
 30
0.0
 11
9.297499999999999
 21
-4.1225
 31
0.0
  0
ARC
  5
1E4
330
70
100
AcDbEntity
  8
plate-20201117-040118 v19_0
100
AcDbCircle
 10
25.01375
 20
-1.5425
 30
0.0
 40
0.0500000000000001
100
AcDbArc
 50
270.0
 51
0.0
  0
LINE
  5
1E5
330
70
100
AcDbEntity
  8
plate-20201117-040118 v19_0
100
AcDbLine
 10
19.34875
 20
-0.3625
 30
0.0
 11
19.34875
 21
-1.5425
 31
0.0
  0
ARC
  5
1E6
330
70
100
AcDbEntity
  8
plate-20201117-040118 v19_0
100
AcDbCircle
 10
17.3725
 20
-4.1725
 30
0.0
 40
0.0499999999999998
100
AcDbArc
 50
90.0
 51
180.0
  0
ARC
  5
1E7
330
70
100
AcDbEntity
  8
plate-20201117-040118 v19_0
100
AcDbCircle
 10
15.94375
 20
-1.5425
 30
0.0
 40
0.0500000000000007
100
AcDbArc
 50
180.0
 51
270.0
  0
ARC
  5
1E8
330
70
100
AcDbEntity
  8
plate-20201117-040118 v19_0
100
AcDbCircle
 10
17.84875
 20
-0.3625
 30
0.0
 40
0.05
100
AcDbArc
 50
90.0
 51
180.0
  0
LINE
  5
1E9
330
70
100
AcDbEntity
  8
plate-20201117-040118 v19_0
100
AcDbLine
 10
15.0625
 20
-4.1725
 30
0.0
 11
15.0625
 21
-5.3525
 31
0.0
  0
ARC
  5
1EA
330
70
100
AcDbEntity
  8
plate-20201117-040118 v19_0
100
AcDbCircle
 10
18.8225
 20
-5.3525
 30
0.0
 40
0.0499999999999998
100
AcDbArc
 50
270.0
 51
0.0
  0
ARC
  5
1EB
330
70
100
AcDbEntity
  8
plate-20201117-040118 v19_0
100
AcDbCircle
 10
8.345
 20
-7.2575
 30
0.0
 40
0.0499999999999998
100
AcDbArc
 50
270.0
 51
0.0
  0
ARC
  5
1EC
330
70
100
AcDbEntity
  8
plate-20201117-040118 v19_0
100
AcDbCircle
 10
19.2775
 20
-5.3525
 30
0.0
 40
0.0500000000000007
100
AcDbArc
 50
180.0
 51
270.0
  0
LINE
  5
1ED
330
70
100
AcDbEntity
  8
plate-20201117-040118 v19_0
100
AcDbLine
 10
20.7775
 20
-4.1725
 30
0.0
 11
20.7775
 21
-5.3525
 31
0.0
  0
LINE
  5
1EE
330
70
100
AcDbEntity
  8
plate-20201117-040118 v19_0
100
AcDbLine
 10
24.9425
 20
-4.1725
 30
0.0
 11
24.9425
 21
-5.3525
 31
0.0
  0
LINE
  5
1EF
330
70
100
AcDbEntity
  8
plate-20201117-040118 v19_0
100
AcDbLine
 10
8.75
 20
-6.0775
 30
0.0
 11
8.75
 21
-7.2575
 31
0.0
  0
ARC
  5
1F0
330
70
100
AcDbEntity
  8
plate-20201117-040118 v19_0
100
AcDbCircle
 10
3.323125
 20
-7.9825
 30
0.0
 40
0.0499999999999998
100
AcDbArc
 50
90.0
 51
180.0
  0
ARC
  5
1F1
330
70
100
AcDbEntity
  8
plate-20201117-040118 v19_0
100
AcDbCircle
 10
21.65875
 20
-1.5425
 30
0.0
 40
0.0500000000000007
100
AcDbArc
 50
180.0
 51
270.0
  0
LINE
  5
1F2
330
70
100
AcDbEntity
  8
plate-20201117-040118 v19_0
100
AcDbLine
 10
7.8475
 20
-5.402499999999999
 30
0.0
 11
9.297499999999999
 21
-5.402499999999999
 31
0.0
  0
ARC
  5
1F3
330
70
100
AcDbEntity
  8
plate-20201117-040118 v19_0
100
AcDbCircle
 10
26.4425
 20
-4.1725
 30
0.0
 40
0.0500000000000007
100
AcDbArc
 50
0.0
 51
90.0
  0
ARC
  5
1F4
330
70
100
AcDbEntity
  8
plate-20201117-040118 v19_0
100
AcDbCircle
 10
22.61125
 20
-3.4475
 30
0.0
 40
0.0500000000000007
100
AcDbArc
 50
180.0
 51
270.0
  0
ARC
  5
1F5
330
70
100
AcDbEntity
  8
plate-20201117-040118 v19_0
100
AcDbCircle
 10
1.18
 20
-4.1725
 30
0.0
 40
0.0499999999999998
100
AcDbArc
 50
90.0
 51
180.0
  0
ARC
  5
1F6
330
70
100
AcDbEntity
  8
plate-20201117-040118 v19_0
100
AcDbCircle
 10
28.062
 20
-5.1265
 30
0.0
 40
0.0499999999999998
100
AcDbArc
 50
90.0
 51
180.0
  0
LINE
  5
1F7
330
70
100
AcDbEntity
  8
plate-20201117-040118 v19_0
100
AcDbLine
 10
22.56125
 20
-2.2675
 30
0.0
 11
22.56125
 21
-3.4475
 31
0.0
  0
LINE
  5
1F8
330
70
100
AcDbEntity
  8
plate-20201117-040118 v19_0
100
AcDbLine
 10
28.2125
 20
-4.584999999999999
 30
0.0
 11
27.0325
 21
-4.584999999999999
 31
0.0
  0
LINE
  5
1F9
330
70
100
AcDbEntity
  8
plate-20201117-040118 v19_0
100
AcDbLine
 10
28.481
 20
-2.276499999999999
 30
0.0
 11
28.06
 21
-2.276499999999999
 31
0.0
  0
ARC
  5
1FA
330
70
100
AcDbEntity
  8
plate-20201117-040118 v19_0
100
AcDbCircle
 10
24.51625
 20
-3.4475
 30
0.0
 40
0.0500000000000007
100
AcDbArc
 50
180.0
 51
270.0
  0
ARC
  5
1FB
330
70
100
AcDbEntity
  8
plate-20201117-040118 v19_0
100
AcDbCircle
 10
22.61125
 20
-2.2675
 30
0.0
 40
0.0499999999999998
100
AcDbArc
 50
90.0
 51
180.0
  0
LINE
  5
1FC
330
70
100
AcDbEntity
  8
plate-20201117-040118 v19_0
100
AcDbLine
 10
24.51625
 20
-3.4975
 30
0.0
 11
25.96625
 21
-3.4975
 31
0.0
  0
ARC
  5
1FD
330
70
100
AcDbEntity
  8
plate-20201117-040118 v19_0
100
AcDbCircle
 10
18.34625
 20
-2.2675
 30
0.0
 40
0.0500000000000007
100
AcDbArc
 50
0.0
 51
90.0
  0
ARC
  5
1FE
330
70
100
AcDbEntity
  8
plate-20201117-040118 v19_0
100
AcDbCircle
 10
20.25125
 20
-2.2675
 30
0.0
 40
0.0500000000000007
100
AcDbArc
 50
0.0
 51
90.0
  0
LINE
  5
1FF
330
70
100
AcDbEntity
  8
plate-20201117-040118 v19_0
100
AcDbLine
 10
28.483
 20
-5.0765
 30
0.0
 11
28.062
 21
-5.0765
 31
0.0
  0
ARC
  5
200
330
70
100
AcDbEntity
  8
plate-20201117-040118 v19_0
100
AcDbCircle
 10
5.4875
 20
-5.3525
 30
0.0
 40
0.0499999999999998
100
AcDbArc
 50
270.0
 51
0.0
  0
ARC
  5
201
330
70
100
AcDbEntity
  8
plate-20201117-040118 v19_0
100
AcDbCircle
 10
1.18
 20
-5.3525
 30
0.0
 40
0.0500000000000001
100
AcDbArc
 50
180.0
 51
270.0
  0
LINE
  5
202
330
70
100
AcDbEntity
  8
plate-20201117-040118 v19_0
100
AcDbLine
 10
21.25375
 20
-0.3625
 30
0.0
 11
21.25375
 21
-1.5425
 31
0.0
  0
ARC
  5
203
330
70
100
AcDbEntity
  8
plate-20201117-040118 v19_0
100
AcDbCircle
 10
24.51625
 20
-2.2675
 30
0.0
 40
0.0499999999999998
100
AcDbArc
 50
90.0
 51
180.0
  0
LINE
  5
204
330
70
100
AcDbEntity
  8
plate-20201117-040118 v19_0
100
AcDbLine
 10
28.481
 20
-2.543499999999999
 30
0.0
 11
28.06
 21
-2.543499999999999
 31
0.0
  0
ARC
  5
205
330
70
100
AcDbEntity
  8
plate-20201117-040118 v19_0
100
AcDbCircle
 10
2.63
 20
-5.3525
 30
0.0
 40
0.0499999999999998
100
AcDbArc
 50
270.0
 51
0.0
  0
LINE
  5
206
330
70
100
AcDbEntity
  8
plate-20201117-040118 v19_0
100
AcDbLine
 10
28.53300000000001
 20
-5.1265
 30
0.0
 11
28.53300000000001
 21
-5.2935
 31
0.0
  0
LINE
  5
207
330
70
100
AcDbEntity
  8
plate-20201117-040118 v19_0
100
AcDbLine
 10
28.2625
 20
-3.085
 30
0.0
 11
28.2625
 21
-4.535
 31
0.0
  0
ARC
  5
208
330
70
100
AcDbEntity
  8
plate-20201117-040118 v19_0
100
AcDbCircle
 10
27.0325
 20
-3.085
 30
0.0
 40
0.0499999999999998
100
AcDbArc
 50
90.0
 51
180.0
  0
LINE
  5
209
330
70
100
AcDbEntity
  8
plate-20201117-040118 v19_0
100
AcDbLine
 10
5.5375
 20
-4.1725
 30
0.0
 11
5.5375
 21
-5.3525
 31
0.0
  0
LINE
  5
20A
330
70
100
AcDbEntity
  8
plate-20201117-040118 v19_0
100
AcDbLine
 10
26.9825
 20
-3.085
 30
0.0
 11
26.9825
 21
-4.535
 31
0.0
  0
ARC
  5
20B
330
70
100
AcDbEntity
  8
plate-20201117-040118 v19_0
100
AcDbCircle
 10
28.481
 20
-2.3265
 30
0.0
 40
0.0500000000000007
100
AcDbArc
 50
0.0
 51
90.0
  0
ARC
  5
20C
330
70
100
AcDbEntity
  8
plate-20201117-040118 v19_0
100
AcDbCircle
 10
15.94375
 20
-0.3625
 30
0.0
 40
0.05
100
AcDbArc
 50
90.0
 51
180.0
  0
LINE
  5
20D
330
70
100
AcDbEntity
  8
plate-20201117-040118 v19_0
100
AcDbLine
 10
5.942499999999999
 20
-4.1225
 30
0.0
 11
7.3925
 21
-4.1225
 31
0.0
  0
LINE
  5
20E
330
70
100
AcDbEntity
  8
plate-20201117-040118 v19_0
100
AcDbLine
 10
28.012
 20
-5.1265
 30
0.0
 11
28.012
 21
-5.2935
 31
0.0
  0
ARC
  5
20F
330
70
100
AcDbEntity
  8
plate-20201117-040118 v19_0
100
AcDbCircle
 10
25.96625
 20
-3.4475
 30
0.0
 40
0.0499999999999998
100
AcDbArc
 50
270.0
 51
0.0
  0
ARC
  5
210
330
70
100
AcDbEntity
  8
plate-20201117-040118 v19_0
100
AcDbCircle
 10
25.96625
 20
-2.2675
 30
0.0
 40
0.0500000000000007
100
AcDbArc
 50
0.0
 51
90.0
  0
LINE
  5
211
330
70
100
AcDbEntity
  8
plate-20201117-040118 v19_0
100
AcDbLine
 10
19.75375
 20
-0.3125
 30
0.0
 11
21.20375
 21
-0.3125
 31
0.0
  0
LINE
  5
212
330
70
100
AcDbEntity
  8
plate-20201117-040118 v19_0
100
AcDbLine
 10
22.61125
 20
-2.2175
 30
0.0
 11
24.06125
 21
-2.2175
 31
0.0
  0
LINE
  5
213
330
70
100
AcDbEntity
  8
plate-20201117-040118 v19_0
100
AcDbLine
 10
28.01
 20
-2.3265
 30
0.0
 11
28.01
 21
-2.4935
 31
0.0
  0
ARC
  5
214
330
70
100
AcDbEntity
  8
plate-20201117-040118 v19_0
100
AcDbCircle
 10
28.483
 20
-5.1265
 30
0.0
 40
0.0500000000000007
100
AcDbArc
 50
0.0
 51
90.0
  0
LINE
  5
215
330
70
100
AcDbEntity
  8
plate-20201117-040118 v19_0
100
AcDbLine
 10
24.11125
 20
-2.2675
 30
0.0
 11
24.11125
 21
-3.4475
 31
0.0
  0
LINE
  5
216
330
70
100
AcDbEntity
  8
plate-20201117-040118 v19_0
100
AcDbLine
 10
4.0375
 20
-5.402499999999999
 30
0.0
 11
5.4875
 21
-5.402499999999999
 31
0.0
  0
ARC
  5
217
330
70
100
AcDbEntity
  8
plate-20201117-040118 v19_0
100
AcDbCircle
 10
21.20375
 20
-0.3625
 30
0.0
 40
0.0500000000000007
100
AcDbArc
 50
0.0
 51
90.0
  0
LINE
  5
218
330
70
100
AcDbEntity
  8
plate-20201117-040118 v19_0
100
AcDbLine
 10
3.9875
 20
-4.1725
 30
0.0
 11
3.9875
 21
-5.3525
 31
0.0
  0
LINE
  5
219
330
70
100
AcDbEntity
  8
plate-20201117-040118 v19_0
100
AcDbLine
 10
4.0375
 20
-4.1225
 30
0.0
 11
5.4875
 21
-4.1225
 31
0.0
  0
ARC
  5
21A
330
70
100
AcDbEntity
  8
plate-20201117-040118 v19_0
100
AcDbCircle
 10
5.4875
 20
-4.1725
 30
0.0
 40
0.0499999999999998
100
AcDbArc
 50
0.0
 51
90.0
  0
LINE
  5
21B
330
70
100
AcDbEntity
  8
plate-20201117-040118 v19_0
100
AcDbLine
 10
28.531
 20
-2.3265
 30
0.0
 11
28.531
 21
-2.4935
 31
0.0
  0
LINE
  5
21C
330
70
100
AcDbEntity
  8
plate-20201117-040118 v19_0
100
AcDbLine
 10
19.75375
 20
-1.5925
 30
0.0
 11
21.20375
 21
-1.5925
 31
0.0
  0
LINE
  5
21D
330
70
100
AcDbEntity
  8
plate-20201117-040118 v19_0
100
AcDbLine
 10
18.75125
 20
-2.2675
 30
0.0
 11
18.75125
 21
-3.4475
 31
0.0
  0
LINE
  5
21E
330
70
100
AcDbEntity
  8
plate-20201117-040118 v19_0
100
AcDbLine
 10
28.2125
 20
-3.035
 30
0.0
 11
27.0325
 21
-3.035
 31
0.0
  0
ARC
  5
21F
330
70
100
AcDbEntity
  8
plate-20201117-040118 v19_0
100
AcDbCircle
 10
28.062
 20
-5.2935
 30
0.0
 40
0.0500000000000007
100
AcDbArc
 50
180.0
 51
270.0
  0
LINE
  5
220
330
70
100
AcDbEntity
  8
plate-20201117-040118 v19_0
100
AcDbLine
 10
2.68
 20
-4.1725
 30
0.0
 11
2.68
 21
-5.3525
 31
0.0
  0
LINE
  5
221
330
70
100
AcDbEntity
  8
plate-20201117-040118 v19_0
100
AcDbLine
 10
22.61125
 20
-3.4975
 30
0.0
 11
24.06125
 21
-3.4975
 31
0.0
  0
ARC
  5
222
330
70
100
AcDbEntity
  8
plate-20201117-040118 v19_0
100
AcDbCircle
 10
22.15625
 20
-3.4475
 30
0.0
 40
0.0499999999999998
100
AcDbArc
 50
270.0
 51
0.0
  0
ARC
  5
223
330
70
100
AcDbEntity
  8
plate-20201117-040118 v19_0
100
AcDbCircle
 10
28.483
 20
-5.2935
 30
0.0
 40
0.0499999999999998
100
AcDbArc
 50
270.0
 51
0.0
  0
LINE
  5
224
330
70
100
AcDbEntity
  8
plate-20201117-040118 v19_0
100
AcDbLine
 10
24.46625
 20
-2.2675
 30
0.0
 11
24.46625
 21
-3.4475
 31
0.0
  0
ARC
  5
225
330
70
100
AcDbEntity
  8
plate-20201117-040118 v19_0
100
AcDbCircle
 10
4.0375
 20
-4.1725
 30
0.0
 40
0.0499999999999998
100
AcDbArc
 50
90.0
 51
180.0
  0
ARC
  5
226
330
70
100
AcDbEntity
  8
plate-20201117-040118 v19_0
100
AcDbCircle
 10
24.06125
 20
-3.4475
 30
0.0
 40
0.0499999999999998
100
AcDbArc
 50
270.0
 51
0.0
  0
ARC
  5
227
330
70
100
AcDbEntity
  8
plate-20201117-040118 v19_0
100
AcDbCircle
 10
20.70625
 20
-2.2675
 30
0.0
 40
0.0499999999999998
100
AcDbArc
 50
90.0
 51
180.0
  0
ARC
  5
228
330
70
100
AcDbEntity
  8
plate-20201117-040118 v19_0
100
AcDbCircle
 10
18.80125
 20
-3.4475
 30
0.0
 40
0.0500000000000007
100
AcDbArc
 50
180.0
 51
270.0
  0
ARC
  5
229
330
70
100
AcDbEntity
  8
plate-20201117-040118 v19_0
100
AcDbCircle
 10
17.84875
 20
-1.5425
 30
0.0
 40
0.0500000000000007
100
AcDbArc
 50
180.0
 51
270.0
  0
ARC
  5
22A
330
70
100
AcDbEntity
  8
plate-20201117-040118 v19_0
100
AcDbCircle
 10
28.06
 20
-2.4935
 30
0.0
 40
0.0500000000000007
100
AcDbArc
 50
180.0
 51
270.0
  0
LINE
  5
22B
330
70
100
AcDbEntity
  8
plate-20201117-040118 v19_0
100
AcDbLine
 10
17.84875
 20
-1.5925
 30
0.0
 11
19.29875
 21
-1.5925
 31
0.0
  0
ARC
  5
22C
330
70
100
AcDbEntity
  8
plate-20201117-040118 v19_0
100
AcDbCircle
 10
2.63
 20
-4.1725
 30
0.0
 40
0.0499999999999998
100
AcDbArc
 50
0.0
 51
90.0
  0
ARC
  5
22D
330
70
100
AcDbEntity
  8
plate-20201117-040118 v19_0
100
AcDbCircle
 10
27.0325
 20
-4.535
 30
0.0
 40
0.0500000000000007
100
AcDbArc
 50
180.0
 51
270.0
  0
LINE
  5
22E
330
70
100
AcDbEntity
  8
plate-20201117-040118 v19_0
100
AcDbLine
 10
1.18
 20
-4.1225
 30
0.0
 11
2.63
 21
-4.1225
 31
0.0
  0
ARC
  5
22F
330
70
100
AcDbEntity
  8
plate-20201117-040118 v19_0
100
AcDbCircle
 10
24.06125
 20
-2.2675
 30
0.0
 40
0.0500000000000007
100
AcDbArc
 50
0.0
 51
90.0
  0
ARC
  5
230
330
70
100
AcDbEntity
  8
plate-20201117-040118 v19_0
100
AcDbCircle
 10
19.29875
 20
-1.5425
 30
0.0
 40
0.0500000000000001
100
AcDbArc
 50
270.0
 51
0.0
  0
LINE
  5
231
330
70
100
AcDbEntity
  8
plate-20201117-040118 v19_0
100
AcDbLine
 10
19.70375
 20
-0.3625
 30
0.0
 11
19.70375
 21
-1.5425
 31
0.0
  0
ARC
  5
232
330
70
100
AcDbEntity
  8
plate-20201117-040118 v19_0
100
AcDbCircle
 10
28.481
 20
-2.4935
 30
0.0
 40
0.0499999999999998
100
AcDbArc
 50
270.0
 51
0.0
  0
ARC
  5
233
330
70
100
AcDbEntity
  8
plate-20201117-040118 v19_0
100
AcDbCircle
 10
19.75375
 20
-0.3625
 30
0.0
 40
0.05
100
AcDbArc
 50
90.0
 51
180.0
  0
LINE
  5
234
330
70
100
AcDbEntity
  8
plate-20201117-040118 v19_0
100
AcDbLine
 10
18.80125
 20
-3.4975
 30
0.0
 11
20.25125
 21
-3.4975
 31
0.0
  0
ARC
  5
235
330
70
100
AcDbEntity
  8
plate-20201117-040118 v19_0
100
AcDbCircle
 10
20.25125
 20
-3.4475
 30
0.0
 40
0.0499999999999998
100
AcDbArc
 50
270.0
 51
0.0
  0
ARC
  5
236
330
70
100
AcDbEntity
  8
plate-20201117-040118 v19_0
100
AcDbCircle
 10
3.561249999999999
 20
-3.4475
 30
0.0
 40
0.0499999999999998
100
AcDbArc
 50
180.0
 51
270.0
  0
LINE
  5
237
330
70
100
AcDbEntity
  8
plate-20201117-040118 v19_0
100
AcDbLine
 10
5.46625
 20
-2.2175
 30
0.0
 11
6.916249999999999
 21
-2.2175
 31
0.0
  0
ARC
  5
238
330
70
100
AcDbEntity
  8
plate-20201117-040118 v19_0
100
AcDbCircle
 10
25.791625
 20
-1.810999999999999
 30
0.0
 40
0.0500000000000001
100
AcDbArc
 50
270.0
 51
0.0
  0
LINE
  5
239
330
70
100
AcDbEntity
  8
plate-20201117-040118 v19_0
100
AcDbLine
 10
26.01625
 20
-2.2675
 30
0.0
 11
26.01625
 21
-3.4475
 31
0.0
  0
ARC
  5
23A
330
70
100
AcDbEntity
  8
plate-20201117-040118 v19_0
100
AcDbCircle
 10
22.15625
 20
-2.2675
 30
0.0
 40
0.0500000000000007
100
AcDbArc
 50
0.0
 51
90.0
  0
LINE
  5
23B
330
70
100
AcDbEntity
  8
plate-20201117-040118 v19_0
100
AcDbLine
 10
5.06125
 20
-2.2675
 30
0.0
 11
5.06125
 21
-3.4475
 31
0.0
  0
ARC
  5
23C
330
70
100
AcDbEntity
  8
plate-20201117-040118 v19_0
100
AcDbCircle
 10
5.01125
 20
-3.4475
 30
0.0
 40
0.0499999999999998
100
AcDbArc
 50
270.0
 51
0.0
  0
LINE
  5
23D
330
70
100
AcDbEntity
  8
plate-20201117-040118 v19_0
100
AcDbLine
 10
0.9418749999999999
 20
-3.4975
 30
0.0
 11
2.391875
 21
-3.4975
 31
0.0
  0
LINE
  5
23E
330
70
100
AcDbEntity
  8
plate-20201117-040118 v19_0
100
AcDbLine
 10
18.80125
 20
-2.2175
 30
0.0
 11
20.25125
 21
-2.2175
 31
0.0
  0
ARC
  5
23F
330
70
100
AcDbEntity
  8
plate-20201117-040118 v19_0
100
AcDbCircle
 10
28.2125
 20
-4.535
 30
0.0
 40
0.0499999999999998
100
AcDbArc
 50
270.0
 51
0.0
  0
ARC
  5
240
330
70
100
AcDbEntity
  8
plate-20201117-040118 v19_0
100
AcDbCircle
 10
18.34625
 20
-3.4475
 30
0.0
 40
0.0499999999999998
100
AcDbArc
 50
270.0
 51
0.0
  0
LINE
  5
241
330
70
100
AcDbEntity
  8
plate-20201117-040118 v19_0
100
AcDbLine
 10
16.84625
 20
-2.2675
 30
0.0
 11
16.84625
 21
-3.4475
 31
0.0
  0
LINE
  5
242
330
70
100
AcDbEntity
  8
plate-20201117-040118 v19_0
100
AcDbLine
 10
14.99125
 20
-3.4975
 30
0.0
 11
16.44125
 21
-3.4975
 31
0.0
  0
ARC
  5
243
330
70
100
AcDbEntity
  8
plate-20201117-040118 v19_0
100
AcDbCircle
 10
16.44125
 20
-2.2675
 30
0.0
 40
0.0500000000000007
100
AcDbArc
 50
0.0
 51
90.0
  0
ARC
  5
244
330
70
100
AcDbEntity
  8
plate-20201117-040118 v19_0
100
AcDbCircle
 10
28.2125
 20
-3.085
 30
0.0
 40
0.0500000000000007
100
AcDbArc
 50
0.0
 51
90.0
  0
LINE
  5
245
330
70
100
AcDbEntity
  8
plate-20201117-040118 v19_0
100
AcDbLine
 10
13.03625
 20
-2.2675
 30
0.0
 11
13.03625
 21
-3.4475
 31
0.0
  0
ARC
  5
246
330
70
100
AcDbEntity
  8
plate-20201117-040118 v19_0
100
AcDbCircle
 10
3.561249999999999
 20
-2.2675
 30
0.0
 40
0.0499999999999998
100
AcDbArc
 50
90.0
 51
180.0
  0
LINE
  5
247
330
70
100
AcDbEntity
  8
plate-20201117-040118 v19_0
100
AcDbLine
 10
14.58625
 20
-2.2675
 30
0.0
 11
14.58625
 21
-3.4475
 31
0.0
  0
LINE
  5
248
330
70
100
AcDbEntity
  8
plate-20201117-040118 v19_0
100
AcDbLine
 10
28.483
 20
-5.3435
 30
0.0
 11
28.062
 21
-5.3435
 31
0.0
  0
LINE
  5
249
330
70
100
AcDbEntity
  8
plate-20201117-040118 v19_0
100
AcDbLine
 10
14.94125
 20
-2.2675
 30
0.0
 11
14.94125
 21
-3.4475
 31
0.0
  0
LINE
  5
24A
330
70
100
AcDbEntity
  8
plate-20201117-040118 v19_0
100
AcDbLine
 10
0.9418749999999999
 20
-2.2175
 30
0.0
 11
2.391875
 21
-2.2175
 31
0.0
  0
LINE
  5
24B
330
70
100
AcDbEntity
  8
plate-20201117-040118 v19_0
100
AcDbLine
 10
20.65625
 20
-2.2675
 30
0.0
 11
20.65625
 21
-3.4475
 31
0.0
  0
LINE
  5
24C
330
70
100
AcDbEntity
  8
plate-20201117-040118 v19_0
100
AcDbLine
 10
3.511249999999999
 20
-2.2675
 30
0.0
 11
3.511249999999999
 21
-3.4475
 31
0.0
  0
ARC
  5
24D
330
70
100
AcDbEntity
  8
plate-20201117-040118 v19_0
100
AcDbCircle
 10
11.18125
 20
-3.4475
 30
0.0
 40
0.0500000000000007
100
AcDbArc
 50
180.0
 51
270.0
  0
LINE
  5
24E
330
70
100
AcDbEntity
  8
plate-20201117-040118 v19_0
100
AcDbLine
 10
1.18
 20
-5.402499999999999
 30
0.0
 11
2.63
 21
-5.402499999999999
 31
0.0
  0
LINE
  5
24F
330
70
100
AcDbEntity
  8
plate-20201117-040118 v19_0
100
AcDbLine
 10
24.51625
 20
-2.2175
 30
0.0
 11
25.96625
 21
-2.2175
 31
0.0
  0
LINE
  5
250
330
70
100
AcDbEntity
  8
plate-20201117-040118 v19_0
100
AcDbLine
 10
13.08625
 20
-2.2175
 30
0.0
 11
14.53625
 21
-2.2175
 31
0.0
  0
LINE
  5
251
330
70
100
AcDbEntity
  8
plate-20201117-040118 v19_0
100
AcDbLine
 10
16.89625
 20
-3.4975
 30
0.0
 11
18.34625
 21
-3.4975
 31
0.0
  0
ARC
  5
252
330
70
100
AcDbEntity
  8
plate-20201117-040118 v19_0
100
AcDbCircle
 10
16.44125
 20
-3.4475
 30
0.0
 40
0.0499999999999998
100
AcDbArc
 50
270.0
 51
0.0
  0
ARC
  5
253
330
70
100
AcDbEntity
  8
plate-20201117-040118 v19_0
100
AcDbCircle
 10
14.99125
 20
-2.2675
 30
0.0
 40
0.0499999999999998
100
AcDbArc
 50
90.0
 51
180.0
  0
ARC
  5
254
330
70
100
AcDbEntity
  8
plate-20201117-040118 v19_0
100
AcDbCircle
 10
25.624625
 20
-1.810999999999999
 30
0.0
 40
0.0500000000000007
100
AcDbArc
 50
180.0
 51
270.0
  0
ARC
  5
255
330
70
100
AcDbEntity
  8
plate-20201117-040118 v19_0
100
AcDbCircle
 10
5.01125
 20
-2.2675
 30
0.0
 40
0.0499999999999998
100
AcDbArc
 50
0.0
 51
90.0
  0
ARC
  5
256
330
70
100
AcDbEntity
  8
plate-20201117-040118 v19_0
100
AcDbCircle
 10
16.89625
 20
-3.4475
 30
0.0
 40
0.0500000000000007
100
AcDbArc
 50
180.0
 51
270.0
  0
ARC
  5
257
330
70
100
AcDbEntity
  8
plate-20201117-040118 v19_0
100
AcDbCircle
 10
4.0375
 20
-5.3525
 30
0.0
 40
0.0499999999999998
100
AcDbArc
 50
180.0
 51
270.0
  0
ARC
  5
258
330
70
100
AcDbEntity
  8
plate-20201117-040118 v19_0
100
AcDbCircle
 10
25.791625
 20
-1.39
 30
0.0
 40
0.0500000000000007
100
AcDbArc
 50
0.0
 51
90.0
  0
LINE
  5
259
330
70
100
AcDbEntity
  8
plate-20201117-040118 v19_0
100
AcDbLine
 10
1.13
 20
-4.1725
 30
0.0
 11
1.13
 21
-5.3525
 31
0.0
  0
LINE
  5
25A
330
70
100
AcDbEntity
  8
plate-20201117-040118 v19_0
100
AcDbLine
 10
25.574625
 20
-1.39
 30
0.0
 11
25.574625
 21
-1.810999999999999
 31
0.0
  0
ARC
  5
25B
330
70
100
AcDbEntity
  8
plate-20201117-040118 v19_0
100
AcDbCircle
 10
14.53625
 20
-3.4475
 30
0.0
 40
0.0499999999999998
100
AcDbArc
 50
270.0
 51
0.0
  0
LINE
  5
25C
330
70
100
AcDbEntity
  8
plate-20201117-040118 v19_0
100
AcDbLine
 10
22.20625
 20
-2.2675
 30
0.0
 11
22.20625
 21
-3.4475
 31
0.0
  0
LINE
  5
25D
330
70
100
AcDbEntity
  8
plate-20201117-040118 v19_0
100
AcDbLine
 10
16.49125
 20
-2.2675
 30
0.0
 11
16.49125
 21
-3.4475
 31
0.0
  0
ARC
  5
25E
330
70
100
AcDbEntity
  8
plate-20201117-040118 v19_0
100
AcDbCircle
 10
13.08625
 20
-2.2675
 30
0.0
 40
0.0499999999999998
100
AcDbArc
 50
90.0
 51
180.0
  0
ARC
  5
25F
330
70
100
AcDbEntity
  8
plate-20201117-040118 v19_0
100
AcDbCircle
 10
14.53625
 20
-2.2675
 30
0.0
 40
0.0500000000000007
100
AcDbArc
 50
0.0
 51
90.0
  0
ARC
  5
260
330
70
100
AcDbEntity
  8
plate-20201117-040118 v19_0
100
AcDbCircle
 10
20.70625
 20
-3.4475
 30
0.0
 40
0.0500000000000007
100
AcDbArc
 50
180.0
 51
270.0
  0
ARC
  5
261
330
70
100
AcDbEntity
  8
plate-20201117-040118 v19_0
100
AcDbCircle
 10
14.99125
 20
-3.4475
 30
0.0
 40
0.0500000000000007
100
AcDbArc
 50
180.0
 51
270.0
  0
LINE
  5
262
330
70
100
AcDbEntity
  8
plate-20201117-040118 v19_0
100
AcDbLine
 10
20.70625
 20
-2.2175
 30
0.0
 11
22.15625
 21
-2.2175
 31
0.0
  0
LINE
  5
263
330
70
100
AcDbEntity
  8
plate-20201117-040118 v19_0
100
AcDbLine
 10
16.89625
 20
-2.2175
 30
0.0
 11
18.34625
 21
-2.2175
 31
0.0
  0
LINE
  5
264
330
70
100
AcDbEntity
  8
plate-20201117-040118 v19_0
100
AcDbLine
 10
20.70625
 20
-3.4975
 30
0.0
 11
22.15625
 21
-3.4975
 31
0.0
  0
ARC
  5
265
330
70
100
AcDbEntity
  8
plate-20201117-040118 v19_0
100
AcDbCircle
 10
16.89625
 20
-2.2675
 30
0.0
 40
0.0499999999999998
100
AcDbArc
 50
90.0
 51
180.0
  0
LINE
  5
266
330
70
100
AcDbEntity
  8
plate-20201117-040118 v19_0
100
AcDbLine
 10
20.30125
 20
-2.2675
 30
0.0
 11
20.30125
 21
-3.4475
 31
0.0
  0
ARC
  5
267
330
70
100
AcDbEntity
  8
plate-20201117-040118 v19_0
100
AcDbCircle
 10
13.08625
 20
-3.4475
 30
0.0
 40
0.0500000000000007
100
AcDbArc
 50
180.0
 51
270.0
  0
ARC
  5
268
330
70
100
AcDbEntity
  8
plate-20201117-040118 v19_0
100
AcDbCircle
 10
12.63125
 20
-2.2675
 30
0.0
 40
0.0500000000000007
100
AcDbArc
 50
0.0
 51
90.0
  0
LINE
  5
269
330
70
100
AcDbEntity
  8
plate-20201117-040118 v19_0
100
AcDbLine
 10
25.841625
 20
-1.39
 30
0.0
 11
25.841625
 21
-1.810999999999999
 31
0.0
  0
ARC
  5
26A
330
70
100
AcDbEntity
  8
plate-20201117-040118 v19_0
100
AcDbCircle
 10
28.06
 20
-2.3265
 30
0.0
 40
0.0500000000000003
100
AcDbArc
 50
90.0
 51
180.0
  0
ARC
  5
26B
330
70
100
AcDbEntity
  8
plate-20201117-040118 v19_0
100
AcDbCircle
 10
18.80125
 20
-2.2675
 30
0.0
 40
0.0499999999999998
100
AcDbArc
 50
90.0
 51
180.0
  0
LINE
  5
26C
330
70
100
AcDbEntity
  8
plate-20201117-040118 v19_0
100
AcDbLine
 10
14.99125
 20
-2.2175
 30
0.0
 11
16.44125
 21
-2.2175
 31
0.0
  0
ARC
  5
26D
330
70
100
AcDbEntity
  8
plate-20201117-040118 v19_0
100
AcDbCircle
 10
11.18125
 20
-2.2675
 30
0.0
 40
0.0499999999999998
100
AcDbArc
 50
90.0
 51
180.0
  0
LINE
  5
26E
330
70
100
AcDbEntity
  8
plate-20201117-040118 v19_0
100
AcDbLine
 10
13.08625
 20
-3.4975
 30
0.0
 11
14.53625
 21
-3.4975
 31
0.0
  0
LINE
  5
26F
330
70
100
AcDbEntity
  8
plate-20201117-040118 v19_0
100
AcDbLine
 10
18.39625
 20
-2.2675
 30
0.0
 11
18.39625
 21
-3.4475
 31
0.0
  0
ARC
  5
270
330
70
100
AcDbEntity
  8
plate-20201117-040118 v19_0
100
AcDbCircle
 10
12.63125
 20
-3.4475
 30
0.0
 40
0.0499999999999998
100
AcDbArc
 50
270.0
 51
0.0
  0
ARC
  5
271
330
70
100
AcDbEntity
  8
plate-20201117-040118 v19_0
100
AcDbCircle
 10
25.624625
 20
-1.39
 30
0.0
 40
0.0500000000000001
100
AcDbArc
 50
90.0
 51
180.0
  0
LINE
  5
272
330
70
100
AcDbEntity
  8
plate-20201117-040118 v19_0
100
AcDbLine
 10
2.441875
 20
-2.2675
 30
0.0
 11
2.441875
 21
-3.4475
 31
0.0
  0
ARC
  5
273
330
70
100
AcDbEntity
  8
plate-20201117-040118 v19_0
100
AcDbCircle
 10
2.391875
 20
-2.2675
 30
0.0
 40
0.0499999999999998
100
AcDbArc
 50
0.0
 51
90.0
  0
LINE
  5
274
330
70
100
AcDbEntity
  8
plate-20201117-040118 v19_0
100
AcDbLine
 10
10.77625
 20
-2.2675
 30
0.0
 11
10.77625
 21
-3.4475
 31
0.0
  0
ARC
  5
275
330
70
100
AcDbEntity
  8
plate-20201117-040118 v19_0
100
AcDbCircle
 10
7.37125
 20
-2.2675
 30
0.0
 40
0.0499999999999998
100
AcDbArc
 50
90.0
 51
180.0
  0
LINE
  5
276
330
70
100
AcDbEntity
  8
plate-20201117-040118 v19_0
100
AcDbLine
 10
28.241625
 20
-1.39
 30
0.0
 11
28.241625
 21
-1.810999999999999
 31
0.0
  0
ARC
  5
277
330
70
100
AcDbEntity
  8
plate-20201117-040118 v19_0
100
AcDbCircle
 10
0.3000000000000023
 20
-9.224999999999997
 30
0.0
 40
0.3000000000000023
100
AcDbArc
 50
180.0000000000003
 51
269.9999999999995
  0
LINE
  5
278
330
70
100
AcDbEntity
  8
plate-20201117-040118 v19_0
100
AcDbLine
 10
27.683125
 20
-0.3625
 30
0.0
 11
27.683125
 21
-1.5425
 31
0.0
  0
ARC
  5
279
330
70
100
AcDbEntity
  8
plate-20201117-040118 v19_0
100
AcDbCircle
 10
6.916249999999999
 20
-3.4475
 30
0.0
 40
0.0499999999999998
100
AcDbArc
 50
270.0
 51
0.0
  0
ARC
  5
27A
330
70
100
AcDbEntity
  8
plate-20201117-040118 v19_0
100
AcDbCircle
 10
8.82125
 20
-3.4475
 30
0.0
 40
0.0499999999999998
100
AcDbArc
 50
270.0
 51
0.0
  0
ARC
  5
27B
330
70
100
AcDbEntity
  8
plate-20201117-040118 v19_0
100
AcDbCircle
 10
0.2999999999999998
 20
-0.2999999999999998
 30
0.0
 40
0.2999999999999998
100
AcDbArc
 50
89.99999999999998
 51
180.0
  0
ARC
  5
27C
330
70
100
AcDbEntity
  8
plate-20201117-040118 v19_0
100
AcDbCircle
 10
5.46625
 20
-2.2675
 30
0.0
 40
0.0499999999999998
100
AcDbArc
 50
90.0
 51
180.0
  0
LINE
  5
27D
330
70
100
AcDbEntity
  8
plate-20201117-040118 v19_0
100
AcDbLine
 10
7.32125
 20
-2.2675
 30
0.0
 11
7.32125
 21
-3.4475
 31
0.0
  0
LINE
  5
27E
330
70
100
AcDbEntity
  8
plate-20201117-040118 v19_0
100
AcDbLine
 10
5.41625
 20
-2.2675
 30
0.0
 11
5.41625
 21
-3.4475
 31
0.0
  0
LINE
  5
27F
330
70
100
AcDbEntity
  8
plate-20201117-040118 v19_0
100
AcDbLine
 10
9.27625
 20
-3.4975
 30
0.0
 11
10.72625
 21
-3.4975
 31
0.0
  0
LINE
  5
280
330
70
100
AcDbEntity
  8
plate-20201117-040118 v19_0
100
AcDbLine
 10
27.974625
 20
-1.39
 30
0.0
 11
27.974625
 21
-1.810999999999999
 31
0.0
  0
LINE
  5
281
330
70
100
AcDbEntity
  8
plate-20201117-040118 v19_0
100
AcDbLine
 10
7.37125
 20
-3.4975
 30
0.0
 11
8.82125
 21
-3.4975
 31
0.0
  0
ARC
  5
282
330
70
100
AcDbEntity
  8
plate-20201117-040118 v19_0
100
AcDbCircle
 10
0.9418749999999999
 20
-2.2675
 30
0.0
 40
0.0499999999999998
100
AcDbArc
 50
90.0
 51
180.0
  0
ARC
  5
283
330
70
100
AcDbEntity
  8
plate-20201117-040118 v19_0
100
AcDbCircle
 10
8.82125
 20
-2.2675
 30
0.0
 40
0.0500000000000007
100
AcDbArc
 50
0.0
 51
90.0
  0
ARC
  5
284
330
70
100
AcDbEntity
  8
plate-20201117-040118 v19_0
100
AcDbCircle
 10
0.9418749999999999
 20
-3.4475
 30
0.0
 40
0.0500000000000001
100
AcDbArc
 50
180.0
 51
270.0
  0
ARC
  5
285
330
70
100
AcDbEntity
  8
plate-20201117-040118 v19_0
100
AcDbCircle
 10
28.191625
 20
-1.810999999999999
 30
0.0
 40
0.0500000000000001
100
AcDbArc
 50
270.0
 51
0.0
  0
ARC
  5
286
330
70
100
AcDbEntity
  8
plate-20201117-040118 v19_0
100
AcDbCircle
 10
7.37125
 20
-3.4475
 30
0.0
 40
0.0499999999999998
100
AcDbArc
 50
180.0
 51
270.0
  0
ARC
  5
287
330
70
100
AcDbEntity
  8
plate-20201117-040118 v19_0
100
AcDbCircle
 10
2.391875
 20
-3.4475
 30
0.0
 40
0.0499999999999998
100
AcDbArc
 50
270.0
 51
0.0
  0
ARC
  5
288
330
70
100
AcDbEntity
  8
plate-20201117-040118 v19_0
100
AcDbCircle
 10
5.46625
 20
-3.4475
 30
0.0
 40
0.0499999999999998
100
AcDbArc
 50
180.0
 51
270.0
  0
ARC
  5
289
330
70
100
AcDbEntity
  8
plate-20201117-040118 v19_0
100
AcDbCircle
 10
26.183125
 20
-1.5425
 30
0.0
 40
0.0500000000000007
100
AcDbArc
 50
180.0
 51
270.0
  0
ARC
  5
28A
330
70
100
AcDbEntity
  8
plate-20201117-040118 v19_0
100
AcDbCircle
 10
26.183125
 20
-0.3625
 30
0.0
 40
0.05
100
AcDbArc
 50
90.0
 51
180.0
  0
LINE
  5
28B
330
70
100
AcDbEntity
  8
plate-20201117-040118 v19_0
100
AcDbLine
 10
26.13312500000001
 20
-0.3625
 30
0.0
 11
26.13312500000001
 21
-1.5425
 31
0.0
  0
LINE
  5
28C
330
70
100
AcDbEntity
  8
plate-20201117-040118 v19_0
100
AcDbLine
 10
9.22625
 20
-2.2675
 30
0.0
 11
9.22625
 21
-3.4475
 31
0.0
  0
LINE
  5
28D
330
70
100
AcDbEntity
  8
plate-20201117-040118 v19_0
100
AcDbLine
 10
12.68125
 20
-2.2675
 30
0.0
 11
12.68125
 21
-3.4475
 31
0.0
  0
LINE
  5
28E
330
70
100
AcDbEntity
  8
plate-20201117-040118 v19_0
100
AcDbLine
 10
8.871250000000001
 20
-2.2675
 30
0.0
 11
8.871250000000001
 21
-3.4475
 31
0.0
  0
ARC
  5
28F
330
70
100
AcDbEntity
  8
plate-20201117-040118 v19_0
100
AcDbCircle
 10
28.275
 20
-0.3000000000000014
 30
0.0
 40
0.3000000000000007
100
AcDbArc
 50
0.0000000000002756
 51
90.0
  0
ARC
  5
290
330
70
100
AcDbEntity
  8
plate-20201117-040118 v19_0
100
AcDbCircle
 10
9.27625
 20
-2.2675
 30
0.0
 40
0.0499999999999998
100
AcDbArc
 50
90.0
 51
180.0
  0
LINE
  5
291
330
70
100
AcDbEntity
  8
plate-20201117-040118 v19_0
100
AcDbLine
 10
11.13125
 20
-2.2675
 30
0.0
 11
11.13125
 21
-3.4475
 31
0.0
  0
CIRCLE
  5
292
330
70
100
AcDbEntity
  8
plate-20201117-040118 v19_0
100
AcDbCircle
 10
10.48750666114812
 20
-8.572499999999999
 30
0.0
 40
0.3149999999999995
  0
LINE
  5
293
330
70
100
AcDbEntity
  8
plate-20201117-040118 v19_0
100
AcDbLine
 10
3.561249999999999
 20
-3.4975
 30
0.0
 11
5.01125
 21
-3.4975
 31
0.0
  0
LINE
  5
294
330
70
100
AcDbEntity
  8
plate-20201117-040118 v19_0
100
AcDbLine
 10
6.966249999999999
 20
-2.2675
 30
0.0
 11
6.966249999999999
 21
-3.4475
 31
0.0
  0
LINE
  5
295
330
70
100
AcDbEntity
  8
plate-20201117-040118 v19_0
100
AcDbLine
 10
28.024625
 20
-1.34
 30
0.0
 11
28.191625
 21
-1.34
 31
0.0
  0
ARC
  5
296
330
70
100
AcDbEntity
  8
plate-20201117-040118 v19_0
100
AcDbCircle
 10
9.27625
 20
-3.4475
 30
0.0
 40
0.0500000000000007
100
AcDbArc
 50
180.0
 51
270.0
  0
ARC
  5
297
330
70
100
AcDbEntity
  8
plate-20201117-040118 v19_0
100
AcDbCircle
 10
28.024625
 20
-1.810999999999999
 30
0.0
 40
0.0500000000000007
100
AcDbArc
 50
180.0
 51
270.0
  0
LINE
  5
298
330
70
100
AcDbEntity
  8
plate-20201117-040118 v19_0
100
AcDbLine
 10
10.97250666114812
 20
-8.452499999999997
 30
0.0
 11
11.21250666114812
 21
-8.452499999999997
 31
0.0
  0
LINE
  5
299
330
70
100
AcDbEntity
  8
plate-20201117-040118 v19_0
100
AcDbLine
 10
0.8918749999999999
 20
-2.2675
 30
0.0
 11
0.8918749999999999
 21
-3.4475
 31
0.0
  0
LINE
  5
29A
330
70
100
AcDbEntity
  8
plate-20201117-040118 v19_0
100
AcDbLine
 10
11.21250666114812
 20
-8.452499999999997
 30
0.0
 11
11.21250666114812
 21
-8.692499999999999
 31
0.0
  0
LINE
  5
29B
330
70
100
AcDbEntity
  8
plate-20201117-040118 v19_0
100
AcDbLine
 10
28.024625
 20
-1.860999999999999
 30
0.0
 11
28.191625
 21
-1.860999999999999
 31
0.0
  0
LINE
  5
29C
330
70
100
AcDbEntity
  8
plate-20201117-040118 v19_0
100
AcDbLine
 10
9.27625
 20
-2.2175
 30
0.0
 11
10.72625
 21
-2.2175
 31
0.0
  0
LINE
  5
29D
330
70
100
AcDbEntity
  8
plate-20201117-040118 v19_0
100
AcDbLine
 10
11.18125
 20
-3.4975
 30
0.0
 11
12.63125
 21
-3.4975
 31
0.0
  0
LINE
  5
29E
330
70
100
AcDbEntity
  8
plate-20201117-040118 v19_0
100
AcDbLine
 10
11.21250666114812
 20
-8.692499999999999
 30
0.0
 11
10.97250666114812
 21
-8.692499999999999
 31
0.0
  0
LINE
  5
29F
330
70
100
AcDbEntity
  8
plate-20201117-040118 v19_0
100
AcDbLine
 10
10.97250666114812
 20
-8.692499999999999
 30
0.0
 11
10.97250666114812
 21
-8.452499999999997
 31
0.0
  0
ARC
  5
2A0
330
70
100
AcDbEntity
  8
plate-20201117-040118 v19_0
100
AcDbCircle
 10
6.916249999999999
 20
-2.2675
 30
0.0
 40
0.0499999999999998
100
AcDbArc
 50
0.0
 51
90.0
  0
ARC
  5
2A1
330
70
100
AcDbEntity
  8
plate-20201117-040118 v19_0
100
AcDbCircle
 10
28.024625
 20
-1.39
 30
0.0
 40
0.0500000000000001
100
AcDbArc
 50
90.0
 51
180.0
  0
ARC
  5
2A2
330
70
100
AcDbEntity
  8
plate-20201117-040118 v19_0
100
AcDbCircle
 10
28.275
 20
-9.224999999999997
 30
0.0
 40
0.3000000000000007
100
AcDbArc
 50
270.0
 51
0.0
  0
LINE
  5
2A3
330
70
100
AcDbEntity
  8
plate-20201117-040118 v19_0
100
AcDbLine
 10
25.624625
 20
-1.34
 30
0.0
 11
25.791625
 21
-1.34
 31
0.0
  0
LINE
  5
2A4
330
70
100
AcDbEntity
  8
plate-20201117-040118 v19_0
100
AcDbLine
 10
10.00250666114812
 20
-8.692499999999999
 30
0.0
 11
9.762506661148123
 21
-8.692499999999999
 31
0.0
  0
LINE
  5
2A5
330
70
100
AcDbEntity
  8
plate-20201117-040118 v19_0
100
AcDbLine
 10
10.00250666114812
 20
-8.452499999999997
 30
0.0
 11
10.00250666114812
 21
-8.692499999999999
 31
0.0
  0
LINE
  5
2A6
330
70
100
AcDbEntity
  8
plate-20201117-040118 v19_0
100
AcDbLine
 10
11.18125
 20
-2.2175
 30
0.0
 11
12.63125
 21
-2.2175
 31
0.0
  0
LINE
  5
2A7
330
70
100
AcDbEntity
  8
plate-20201117-040118 v19_0
100
AcDbLine
 10
7.37125
 20
-2.2175
 30
0.0
 11
8.82125
 21
-2.2175
 31
0.0
  0
ARC
  5
2A8
330
70
100
AcDbEntity
  8
plate-20201117-040118 v19_0
100
AcDbCircle
 10
27.633125
 20
-0.3625
 30
0.0
 40
0.0500000000000007
100
AcDbArc
 50
0.0
 51
90.0
  0
LINE
  5
2A9
330
70
100
AcDbEntity
  8
plate-20201117-040118 v19_0
100
AcDbLine
 10
25.624625
 20
-1.860999999999999
 30
0.0
 11
25.791625
 21
-1.860999999999999
 31
0.0
  0
ARC
  5
2AA
330
70
100
AcDbEntity
  8
plate-20201117-040118 v19_0
100
AcDbCircle
 10
28.191625
 20
-1.39
 30
0.0
 40
0.0500000000000007
100
AcDbArc
 50
0.0
 51
90.0
  0
LINE
  5
2AB
330
70
100
AcDbEntity
  8
plate-20201117-040118 v19_0
100
AcDbLine
 10
9.762506661148123
 20
-8.452499999999997
 30
0.0
 11
10.00250666114812
 21
-8.452499999999997
 31
0.0
  0
LINE
  5
2AC
330
70
100
AcDbEntity
  8
plate-20201117-040118 v19_0
100
AcDbLine
 10
5.46625
 20
-3.4975
 30
0.0
 11
6.916249999999999
 21
-3.4975
 31
0.0
  0
ARC
  5
2AD
330
70
100
AcDbEntity
  8
plate-20201117-040118 v19_0
100
AcDbCircle
 10
10.72625
 20
-2.2675
 30
0.0
 40
0.0500000000000007
100
AcDbArc
 50
0.0
 51
90.0
  0
ARC
  5
2AE
330
70
100
AcDbEntity
  8
plate-20201117-040118 v19_0
100
AcDbCircle
 10
27.633125
 20
-1.5425
 30
0.0
 40
0.0500000000000001
100
AcDbArc
 50
270.0
 51
0.0
  0
LINE
  5
2AF
330
70
100
AcDbEntity
  8
plate-20201117-040118 v19_0
100
AcDbLine
 10
3.561249999999999
 20
-2.2175
 30
0.0
 11
5.01125
 21
-2.2175
 31
0.0
  0
CIRCLE
  5
2B0
330
70
100
AcDbEntity
  8
plate-20201117-040118 v19_0
100
AcDbCircle
 10
19.06749073591742
 20
-8.572453000299455
 30
0.0
 40
0.3150000000000003
  0
ARC
  5
2B1
330
70
100
AcDbEntity
  8
plate-20201117-040118 v19_0
100
AcDbCircle
 10
10.72625
 20
-3.4475
 30
0.0
 40
0.0499999999999998
100
AcDbArc
 50
270.0
 51
0.0
  0
LINE
  5
2B2
330
70
100
AcDbEntity
  8
plate-20201117-040118 v19_0
100
AcDbLine
 10
9.762506661148123
 20
-8.692499999999999
 30
0.0
 11
9.762506661148123
 21
-8.452499999999997
 31
0.0
  0
LINE
  5
2B3
330
70
100
AcDbEntity
  8
plate-20201117-040118 v19_0
100
AcDbLine
 10
0.0
 20
-0.2999999999999999
 30
0.0
 11
0.0
 21
-5.393520679419157
 31
0.0
  0
LINE
  5
2B4
330
70
100
AcDbEntity
  8
plate-20201117-040118 v19_0
100
AcDbLine
 10
0.0
 20
-6.0275
 30
0.0
 11
0.0
 21
-9.224999999999999
 31
0.0
  0
LINE
  5
2B5
330
70
100
AcDbEntity
  8
plate-20201117-040118 v19_0
100
AcDbLine
 10
0.0
 20
-6.0275
 30
0.0
 11
0.36
 21
-6.0275
 31
0.0
  0
LINE
  5
2B6
330
70
100
AcDbEntity
  8
plate-20201117-040118 v19_0
100
AcDbLine
 10
28.215
 20
-5.407499999999998
 30
0.0
 11
28.575
 21
-5.407499999999998
 31
0.0
  0
LINE
  5
2B7
330
70
100
AcDbEntity
  8
plate-20201117-040118 v19_0
100
AcDbLine
 10
28.575
 20
-9.224999999999997
 30
0.0
 11
28.575
 21
-6.027499999999998
 31
0.0
  0
LINE
  5
2B8
330
70
100
AcDbEntity
  8
plate-20201117-040118 v19_0
100
AcDbLine
 10
0.36
 20
-5.387500000000001
 30
0.0
 11
0.0
 21
-5.393520679419157
 31
0.0
  0
LINE
  5
2B9
330
70
100
AcDbEntity
  8
plate-20201117-040118 v19_0
100
AcDbLine
 10
28.575
 20
-6.027499999999998
 30
0.0
 11
28.215
 21
-6.027499999999998
 31
0.0
  0
LINE
  5
2BA
330
70
100
AcDbEntity
  8
plate-20201117-040118 v19_0
100
AcDbLine
 10
28.575
 20
-5.407499999999998
 30
0.0
 11
28.575
 21
-0.2999999999999998
 31
0.0
  0
ARC
  5
2BB
330
70
100
AcDbEntity
  8
plate-20201117-040118 v19_0
100
AcDbCircle
 10
0.36
 20
-5.707500000000001
 30
0.0
 40
0.3199999999999994
100
AcDbArc
 50
270.0
 51
91.91626313703769
  0
ARC
  5
2BC
330
70
100
AcDbEntity
  8
plate-20201117-040118 v19_0
100
AcDbCircle
 10
28.215
 20
-5.717499999999999
 30
0.0
 40
0.3100000000000005
100
AcDbArc
 50
90.0
 51
270.0
  0
ENDSEC
  0
SECTION
  2
OBJECTS
  0
DICTIONARY
  5
C
330
0
100
AcDbDictionary
281
     1
  3
ACAD_COLOR
350
63
  3
ACAD_DETAILVIEWSTYLE
350
6A
  3
ACAD_GROUP
350
D
  3
ACAD_LAYOUT
350
62
  3
ACAD_MATERIAL
350
10
  3
ACAD_MLEADERSTYLE
350
66
  3
ACAD_MLINESTYLE
350
5F
  3
ACAD_PLOTSETTINGS
350
61
  3
ACAD_PLOTSTYLENAME
350
E
  3
ACAD_SCALELIST
350
42
  3
ACAD_SECTIONVIEWSTYLE
350
68
  3
ACAD_TABLESTYLE
350
64
  3
ACAD_VISUALSTYLE
350
29
  3
ACDB_RECOMPOSE_DATA
350
2C5
  3
AcDbVariableDictionary
350
2BD
  0
DICTIONARY
  5
63
102
{ACAD_REACTORS
330
C
102
}
330
C
100
AcDbDictionary
281
     1
  0
DICTIONARY
  5
6A
102
{ACAD_REACTORS
330
C
102
}
330
C
100
AcDbDictionary
281
     1
  3
Imperial24
350
6B
  0
DICTIONARY
  5
D
102
{ACAD_REACTORS
330
C
102
}
330
C
100
AcDbDictionary
281
     1
  0
DICTIONARY
  5
62
102
{ACAD_REACTORS
330
C
102
}
330
C
100
AcDbDictionary
281
     1
  3
Layout1
350
6F
  3
Layout2
350
77
  3
Model
350
73
  0
DICTIONARY
  5
10
102
{ACAD_REACTORS
330
C
102
}
330
C
100
AcDbDictionary
281
     1
  3
ByBlock
350
19
  3
ByLayer
350
11
  3
Global
350
21
  0
DICTIONARY
  5
66
102
{ACAD_REACTORS
330
C
102
}
330
C
100
AcDbDictionary
281
     1
  3
Standard
350
67
  0
DICTIONARY
  5
5F
102
{ACAD_REACTORS
330
C
102
}
330
C
100
AcDbDictionary
281
     1
  3
Standard
350
60
  0
DICTIONARY
  5
61
102
{ACAD_REACTORS
330
C
102
}
330
C
100
AcDbDictionary
281
     1
  0
ACDBDICTIONARYWDFLT
  5
E
102
{ACAD_REACTORS
330
C
102
}
330
C
100
AcDbDictionary
281
     1
  3
Normal
350
F
100
AcDbDictionaryWithDefault
340
F
  0
DICTIONARY
  5
42
102
{ACAD_REACTORS
330
C
102
}
330
C
100
AcDbDictionary
281
     1
  3
A0
350
43
  3
A1
350
44
  3
A2
350
45
  3
A3
350
46
  3
A4
350
47
  3
A5
350
48
  3
A6
350
49
  3
A7
350
4A
  3
A8
350
4B
  3
A9
350
4C
  3
B0
350
4D
  3
B1
350
4E
  3
B2
350
4F
  3
B3
350
50
  3
B4
350
51
  3
B5
350
52
  3
B6
350
53
  0
DICTIONARY
  5
68
102
{ACAD_REACTORS
330
C
102
}
330
C
100
AcDbDictionary
281
     1
  3
Imperial24
350
69
  0
DICTIONARY
  5
64
102
{ACAD_REACTORS
330
C
102
}
330
C
100
AcDbDictionary
281
     1
  3
Standard
350
65
  0
DICTIONARY
  5
29
102
{ACAD_REACTORS
330
C
102
}
330
C
100
AcDbDictionary
281
     1
  3
2dWireframe
350
2F
  3
Basic
350
2E
  3
Brighten
350
35
  3
ColorChange
350
39
  3
Conceptual
350
32
  3
Dim
350
34
  3
EdgeColorOff
350
41
  3
Facepattern
350
38
  3
Flat
350
2A
  3
FlatWithEdges
350
2B
  3
Gouraud
350
2C
  3
GouraudWithEdges
350
2D
  3
Hidden
350
31
  3
JitterOff
350
3F
  3
Linepattern
350
37
  3
OverhangOff
350
40
  3
Realistic
350
33
  3
Shaded
350
3E
  3
Shaded with edges
350
3D
  3
Shades of Gray
350
3A
  3
Sketchy
350
3B
  3
Thicken
350
36
  3
Wireframe
350
30
  3
X-Ray
350
3C
  0
XRECORD
  5
2C5
102
{ACAD_REACTORS
330
C
102
}
330
C
100
AcDbXrecord
280
     1
 90
        1
330
65
  0
DICTIONARY
  5
2BD
102
{ACAD_REACTORS
330
C
102
}
330
C
100
AcDbDictionary
281
     1
  3
CANNOSCALE
350
2C2
  3
CMLEADERSTYLE
350
2BF
  3
CTABLESTYLE
350
2BE
  3
CVIEWDETAILSTYLE
350
2C0
  3
CVIEWSECTIONSTYLE
350
2C1
  0
ACDBDETAILVIEWSTYLE
  5
6B
102
{ACAD_XDICTIONARY
360
2C8
102
}
102
{ACAD_REACTORS
330
6A
102
}
330
6A
100
AcDbModelDocViewStyle
 70
     0
  3
Imperial24
290
     0
100
AcDbDetailViewStyle
 70
     0
 71
     0
 90
        3
 71
     1
340
55
 62
   256
 40
0.24
340
0
 62
   256
 40
0.24
300

 40
0.36
280
     3
 71
     2
340
5D
 90
       25
 62
   256
 71
     3
340
55
 62
   256
 40
0.24
 90
        1
 40
0.75
 90
        1
300
%<\AcVar ViewType \f "%tc1">% %<\AcVar ViewDetailId>%\PSCALE %<\AcVar ViewScale \f "%sn">%
 71
     4
340
5D
 90
       25
 62
   256
340
5D
 90
       25
 62
   256
280
     0
  0
LAYOUT
  5
6F
102
{ACAD_REACTORS
330
62
102
}
330
62
100
AcDbPlotSettings
  1

  2

  4

  6

 40
0.0
 41
0.0
 42
0.0
 43
0.0
 44
0.0
 45
0.0
 46
0.0
 47
0.0
 48
0.0
 49
0.0
140
0.0
141
0.0
142
1.0
143
1.0
 70
   688
 72
     0
 73
     0
 74
     5
  7

 75
    16
147
1.0
 76
     0
 77
     2
 78
   300
148
0.0
149
0.0
100
AcDbLayout
  1
Layout1
 70
     1
 71
     1
 10
0.0
 20
0.0
 11
12.0
 21
9.0
 12
0.0
 22
0.0
 32
0.0
 14
0.0
 24
0.0
 34
0.0
 15
0.0
 25
0.0
 35
0.0
146
0.0
 13
0.0
 23
0.0
 33
0.0
 16
1.0
 26
0.0
 36
0.0
 17
0.0
 27
1.0
 37
0.0
 76
     0
330
6C
  0
LAYOUT
  5
77
102
{ACAD_REACTORS
330
62
102
}
330
62
100
AcDbPlotSettings
  1

  2

  4

  6

 40
0.0
 41
0.0
 42
0.0
 43
0.0
 44
0.0
 45
0.0
 46
0.0
 47
0.0
 48
0.0
 49
0.0
140
0.0
141
0.0
142
1.0
143
1.0
 70
   688
 72
     0
 73
     0
 74
     5
  7

 75
    16
147
1.0
 76
     0
 77
     2
 78
   300
148
0.0
149
0.0
100
AcDbLayout
  1
Layout2
 70
     1
 71
     2
 10
0.0
 20
0.0
 11
12.0
 21
9.0
 12
0.0
 22
0.0
 32
0.0
 14
0.0
 24
0.0
 34
0.0
 15
0.0
 25
0.0
 35
0.0
146
0.0
 13
0.0
 23
0.0
 33
0.0
 16
1.0
 26
0.0
 36
0.0
 17
0.0
 27
1.0
 37
0.0
 76
     0
330
74
  0
LAYOUT
  5
73
102
{ACAD_REACTORS
330
62
102
}
330
62
100
AcDbPlotSettings
  1

  2

  4

  6

 40
0.0
 41
0.0
 42
0.0
 43
0.0
 44
0.0
 45
0.0
 46
0.0
 47
0.0
 48
0.0
 49
0.0
140
0.0
141
0.0
142
1.0
143
1.0
 70
  1712
 72
     0
 73
     0
 74
     0
  7

 75
     0
147
1.0
 76
     0
 77
     2
 78
   300
148
0.0
149
0.0
100
AcDbLayout
  1
Model
 70
     1
 71
     0
 10
0.0
 20
0.0
 11
12.0
 21
9.0
 12
0.0
 22
0.0
 32
0.0
 14
0.0
 24
0.0
 34
0.0
 15
0.0
 25
0.0
 35
0.0
146
0.0
 13
0.0
 23
0.0
 33
0.0
 16
1.0
 26
0.0
 36
0.0
 17
0.0
 27
1.0
 37
0.0
 76
     0
330
70
  0
MATERIAL
  5
19
102
{ACAD_XDICTIONARY
360
1A
102
}
102
{ACAD_REACTORS
330
10
102
}
330
10
100
AcDbMaterial
  1
ByBlock
 72
     0
 43
0.0208333333333333
 43
0.0
 43
0.0
 43
0.0
 43
0.0
 43
0.0208333333333333
 43
0.0
 43
0.0
 43
0.0
 43
0.0
 43
1.0
 43
0.0
 43
0.0
 43
0.0
 43
0.0
 43
1.0
 77
     0
 47
0.0208333333333333
 47
0.0
 47
0.0
 47
0.0
 47
0.0
 47
0.0208333333333333
 47
0.0
 47
0.0
 47
0.0
 47
0.0
 47
1.0
 47
0.0
 47
0.0
 47
0.0
 47
0.0
 47
1.0
171
     0
 49
0.0208333333333333
 49
0.0
 49
0.0
 49
0.0
 49
0.0
 49
0.0208333333333333
 49
0.0
 49
0.0
 49
0.0
 49
0.0
 49
1.0
 49
0.0
 49
0.0
 49
0.0
 49
0.0
 49
1.0
175
     0
142
0.0208333333333333
142
0.0
142
0.0
142
0.0
142
0.0
142
0.0208333333333333
142
0.0
142
0.0
142
0.0
142
0.0
142
1.0
142
0.0
142
0.0
142
0.0
142
0.0
142
1.0
179
     0
144
0.0208333333333333
144
0.0
144
0.0
144
0.0
144
0.0
144
0.0208333333333333
144
0.0
144
0.0
144
0.0
144
0.0
144
1.0
144
0.0
144
0.0
144
0.0
144
0.0
144
1.0
147
0.0208333333333333
147
0.0
147
0.0
147
0.0
147
0.0
147
0.0208333333333333
147
0.0
147
0.0
147
0.0
147
0.0
147
1.0
147
0.0
147
0.0
147
0.0
147
0.0
147
1.0
  0
MATERIAL
  5
11
102
{ACAD_XDICTIONARY
360
12
102
}
102
{ACAD_REACTORS
330
10
102
}
330
10
100
AcDbMaterial
  1
ByLayer
 72
     0
 43
0.0208333333333333
 43
0.0
 43
0.0
 43
0.0
 43
0.0
 43
0.0208333333333333
 43
0.0
 43
0.0
 43
0.0
 43
0.0
 43
1.0
 43
0.0
 43
0.0
 43
0.0
 43
0.0
 43
1.0
 77
     0
 47
0.0208333333333333
 47
0.0
 47
0.0
 47
0.0
 47
0.0
 47
0.0208333333333333
 47
0.0
 47
0.0
 47
0.0
 47
0.0
 47
1.0
 47
0.0
 47
0.0
 47
0.0
 47
0.0
 47
1.0
171
     0
 49
0.0208333333333333
 49
0.0
 49
0.0
 49
0.0
 49
0.0
 49
0.0208333333333333
 49
0.0
 49
0.0
 49
0.0
 49
0.0
 49
1.0
 49
0.0
 49
0.0
 49
0.0
 49
0.0
 49
1.0
175
     0
142
0.0208333333333333
142
0.0
142
0.0
142
0.0
142
0.0
142
0.0208333333333333
142
0.0
142
0.0
142
0.0
142
0.0
142
1.0
142
0.0
142
0.0
142
0.0
142
0.0
142
1.0
179
     0
144
0.0208333333333333
144
0.0
144
0.0
144
0.0
144
0.0
144
0.0208333333333333
144
0.0
144
0.0
144
0.0
144
0.0
144
1.0
144
0.0
144
0.0
144
0.0
144
0.0
144
1.0
147
0.0208333333333333
147
0.0
147
0.0
147
0.0
147
0.0
147
0.0208333333333333
147
0.0
147
0.0
147
0.0
147
0.0
147
1.0
147
0.0
147
0.0
147
0.0
147
0.0
147
1.0
  0
MATERIAL
  5
21
102
{ACAD_XDICTIONARY
360
22
102
}
102
{ACAD_REACTORS
330
10
102
}
330
10
100
AcDbMaterial
  1
Global
 72
     0
 43
0.0208333333333333
 43
0.0
 43
0.0
 43
0.0
 43
0.0
 43
0.0208333333333333
 43
0.0
 43
0.0
 43
0.0
 43
0.0
 43
1.0
 43
0.0
 43
0.0
 43
0.0
 43
0.0
 43
1.0
 77
     0
 47
0.0208333333333333
 47
0.0
 47
0.0
 47
0.0
 47
0.0
 47
0.0208333333333333
 47
0.0
 47
0.0
 47
0.0
 47
0.0
 47
1.0
 47
0.0
 47
0.0
 47
0.0
 47
0.0
 47
1.0
171
     0
 49
0.0208333333333333
 49
0.0
 49
0.0
 49
0.0
 49
0.0
 49
0.0208333333333333
 49
0.0
 49
0.0
 49
0.0
 49
0.0
 49
1.0
 49
0.0
 49
0.0
 49
0.0
 49
0.0
 49
1.0
175
     0
142
0.0208333333333333
142
0.0
142
0.0
142
0.0
142
0.0
142
0.0208333333333333
142
0.0
142
0.0
142
0.0
142
0.0
142
1.0
142
0.0
142
0.0
142
0.0
142
0.0
142
1.0
179
     0
144
0.0208333333333333
144
0.0
144
0.0
144
0.0
144
0.0
144
0.0208333333333333
144
0.0
144
0.0
144
0.0
144
0.0
144
1.0
144
0.0
144
0.0
144
0.0
144
0.0
144
1.0
147
0.0208333333333333
147
0.0
147
0.0
147
0.0
147
0.0
147
0.0208333333333333
147
0.0
147
0.0
147
0.0
147
0.0
147
1.0
147
0.0
147
0.0
147
0.0
147
0.0
147
1.0
  0
MLEADERSTYLE
  5
67
102
{ACAD_REACTORS
330
66
102
}
330
66
100
AcDbMLeaderStyle
179
     2
170
     2
171
     1
172
     0
 90
        2
 40
0.0
 41
0.0
173
     1
 91
-1056964608
340
5B
 92
       -2
290
     1
 42
0.09
291
     1
 43
0.36
  3
Standard
 44
0.18
300

342
55
174
     1
178
     6
175
     1
176
     0
 93
-1056964608
 45
0.18
292
     0
297
     0
 46
0.18
 94
-1056964608
 47
1.0
 49
1.0
140
1.0
293
     1
141
0.0
294
     1
177
     0
142
1.0
295
     0
296
     0
143
0.125
271
     0
272
     9
273
     9
298
     1
  0
MLINESTYLE
  5
60
102
{ACAD_REACTORS
330
5F
102
}
330
5F
100
AcDbMlineStyle
  2
STANDARD
 70
     0
  3

 62
   256
 51
90.0
 52
90.0
 71
     2
 49
0.5
 62
   256
  6
BYLAYER
 49
-0.5
 62
   256
  6
BYLAYER
  0
ACDBPLACEHOLDER
  5
F
102
{ACAD_REACTORS
330
E
102
}
330
E
  0
SCALE
  5
43
102
{ACAD_REACTORS
330
42
102
}
330
42
100
AcDbScale
 70
     0
300
1:1
140
1.0
141
1.0
290
     1
  0
SCALE
  5
44
102
{ACAD_REACTORS
330
42
102
}
330
42
100
AcDbScale
 70
     0
300
1/128" = 1'-0"
140
0.0078125
141
12.0
290
     0
  0
SCALE
  5
45
102
{ACAD_REACTORS
330
42
102
}
330
42
100
AcDbScale
 70
     0
300
1/64" = 1'-0"
140
0.015625
141
12.0
290
     0
  0
SCALE
  5
46
102
{ACAD_REACTORS
330
42
102
}
330
42
100
AcDbScale
 70
     0
300
1/32" = 1'-0"
140
0.03125
141
12.0
290
     0
  0
SCALE
  5
47
102
{ACAD_REACTORS
330
42
102
}
330
42
100
AcDbScale
 70
     0
300
1/16" = 1'-0"
140
0.0625
141
12.0
290
     0
  0
SCALE
  5
48
102
{ACAD_REACTORS
330
42
102
}
330
42
100
AcDbScale
 70
     0
300
3/32" = 1'-0"
140
0.09375
141
12.0
290
     0
  0
SCALE
  5
49
102
{ACAD_REACTORS
330
42
102
}
330
42
100
AcDbScale
 70
     0
300
1/8" = 1'-0"
140
0.125
141
12.0
290
     0
  0
SCALE
  5
4A
102
{ACAD_REACTORS
330
42
102
}
330
42
100
AcDbScale
 70
     0
300
3/16" = 1'-0"
140
0.1875
141
12.0
290
     0
  0
SCALE
  5
4B
102
{ACAD_REACTORS
330
42
102
}
330
42
100
AcDbScale
 70
     0
300
1/4" = 1'-0"
140
0.25
141
12.0
290
     0
  0
SCALE
  5
4C
102
{ACAD_REACTORS
330
42
102
}
330
42
100
AcDbScale
 70
     0
300
3/8" = 1'-0"
140
0.375
141
12.0
290
     0
  0
SCALE
  5
4D
102
{ACAD_REACTORS
330
42
102
}
330
42
100
AcDbScale
 70
     0
300
1/2" = 1'-0"
140
0.5
141
12.0
290
     0
  0
SCALE
  5
4E
102
{ACAD_REACTORS
330
42
102
}
330
42
100
AcDbScale
 70
     0
300
3/4" = 1'-0"
140
0.75
141
12.0
290
     0
  0
SCALE
  5
4F
102
{ACAD_REACTORS
330
42
102
}
330
42
100
AcDbScale
 70
     0
300
1" = 1'-0"
140
1.0
141
12.0
290
     0
  0
SCALE
  5
50
102
{ACAD_REACTORS
330
42
102
}
330
42
100
AcDbScale
 70
     0
300
1-1/2" = 1'-0"
140
1.5
141
12.0
290
     0
  0
SCALE
  5
51
102
{ACAD_REACTORS
330
42
102
}
330
42
100
AcDbScale
 70
     0
300
3" = 1'-0"
140
3.0
141
12.0
290
     0
  0
SCALE
  5
52
102
{ACAD_REACTORS
330
42
102
}
330
42
100
AcDbScale
 70
     0
300
6" = 1'-0"
140
6.0
141
12.0
290
     0
  0
SCALE
  5
53
102
{ACAD_REACTORS
330
42
102
}
330
42
100
AcDbScale
 70
     0
300
1'-0" = 1'-0"
140
12.0
141
12.0
290
     0
  0
ACDBSECTIONVIEWSTYLE
  5
69
102
{ACAD_XDICTIONARY
360
2C6
102
}
102
{ACAD_REACTORS
330
68
102
}
330
68
100
AcDbModelDocViewStyle
 70
     0
  3
Imperial24
290
     0
100
AcDbSectionViewStyle
 70
     0
 71
     0
 90
       78
 71
     1
340
55
 62
   256
 40
0.24
340
0
340
0
 62
   256
 40
0.24
300
I, O, Q, S, X, Z
 40
0.48
 90
        3
 40
0.18
 90
        1
 71
     2
340
5D
 90
       25
 62
   256
340
5D
 90
       50
 62
   256
 40
0.24
 40
0.0
 40
0.24
 71
     3
340
55
 62
   256
 40
0.24
 90
        1
 40
0.75
 90
        1
300
%<\AcVar ViewType \f "%tc1">% %<\AcVar ViewSectionStartId>%-%<\AcVar ViewSectionEndId>%\PSCALE %<\AcVar ViewScale \f "%sn">%
 71
     4
 62
   256
 62
   257
300
ANSI31
 40
1.0
 90
        0
290
     0
290
     0
 90
        6
 40
0.0
 40
1.570796326794896
 40
0.2617993877991494
 40
1.308996938995747
 40
-0.2617993877991494
 40
1.832595714594046
  0
TABLESTYLE
  5
65
102
{ACAD_XDICTIONARY
360
2C3
102
}
102
{ACAD_REACTORS
330
64
102
}
330
64
100
AcDbTableStyle
280
     0
  3
Standard
 70
     0
 71
     0
 40
0.06
 41
0.06
280
     0
281
     0
  7
Standard
140
0.18
170
     2
 62
     0
 63
     7
283
     0
 90
      512
 91
        0
  1

274
    -2
284
     1
 64
     0
275
    -2
285
     1
 65
     0
276
    -2
286
     1
 66
     0
277
    -2
287
     1
 67
     0
278
    -2
288
     1
 68
     0
279
    -2
289
     1
 69
     0
  7
Standard
140
0.25
170
     5
 62
     0
 63
     7
283
     0
 90
      512
 91
        0
  1

274
    -2
284
     1
 64
     0
275
    -2
285
     1
 65
     0
276
    -2
286
     1
 66
     0
277
    -2
287
     1
 67
     0
278
    -2
288
     1
 68
     0
279
    -2
289
     1
 69
     0
  7
Standard
140
0.18
170
     5
 62
     0
 63
     7
283
     0
 90
      512
 91
        0
  1

274
    -2
284
     1
 64
     0
275
    -2
285
     1
 65
     0
276
    -2
286
     1
 66
     0
277
    -2
287
     1
 67
     0
278
    -2
288
     1
 68
     0
279
    -2
289
     1
 69
     0
  0
VISUALSTYLE
  5
2F
102
{ACAD_REACTORS
330
29
102
}
330
29
100
AcDbVisualStyle
  2
2dWireframe
 70
     4
177
     3
291
     0
 70
    58
 90
        0
176
     1
 90
        2
176
     1
 90
        0
176
     1
 90
        0
176
     1
 40
0.6
176
     1
 40
30.0
176
     1
 62
     7
420
 16777215
176
     1
 90
        1
176
     1
 90
        4
176
     1
 62
     7
176
     1
 62
   257
176
     1
 90
        1
176
     1
 90
        1
176
     1
 40
1.0
176
     1
 90
        0
176
     1
 62
   257
176
     1
 40
1.0
176
     1
 90
        1
176
     1
 90
        6
176
     1
 90
        2
176
     1
 62
     7
176
     1
 90
        5
176
     1
 90
        0
176
     1
 90
        0
176
     1
290
     0
176
     1
 90
        1
176
     1
 40
0.0
176
     1
 90
        0
176
     1
290
     1
176
     1
290
     1
176
     1
290
     0
176
     1
290
     0
176
     1
290
     0
176
     1
290
     0
176
     1
290
     0
176
     1
290
     0
176
     1
290
     0
176
     1
 90
       50
176
     1
 40
0.0
176
     1
 40
1.0
176
     1
 90
        0
176
     1
 62
    18
420
        0
176
     1
 90
       50
176
     1
 90
        3
176
     1
 62
     5
420
      255
176
     1
290
     0
176
     1
 90
       50
176
     1
 90
       50
176
     1
 90
       50
176
     1
290
     0
176
     1
 90
       50
176
     1
 62
   256
176
     0
 40
1.0
176
     0
 90
        2
176
     1
  1
strokes_ogs.tif
176
     1
290
     0
176
     1
 40
1.0
176
     1
 40
1.0
176
     1
1001
ACAD
1000
AcDbSavedByObjectVersion
1070
     0
  0
VISUALSTYLE
  5
2E
102
{ACAD_REACTORS
330
29
102
}
330
29
100
AcDbVisualStyle
  2
Basic
 70
     7
177
     3
291
     1
 70
    58
 90
        1
176
     1
 90
        0
176
     1
 90
        1
176
     1
 90
        0
176
     1
 40
0.6
176
     1
 40
30.0
176
     1
 62
     7
420
 16777215
176
     1
 90
        0
176
     1
 90
        4
176
     1
 62
     7
176
     1
 62
   257
176
     1
 90
        1
176
     1
 90
        1
176
     1
 40
1.0
176
     1
 90
        8
176
     1
 62
     7
176
     1
 40
1.0
176
     1
 90
        1
176
     1
 90
        6
176
     1
 90
        2
176
     1
 62
     7
176
     1
 90
        5
176
     1
 90
        0
176
     1
 90
        0
176
     1
290
     0
176
     1
 90
        1
176
     1
 40
0.0
176
     1
 90
        0
176
     1
290
     0
176
     1
290
     1
176
     1
290
     1
176
     1
290
     0
176
     1
290
     0
176
     1
290
     0
176
     1
290
     0
176
     1
290
     0
176
     1
290
     0
176
     1
 90
       50
176
     1
 40
0.0
176
     1
 40
1.0
176
     1
 90
        0
176
     1
 62
    18
420
        0
176
     1
 90
       50
176
     1
 90
        3
176
     1
 62
     5
420
      255
176
     1
290
     0
176
     1
 90
       50
176
     1
 90
       50
176
     1
 90
       50
176
     1
290
     0
176
     1
 90
       50
176
     1
 62
   256
176
     0
 40
1.0
176
     0
 90
        2
176
     1
  1
strokes_ogs.tif
176
     1
290
     0
176
     1
 40
1.0
176
     1
 40
1.0
176
     1
1001
ACAD
1000
AcDbSavedByObjectVersion
1070
     0
  0
VISUALSTYLE
  5
35
102
{ACAD_REACTORS
330
29
102
}
330
29
100
AcDbVisualStyle
  2
Brighten
 70
    12
177
     3
291
     1
 70
    58
 90
        2
176
     1
 90
        2
176
     1
 90
        0
176
     1
 90
        0
176
     1
 40
0.6
176
     1
 40
30.0
176
     1
 62
     7
420
 16777215
176
     1
 90
        1
176
     1
 90
        4
176
     1
 62
     7
176
     1
 62
   257
176
     1
 90
        1
176
     1
 90
        1
176
     1
 40
1.0
176
     1
 90
        8
176
     1
 62
     7
176
     1
 40
1.0
176
     1
 90
        1
176
     1
 90
        6
176
     1
 90
        2
176
     1
 62
     7
176
     1
 90
        5
176
     1
 90
        0
176
     1
 90
        0
176
     1
290
     0
176
     1
 90
        1
176
     1
 40
50.0
176
     1
 90
        0
176
     1
290
     0
176
     1
290
     1
176
     1
290
     1
176
     1
290
     0
176
     1
290
     0
176
     1
290
     0
176
     1
290
     0
176
     1
290
     0
176
     1
290
     0
176
     1
 90
       50
176
     1
 40
0.0
176
     1
 40
1.0
176
     1
 90
        0
176
     1
 62
    18
420
        0
176
     1
 90
       50
176
     1
 90
        3
176
     1
 62
     5
420
      255
176
     1
290
     0
176
     1
 90
       50
176
     1
 90
       50
176
     1
 90
       50
176
     1
290
     0
176
     1
 90
       50
176
     1
 62
   256
176
     0
 40
1.0
176
     0
 90
        2
176
     1
  1
strokes_ogs.tif
176
     1
290
     0
176
     1
 40
1.0
176
     1
 40
1.0
176
     1
1001
ACAD
1000
AcDbSavedByObjectVersion
1070
     0
  0
VISUALSTYLE
  5
39
102
{ACAD_REACTORS
330
29
102
}
330
29
100
AcDbVisualStyle
  2
ColorChange
 70
    16
177
     3
291
     1
 70
    58
 90
        2
176
     1
 90
        2
176
     1
 90
        3
176
     1
 90
        0
176
     1
 40
0.6
176
     1
 40
30.0
176
     1
 62
     8
420
  8421504
176
     1
 90
        1
176
     1
 90
        4
176
     1
 62
     7
176
     1
 62
   257
176
     1
 90
        1
176
     1
 90
        1
176
     1
 40
1.0
176
     1
 90
        8
176
     1
 62
     8
420
  8421504
176
     1
 40
1.0
176
     1
 90
        1
176
     1
 90
        6
176
     1
 90
        2
176
     1
 62
     7
176
     1
 90
        5
176
     1
 90
        0
176
     1
 90
        0
176
     1
290
     0
176
     1
 90
        1
176
     1
 40
0.0
176
     1
 90
        0
176
     1
290
     0
176
     1
290
     1
176
     1
290
     1
176
     1
290
     0
176
     1
290
     0
176
     1
290
     0
176
     1
290
     0
176
     1
290
     0
176
     1
290
     0
176
     1
 90
       50
176
     1
 40
0.0
176
     1
 40
1.0
176
     1
 90
        0
176
     1
 62
    18
420
        0
176
     1
 90
       50
176
     1
 90
        3
176
     1
 62
     5
420
      255
176
     1
290
     0
176
     1
 90
       50
176
     1
 90
       50
176
     1
 90
       50
176
     1
290
     0
176
     1
 90
       50
176
     1
 62
   256
176
     0
 40
1.0
176
     0
 90
        2
176
     1
  1
strokes_ogs.tif
176
     1
290
     0
176
     1
 40
1.0
176
     1
 40
1.0
176
     1
1001
ACAD
1000
AcDbSavedByObjectVersion
1070
     0
  0
VISUALSTYLE
  5
32
102
{ACAD_REACTORS
330
29
102
}
330
29
100
AcDbVisualStyle
  2
Conceptual
 70
     9
177
     3
291
     0
 70
    58
 90
        3
176
     1
 90
        2
176
     1
 90
        0
176
     1
 90
        0
176
     1
 40
0.6
176
     1
 40
30.0
176
     1
 62
     7
420
 16777215
176
     1
 90
        2
176
     1
 90
        2
176
     1
 62
     7
176
     1
 62
   257
176
     1
 90
        1
176
     1
 90
        1
176
     1
 40
179.0
176
     1
 90
        8
176
     1
 62
     7
176
     1
 40
1.0
176
     1
 90
        1
176
     1
 90
        6
176
     1
 90
        2
176
     1
 62
     7
176
     1
 90
        3
176
     1
 90
        0
176
     1
 90
        0
176
     1
290
     0
176
     1
 90
        1
176
     1
 40
0.0
176
     1
 90
        0
176
     1
290
     0
176
     1
290
     1
176
     1
290
     1
176
     1
290
     0
176
     1
290
     0
176
     1
290
     0
176
     1
290
     0
176
     1
290
     0
176
     1
290
     0
176
     1
 90
       50
176
     1
 40
0.0
176
     1
 40
1.0
176
     1
 90
        0
176
     1
 62
    18
420
        0
176
     1
 90
       50
176
     1
 90
        3
176
     1
 62
     5
420
      255
176
     1
290
     0
176
     1
 90
       50
176
     1
 90
       50
176
     1
 90
       50
176
     1
290
     0
176
     1
 90
       50
176
     1
 62
   256
176
     0
 40
1.0
176
     0
 90
        2
176
     1
  1
strokes_ogs.tif
176
     1
290
     0
176
     1
 40
1.0
176
     1
 40
1.0
176
     1
1001
ACAD
1000
AcDbSavedByObjectVersion
1070
     0
  0
VISUALSTYLE
  5
34
102
{ACAD_REACTORS
330
29
102
}
330
29
100
AcDbVisualStyle
  2
Dim
 70
    11
177
     3
291
     1
 70
    58
 90
        2
176
     1
 90
        2
176
     1
 90
        0
176
     1
 90
        0
176
     1
 40
0.6
176
     1
 40
30.0
176
     1
 62
     7
420
 16777215
176
     1
 90
        1
176
     1
 90
        4
176
     1
 62
     7
176
     1
 62
   257
176
     1
 90
        1
176
     1
 90
        1
176
     1
 40
1.0
176
     1
 90
        8
176
     1
 62
     7
176
     1
 40
1.0
176
     1
 90
        1
176
     1
 90
        6
176
     1
 90
        2
176
     1
 62
     7
176
     1
 90
        5
176
     1
 90
        0
176
     1
 90
        0
176
     1
290
     0
176
     1
 90
        1
176
     1
 40
-50.0
176
     1
 90
        0
176
     1
290
     0
176
     1
290
     1
176
     1
290
     1
176
     1
290
     0
176
     1
290
     0
176
     1
290
     0
176
     1
290
     0
176
     1
290
     0
176
     1
290
     0
176
     1
 90
       50
176
     1
 40
0.0
176
     1
 40
1.0
176
     1
 90
        0
176
     1
 62
    18
420
        0
176
     1
 90
       50
176
     1
 90
        3
176
     1
 62
     5
420
      255
176
     1
290
     0
176
     1
 90
       50
176
     1
 90
       50
176
     1
 90
       50
176
     1
290
     0
176
     1
 90
       50
176
     1
 62
   256
176
     0
 40
1.0
176
     0
 90
        2
176
     1
  1
strokes_ogs.tif
176
     1
290
     0
176
     1
 40
1.0
176
     1
 40
1.0
176
     1
1001
ACAD
1000
AcDbSavedByObjectVersion
1070
     0
  0
VISUALSTYLE
  5
41
102
{ACAD_REACTORS
330
29
102
}
330
29
100
AcDbVisualStyle
  2
EdgeColorOff
 70
    22
177
     3
291
     1
 70
    58
 90
        2
176
     0
 90
        2
176
     0
 90
        0
176
     0
 90
        0
176
     0
 40
0.6
176
     0
 40
30.0
176
     0
 62
     7
420
 16777215
176
     0
 90
        1
176
     0
 90
        4
176
     0
 62
     7
176
     0
 62
   257
176
     0
 90
        1
176
     0
 90
        1
176
     0
 40
1.0
176
     0
 90
        8
176
     2
 62
     7
176
     0
 40
1.0
176
     0
 90
        1
176
     0
 90
        6
176
     0
 90
        2
176
     0
 62
     7
176
     0
 90
        5
176
     0
 90
        0
176
     0
 90
        0
176
     0
290
     0
176
     0
 90
        1
176
     0
 40
0.0
176
     0
 90
        0
176
     0
290
     0
176
     0
290
     1
176
     0
290
     1
176
     0
290
     0
176
     0
290
     0
176
     0
290
     0
176
     0
290
     0
176
     0
290
     0
176
     0
290
     0
176
     0
 90
       50
176
     0
 40
0.0
176
     0
 40
1.0
176
     0
 90
        0
176
     0
 62
    18
420
        0
176
     0
 90
       50
176
     0
 90
        3
176
     0
 62
     5
420
      255
176
     0
290
     0
176
     0
 90
       50
176
     0
 90
       50
176
     0
 90
       50
176
     0
290
     0
176
     0
 90
       50
176
     0
 62
   256
176
     0
 40
1.0
176
     0
 90
        2
176
     0
  1
strokes_ogs.tif
176
     0
290
     0
176
     0
 40
1.0
176
     0
 40
1.0
176
     0
1001
ACAD
1000
AcDbSavedByObjectVersion
1070
     0
  0
VISUALSTYLE
  5
38
102
{ACAD_REACTORS
330
29
102
}
330
29
100
AcDbVisualStyle
  2
Facepattern
 70
    15
177
     3
291
     1
 70
    58
 90
        2
176
     1
 90
        2
176
     1
 90
        0
176
     1
 90
        0
176
     1
 40
0.6
176
     1
 40
30.0
176
     1
 62
     7
420
 16777215
176
     1
 90
        1
176
     1
 90
        4
176
     1
 62
     7
176
     1
 62
   257
176
     1
 90
        1
176
     1
 90
        1
176
     1
 40
1.0
176
     1
 90
        8
176
     1
 62
     7
176
     1
 40
1.0
176
     1
 90
        1
176
     1
 90
        6
176
     1
 90
        2
176
     1
 62
     7
176
     1
 90
        5
176
     1
 90
        0
176
     1
 90
        0
176
     1
290
     0
176
     1
 90
        1
176
     1
 40
0.0
176
     1
 90
        0
176
     1
290
     0
176
     1
290
     1
176
     1
290
     1
176
     1
290
     0
176
     1
290
     0
176
     1
290
     0
176
     1
290
     0
176
     1
290
     0
176
     1
290
     0
176
     1
 90
       50
176
     1
 40
0.0
176
     1
 40
1.0
176
     1
 90
        0
176
     1
 62
    18
420
        0
176
     1
 90
       50
176
     1
 90
        3
176
     1
 62
     5
420
      255
176
     1
290
     0
176
     1
 90
       50
176
     1
 90
       50
176
     1
 90
       50
176
     1
290
     0
176
     1
 90
       50
176
     1
 62
   256
176
     0
 40
1.0
176
     0
 90
        2
176
     1
  1
strokes_ogs.tif
176
     1
290
     0
176
     1
 40
1.0
176
     1
 40
1.0
176
     1
1001
ACAD
1000
AcDbSavedByObjectVersion
1070
     0
  0
VISUALSTYLE
  5
2A
102
{ACAD_REACTORS
330
29
102
}
330
29
100
AcDbVisualStyle
  2
Flat
 70
     0
177
     3
291
     1
 70
    58
 90
        2
176
     1
 90
        1
176
     1
 90
        1
176
     1
 90
        2
176
     1
 40
0.6
176
     1
 40
30.0
176
     1
 62
     7
420
 16777215
176
     1
 90
        0
176
     1
 90
        0
176
     1
 62
     7
176
     1
 62
   257
176
     1
 90
        1
176
     1
 90
        1
176
     1
 40
1.0
176
     1
 90
        8
176
     1
 62
     7
176
     1
 40
1.0
176
     1
 90
        1
176
     1
 90
        6
176
     1
 90
        2
176
     1
 62
     7
176
     1
 90
        5
176
     1
 90
        0
176
     1
 90
        0
176
     1
290
     0
176
     1
 90
       13
176
     1
 40
0.0
176
     1
 90
        0
176
     1
290
     0
176
     1
290
     1
176
     1
290
     1
176
     1
290
     0
176
     1
290
     0
176
     1
290
     0
176
     1
290
     0
176
     1
290
     0
176
     1
290
     0
176
     1
 90
       50
176
     1
 40
0.0
176
     1
 40
1.0
176
     1
 90
        0
176
     1
 62
    18
420
        0
176
     1
 90
       50
176
     1
 90
        3
176
     1
 62
     5
420
      255
176
     1
290
     0
176
     1
 90
       50
176
     1
 90
       50
176
     1
 90
       50
176
     1
290
     0
176
     1
 90
       50
176
     1
 62
   256
176
     0
 40
1.0
176
     0
 90
        2
176
     1
  1
strokes_ogs.tif
176
     1
290
     0
176
     1
 40
1.0
176
     1
 40
1.0
176
     1
1001
ACAD
1000
AcDbSavedByObjectVersion
1070
     0
  0
VISUALSTYLE
  5
2B
102
{ACAD_REACTORS
330
29
102
}
330
29
100
AcDbVisualStyle
  2
FlatWithEdges
 70
     1
177
     3
291
     1
 70
    58
 90
        2
176
     1
 90
        1
176
     1
 90
        1
176
     1
 90
        2
176
     1
 40
0.6
176
     1
 40
30.0
176
     1
 62
     7
420
 16777215
176
     1
 90
        1
176
     1
 90
        0
176
     1
 62
     7
176
     1
 62
   257
176
     1
 90
        1
176
     1
 90
        1
176
     1
 40
1.0
176
     1
 90
        0
176
     1
 62
   257
176
     1
 40
1.0
176
     1
 90
        1
176
     1
 90
        6
176
     1
 90
        2
176
     1
 62
     7
176
     1
 90
        5
176
     1
 90
        0
176
     1
 90
        0
176
     1
290
     0
176
     1
 90
       13
176
     1
 40
0.0
176
     1
 90
        0
176
     1
290
     0
176
     1
290
     1
176
     1
290
     1
176
     1
290
     0
176
     1
290
     0
176
     1
290
     0
176
     1
290
     0
176
     1
290
     0
176
     1
290
     0
176
     1
 90
       50
176
     1
 40
0.0
176
     1
 40
1.0
176
     1
 90
        0
176
     1
 62
    18
420
        0
176
     1
 90
       50
176
     1
 90
        3
176
     1
 62
     5
420
      255
176
     1
290
     0
176
     1
 90
       50
176
     1
 90
       50
176
     1
 90
       50
176
     1
290
     0
176
     1
 90
       50
176
     1
 62
   256
176
     0
 40
1.0
176
     0
 90
        2
176
     1
  1
strokes_ogs.tif
176
     1
290
     0
176
     1
 40
1.0
176
     1
 40
1.0
176
     1
1001
ACAD
1000
AcDbSavedByObjectVersion
1070
     0
  0
VISUALSTYLE
  5
2C
102
{ACAD_REACTORS
330
29
102
}
330
29
100
AcDbVisualStyle
  2
Gouraud
 70
     2
177
     3
291
     1
 70
    58
 90
        2
176
     1
 90
        2
176
     1
 90
        1
176
     1
 90
        2
176
     1
 40
0.6
176
     1
 40
30.0
176
     1
 62
     7
420
 16777215
176
     1
 90
        0
176
     1
 90
        0
176
     1
 62
     7
176
     1
 62
   257
176
     1
 90
        1
176
     1
 90
        1
176
     1
 40
1.0
176
     1
 90
        0
176
     1
 62
     7
176
     1
 40
1.0
176
     1
 90
        1
176
     1
 90
        6
176
     1
 90
        2
176
     1
 62
     7
176
     1
 90
        5
176
     1
 90
        0
176
     1
 90
        0
176
     1
290
     0
176
     1
 90
       13
176
     1
 40
0.0
176
     1
 90
        0
176
     1
290
     0
176
     1
290
     1
176
     1
290
     1
176
     1
290
     0
176
     1
290
     0
176
     1
290
     0
176
     1
290
     0
176
     1
290
     0
176
     1
290
     0
176
     1
 90
       50
176
     1
 40
0.0
176
     1
 40
1.0
176
     1
 90
        0
176
     1
 62
    18
420
        0
176
     1
 90
       50
176
     1
 90
        3
176
     1
 62
     5
420
      255
176
     1
290
     0
176
     1
 90
       50
176
     1
 90
       50
176
     1
 90
       50
176
     1
290
     0
176
     1
 90
       50
176
     1
 62
   256
176
     0
 40
1.0
176
     0
 90
        2
176
     1
  1
strokes_ogs.tif
176
     1
290
     0
176
     1
 40
1.0
176
     1
 40
1.0
176
     1
1001
ACAD
1000
AcDbSavedByObjectVersion
1070
     0
  0
VISUALSTYLE
  5
2D
102
{ACAD_REACTORS
330
29
102
}
330
29
100
AcDbVisualStyle
  2
GouraudWithEdges
 70
     3
177
     3
291
     1
 70
    58
 90
        2
176
     1
 90
        2
176
     1
 90
        1
176
     1
 90
        2
176
     1
 40
0.6
176
     1
 40
30.0
176
     1
 62
     7
420
 16777215
176
     1
 90
        1
176
     1
 90
        0
176
     1
 62
     7
176
     1
 62
   257
176
     1
 90
        1
176
     1
 90
        1
176
     1
 40
1.0
176
     1
 90
        0
176
     1
 62
   257
176
     1
 40
1.0
176
     1
 90
        1
176
     1
 90
        6
176
     1
 90
        2
176
     1
 62
     7
176
     1
 90
        5
176
     1
 90
        0
176
     1
 90
        0
176
     1
290
     0
176
     1
 90
       13
176
     1
 40
0.0
176
     1
 90
        0
176
     1
290
     0
176
     1
290
     1
176
     1
290
     1
176
     1
290
     0
176
     1
290
     0
176
     1
290
     0
176
     1
290
     0
176
     1
290
     0
176
     1
290
     0
176
     1
 90
       50
176
     1
 40
0.0
176
     1
 40
1.0
176
     1
 90
        0
176
     1
 62
    18
420
        0
176
     1
 90
       50
176
     1
 90
        3
176
     1
 62
     5
420
      255
176
     1
290
     0
176
     1
 90
       50
176
     1
 90
       50
176
     1
 90
       50
176
     1
290
     0
176
     1
 90
       50
176
     1
 62
   256
176
     0
 40
1.0
176
     0
 90
        2
176
     1
  1
strokes_ogs.tif
176
     1
290
     0
176
     1
 40
1.0
176
     1
 40
1.0
176
     1
1001
ACAD
1000
AcDbSavedByObjectVersion
1070
     0
  0
VISUALSTYLE
  5
31
102
{ACAD_REACTORS
330
29
102
}
330
29
100
AcDbVisualStyle
  2
Hidden
 70
     6
177
     3
291
     0
 70
    58
 90
        1
176
     1
 90
        2
176
     1
 90
        2
176
     1
 90
        0
176
     1
 40
0.6
176
     1
 40
30.0
176
     1
 62
     7
420
 16777215
176
     1
 90
        2
176
     1
 90
        2
176
     1
 62
     7
176
     1
 62
   257
176
     1
 90
        2
176
     1
 90
        1
176
     1
 40
40.0
176
     1
 90
        0
176
     1
 62
   257
176
     1
 40
1.0
176
     1
 90
        1
176
     1
 90
        6
176
     1
 90
        2
176
     1
 62
     7
176
     1
 90
        3
176
     1
 90
        0
176
     1
 90
        0
176
     1
290
     0
176
     1
 90
        1
176
     1
 40
0.0
176
     1
 90
        0
176
     1
290
     0
176
     1
290
     1
176
     1
290
     1
176
     1
290
     0
176
     1
290
     0
176
     1
290
     0
176
     1
290
     0
176
     1
290
     0
176
     1
290
     0
176
     1
 90
       50
176
     1
 40
0.0
176
     1
 40
1.0
176
     1
 90
        0
176
     1
 62
    18
420
        0
176
     1
 90
       50
176
     1
 90
        3
176
     1
 62
     5
420
      255
176
     1
290
     0
176
     1
 90
       50
176
     1
 90
       50
176
     1
 90
       50
176
     1
290
     0
176
     1
 90
       50
176
     1
 62
   256
176
     0
 40
1.0
176
     0
 90
        2
176
     1
  1
strokes_ogs.tif
176
     1
290
     0
176
     1
 40
1.0
176
     1
 40
1.0
176
     1
1001
ACAD
1000
AcDbSavedByObjectVersion
1070
     0
  0
VISUALSTYLE
  5
3F
102
{ACAD_REACTORS
330
29
102
}
330
29
100
AcDbVisualStyle
  2
JitterOff
 70
    20
177
     3
291
     1
 70
    58
 90
        2
176
     0
 90
        2
176
     0
 90
        0
176
     0
 90
        0
176
     0
 40
0.6
176
     0
 40
30.0
176
     0
 62
     7
420
 16777215
176
     0
 90
        1
176
     0
 90
        4
176
     0
 62
     7
176
     0
 62
   257
176
     0
 90
        1
176
     0
 90
        1
176
     0
 40
1.0
176
     0
 90
       10
176
     2
 62
     7
176
     0
 40
1.0
176
     0
 90
        1
176
     0
 90
        6
176
     0
 90
        2
176
     0
 62
     7
176
     0
 90
        5
176
     0
 90
        0
176
     0
 90
        0
176
     0
290
     0
176
     0
 90
        1
176
     0
 40
0.0
176
     0
 90
        0
176
     0
290
     0
176
     0
290
     1
176
     0
290
     1
176
     0
290
     0
176
     0
290
     0
176
     0
290
     0
176
     0
290
     0
176
     0
290
     0
176
     0
290
     0
176
     0
 90
       50
176
     0
 40
0.0
176
     0
 40
1.0
176
     0
 90
        0
176
     0
 62
    18
420
        0
176
     0
 90
       50
176
     0
 90
        3
176
     0
 62
     5
420
      255
176
     0
290
     0
176
     0
 90
       50
176
     0
 90
       50
176
     0
 90
       50
176
     0
290
     0
176
     0
 90
       50
176
     0
 62
   256
176
     0
 40
1.0
176
     0
 90
        2
176
     0
  1
strokes_ogs.tif
176
     0
290
     0
176
     0
 40
1.0
176
     0
 40
1.0
176
     0
1001
ACAD
1000
AcDbSavedByObjectVersion
1070
     0
  0
VISUALSTYLE
  5
37
102
{ACAD_REACTORS
330
29
102
}
330
29
100
AcDbVisualStyle
  2
Linepattern
 70
    14
177
     3
291
     1
 70
    58
 90
        2
176
     1
 90
        2
176
     1
 90
        0
176
     1
 90
        0
176
     1
 40
0.6
176
     1
 40
30.0
176
     1
 62
     7
420
 16777215
176
     1
 90
        1
176
     1
 90
        4
176
     1
 62
     7
176
     1
 62
   257
176
     1
 90
        7
176
     1
 90
        7
176
     1
 40
1.0
176
     1
 90
        8
176
     1
 62
     7
176
     1
 40
1.0
176
     1
 90
        1
176
     1
 90
        6
176
     1
 90
        2
176
     1
 62
     7
176
     1
 90
        5
176
     1
 90
        0
176
     1
 90
        0
176
     1
290
     0
176
     1
 90
        1
176
     1
 40
0.0
176
     1
 90
        0
176
     1
290
     0
176
     1
290
     1
176
     1
290
     1
176
     1
290
     0
176
     1
290
     0
176
     1
290
     0
176
     1
290
     0
176
     1
290
     0
176
     1
290
     0
176
     1
 90
       50
176
     1
 40
0.0
176
     1
 40
1.0
176
     1
 90
        0
176
     1
 62
    18
420
        0
176
     1
 90
       50
176
     1
 90
        3
176
     1
 62
     5
420
      255
176
     1
290
     0
176
     1
 90
       50
176
     1
 90
       50
176
     1
 90
       50
176
     1
290
     0
176
     1
 90
       50
176
     1
 62
   256
176
     0
 40
1.0
176
     0
 90
        2
176
     1
  1
strokes_ogs.tif
176
     1
290
     0
176
     1
 40
1.0
176
     1
 40
1.0
176
     1
1001
ACAD
1000
AcDbSavedByObjectVersion
1070
     0
  0
VISUALSTYLE
  5
40
102
{ACAD_REACTORS
330
29
102
}
330
29
100
AcDbVisualStyle
  2
OverhangOff
 70
    21
177
     3
291
     1
 70
    58
 90
        2
176
     0
 90
        2
176
     0
 90
        0
176
     0
 90
        0
176
     0
 40
0.6
176
     0
 40
30.0
176
     0
 62
     7
420
 16777215
176
     0
 90
        1
176
     0
 90
        4
176
     0
 62
     7
176
     0
 62
   257
176
     0
 90
        1
176
     0
 90
        1
176
     0
 40
1.0
176
     0
 90
        9
176
     2
 62
     7
176
     0
 40
1.0
176
     0
 90
        1
176
     0
 90
        6
176
     0
 90
        2
176
     0
 62
     7
176
     0
 90
        5
176
     0
 90
        0
176
     0
 90
        0
176
     0
290
     0
176
     0
 90
        1
176
     0
 40
0.0
176
     0
 90
        0
176
     0
290
     0
176
     0
290
     1
176
     0
290
     1
176
     0
290
     0
176
     0
290
     0
176
     0
290
     0
176
     0
290
     0
176
     0
290
     0
176
     0
290
     0
176
     0
 90
       50
176
     0
 40
0.0
176
     0
 40
1.0
176
     0
 90
        0
176
     0
 62
    18
420
        0
176
     0
 90
       50
176
     0
 90
        3
176
     0
 62
     5
420
      255
176
     0
290
     0
176
     0
 90
       50
176
     0
 90
       50
176
     0
 90
       50
176
     0
290
     0
176
     0
 90
       50
176
     0
 62
   256
176
     0
 40
1.0
176
     0
 90
        2
176
     0
  1
strokes_ogs.tif
176
     0
290
     0
176
     0
 40
1.0
176
     0
 40
1.0
176
     0
1001
ACAD
1000
AcDbSavedByObjectVersion
1070
     0
  0
VISUALSTYLE
  5
33
102
{ACAD_REACTORS
330
29
102
}
330
29
100
AcDbVisualStyle
  2
Realistic
 70
     8
177
     3
291
     0
 70
    58
 90
        2
176
     1
 90
        3
176
     1
 90
        0
176
     1
 90
        2
176
     1
 40
0.6
176
     1
 40
30.0
176
     1
 62
     7
420
 16777215
176
     1
 90
        0
176
     1
 90
        0
176
     1
 62
     7
176
     1
 62
   257
176
     1
 90
        1
176
     1
 90
        1
176
     1
 40
1.0
176
     1
 90
        8
176
     1
 62
   257
176
     1
 40
1.0
176
     1
 90
        1
176
     1
 90
        6
176
     1
 90
        2
176
     1
 62
     7
176
     1
 90
        3
176
     1
 90
        0
176
     1
 90
        0
176
     1
290
     0
176
     1
 90
       13
176
     1
 40
0.0
176
     1
 90
        0
176
     1
290
     0
176
     1
290
     1
176
     1
290
     1
176
     1
290
     0
176
     1
290
     0
176
     1
290
     0
176
     1
290
     0
176
     1
290
     0
176
     1
290
     0
176
     1
 90
       50
176
     1
 40
0.0
176
     1
 40
1.0
176
     1
 90
        0
176
     1
 62
    18
420
        0
176
     1
 90
       50
176
     1
 90
        3
176
     1
 62
     5
420
      255
176
     1
290
     0
176
     1
 90
       50
176
     1
 90
       50
176
     1
 90
       50
176
     1
290
     0
176
     1
 90
       50
176
     1
 62
   256
176
     0
 40
1.0
176
     0
 90
        2
176
     1
  1
strokes_ogs.tif
176
     1
290
     0
176
     1
 40
1.0
176
     1
 40
1.0
176
     1
1001
ACAD
1000
AcDbSavedByObjectVersion
1070
     0
  0
VISUALSTYLE
  5
3E
102
{ACAD_REACTORS
330
29
102
}
330
29
100
AcDbVisualStyle
  2
Shaded
 70
    27
177
     3
291
     0
 70
    58
 90
        2
176
     1
 90
        2
176
     1
 90
        1
176
     1
 90
        2
176
     1
 40
0.6
176
     1
 40
30.0
176
     1
 62
     7
420
 16777215
176
     1
 90
        0
176
     1
 90
        4
176
     1
 62
     7
176
     1
 62
   257
176
     1
 90
        1
176
     1
 90
        1
176
     1
 40
1.0
176
     1
 90
        8
176
     1
 62
   257
176
     1
 40
1.0
176
     1
 90
        1
176
     1
 90
        6
176
     1
 90
        2
176
     1
 62
     8
420
  7895160
176
     1
 90
        3
176
     1
 90
        0
176
     1
 90
        0
176
     1
290
     0
176
     1
 90
        5
176
     1
 40
0.0
176
     1
 90
        0
176
     1
290
     0
176
     1
290
     1
176
     1
290
     1
176
     1
290
     0
176
     1
290
     0
176
     1
290
     0
176
     1
290
     0
176
     1
290
     0
176
     1
290
     0
176
     1
 90
       50
176
     1
 40
0.0
176
     1
 40
1.0
176
     1
 90
        0
176
     1
 62
    18
420
        0
176
     1
 90
       50
176
     1
 90
        3
176
     1
 62
     5
420
      255
176
     1
290
     0
176
     1
 90
       50
176
     1
 90
       50
176
     1
 90
       50
176
     1
290
     0
176
     1
 90
       50
176
     1
 62
   256
176
     0
 40
1.0
176
     0
 90
        2
176
     1
  1
strokes_ogs.tif
176
     1
290
     0
176
     1
 40
1.0
176
     1
 40
1.0
176
     1
1001
ACAD
1000
AcDbSavedByObjectVersion
1070
     0
  0
VISUALSTYLE
  5
3D
102
{ACAD_REACTORS
330
29
102
}
330
29
100
AcDbVisualStyle
  2
Shaded with edges
 70
    26
177
     3
291
     0
 70
    58
 90
        2
176
     1
 90
        2
176
     1
 90
        1
176
     1
 90
        2
176
     1
 40
0.6
176
     1
 40
30.0
176
     1
 62
     7
420
 16777215
176
     1
 90
        1
176
     1
 90
        2
176
     1
 62
     7
176
     1
 62
   257
176
     1
 90
        2
176
     1
 90
        1
176
     1
 40
1.0
176
     1
 90
        8
176
     1
 62
   257
176
     1
 40
1.0
176
     1
 90
        1
176
     1
 90
        6
176
     1
 90
        2
176
     1
 62
     7
176
     1
 90
        3
176
     1
 90
        0
176
     1
 90
        0
176
     1
290
     0
176
     1
 90
        5
176
     1
 40
0.0
176
     1
 90
        0
176
     1
290
     0
176
     1
290
     1
176
     1
290
     1
176
     1
290
     0
176
     1
290
     0
176
     1
290
     0
176
     1
290
     0
176
     1
290
     0
176
     1
290
     0
176
     1
 90
       50
176
     1
 40
0.0
176
     1
 40
1.0
176
     1
 90
        0
176
     1
 62
    18
420
        0
176
     1
 90
       50
176
     1
 90
        3
176
     1
 62
     5
420
      255
176
     1
290
     0
176
     1
 90
       50
176
     1
 90
       50
176
     1
 90
       50
176
     1
290
     0
176
     1
 90
       50
176
     1
 62
   256
176
     0
 40
1.0
176
     0
 90
        2
176
     1
  1
strokes_ogs.tif
176
     1
290
     0
176
     1
 40
1.0
176
     1
 40
1.0
176
     1
1001
ACAD
1000
AcDbSavedByObjectVersion
1070
     0
  0
VISUALSTYLE
  5
3A
102
{ACAD_REACTORS
330
29
102
}
330
29
100
AcDbVisualStyle
  2
Shades of Gray
 70
    23
177
     3
291
     0
 70
    58
 90
        2
176
     1
 90
        2
176
     1
 90
        3
176
     1
 90
        0
176
     1
 40
0.6
176
     1
 40
30.0
176
     1
 62
     7
420
 16777215
176
     1
 90
        2
176
     1
 90
        2
176
     1
 62
     7
176
     1
 62
     7
176
     1
 90
        1
176
     1
 90
        1
176
     1
 40
40.0
176
     1
 90
        8
176
     1
 62
     7
176
     1
 40
1.0
176
     1
 90
        1
176
     1
 90
        6
176
     1
 90
        2
176
     1
 62
     7
176
     1
 90
        3
176
     1
 90
        0
176
     1
 90
        0
176
     1
290
     0
176
     1
 90
        1
176
     1
 40
0.0
176
     1
 90
        0
176
     1
290
     0
176
     1
290
     1
176
     1
290
     1
176
     1
290
     0
176
     1
290
     0
176
     1
290
     0
176
     1
290
     0
176
     1
290
     0
176
     1
290
     0
176
     1
 90
       50
176
     1
 40
0.0
176
     1
 40
1.0
176
     1
 90
        0
176
     1
 62
    18
420
        0
176
     1
 90
       50
176
     1
 90
        3
176
     1
 62
     5
420
      255
176
     1
290
     0
176
     1
 90
       50
176
     1
 90
       50
176
     1
 90
       50
176
     1
290
     0
176
     1
 90
       50
176
     1
 62
   256
176
     0
 40
1.0
176
     0
 90
        2
176
     1
  1
strokes_ogs.tif
176
     1
290
     0
176
     1
 40
1.0
176
     1
 40
1.0
176
     1
1001
ACAD
1000
AcDbSavedByObjectVersion
1070
     0
  0
VISUALSTYLE
  5
3B
102
{ACAD_REACTORS
330
29
102
}
330
29
100
AcDbVisualStyle
  2
Sketchy
 70
    24
177
     3
291
     0
 70
    58
 90
        1
176
     1
 90
        2
176
     1
 90
        2
176
     1
 90
        0
176
     1
 40
0.6
176
     1
 40
30.0
176
     1
 62
     7
420
 16777215
176
     1
 90
        2
176
     1
 90
        2
176
     1
 62
     7
176
     1
 62
     7
176
     1
 90
        1
176
     1
 90
        1
176
     1
 40
40.0
176
     1
 90
       11
176
     1
 62
     7
176
     1
 40
1.0
176
     1
 90
        1
176
     1
 90
        6
176
     1
 90
        2
176
     1
 62
     7
176
     1
 90
        6
176
     1
 90
        0
176
     1
 90
        0
176
     1
290
     0
176
     1
 90
        1
176
     1
 40
0.0
176
     1
 90
        0
176
     1
290
     0
176
     1
290
     1
176
     1
290
     1
176
     1
290
     0
176
     1
290
     0
176
     1
290
     0
176
     1
290
     0
176
     1
290
     0
176
     1
290
     0
176
     1
 90
       50
176
     1
 40
0.0
176
     1
 40
1.0
176
     1
 90
        0
176
     1
 62
    18
420
        0
176
     1
 90
       50
176
     1
 90
        3
176
     1
 62
     5
420
      255
176
     1
290
     0
176
     1
 90
       50
176
     1
 90
       50
176
     1
 90
       50
176
     1
290
     0
176
     1
 90
       50
176
     1
 62
   256
176
     0
 40
1.0
176
     0
 90
        2
176
     1
  1
strokes_ogs.tif
176
     1
290
     0
176
     1
 40
1.0
176
     1
 40
1.0
176
     1
1001
ACAD
1000
AcDbSavedByObjectVersion
1070
     0
  0
VISUALSTYLE
  5
36
102
{ACAD_REACTORS
330
29
102
}
330
29
100
AcDbVisualStyle
  2
Thicken
 70
    13
177
     3
291
     1
 70
    58
 90
        2
176
     1
 90
        2
176
     1
 90
        0
176
     1
 90
        0
176
     1
 40
0.6
176
     1
 40
30.0
176
     1
 62
     7
420
 16777215
176
     1
 90
        1
176
     1
 90
        4
176
     1
 62
     7
176
     1
 62
   257
176
     1
 90
        1
176
     1
 90
        1
176
     1
 40
1.0
176
     1
 90
       12
176
     1
 62
     7
176
     1
 40
1.0
176
     1
 90
        1
176
     1
 90
        6
176
     1
 90
        2
176
     1
 62
     7
176
     1
 90
        5
176
     1
 90
        0
176
     1
 90
        0
176
     1
290
     0
176
     1
 90
        1
176
     1
 40
0.0
176
     1
 90
        0
176
     1
290
     0
176
     1
290
     1
176
     1
290
     1
176
     1
290
     0
176
     1
290
     0
176
     1
290
     0
176
     1
290
     0
176
     1
290
     0
176
     1
290
     0
176
     1
 90
       50
176
     1
 40
0.0
176
     1
 40
1.0
176
     1
 90
        0
176
     1
 62
    18
420
        0
176
     1
 90
       50
176
     1
 90
        3
176
     1
 62
     5
420
      255
176
     1
290
     0
176
     1
 90
       50
176
     1
 90
       50
176
     1
 90
       50
176
     1
290
     0
176
     1
 90
       50
176
     1
 62
   256
176
     0
 40
1.0
176
     0
 90
        2
176
     1
  1
strokes_ogs.tif
176
     1
290
     0
176
     1
 40
1.0
176
     1
 40
1.0
176
     1
1001
ACAD
1000
AcDbSavedByObjectVersion
1070
     0
  0
VISUALSTYLE
  5
30
102
{ACAD_REACTORS
330
29
102
}
330
29
100
AcDbVisualStyle
  2
Wireframe
 70
     5
177
     3
291
     0
 70
    58
 90
        0
176
     1
 90
        2
176
     1
 90
        0
176
     1
 90
        0
176
     1
 40
0.6
176
     1
 40
30.0
176
     1
 62
     7
420
 16777215
176
     1
 90
        1
176
     1
 90
        4
176
     1
 62
     7
176
     1
 62
   257
176
     1
 90
        1
176
     1
 90
        1
176
     1
 40
1.0
176
     1
 90
        0
176
     1
 62
   257
176
     1
 40
1.0
176
     1
 90
        1
176
     1
 90
        6
176
     1
 90
        2
176
     1
 62
     7
176
     1
 90
        3
176
     1
 90
        0
176
     1
 90
        0
176
     1
290
     0
176
     1
 90
        1
176
     1
 40
0.0
176
     1
 90
        0
176
     1
290
     0
176
     1
290
     1
176
     1
290
     1
176
     1
290
     0
176
     1
290
     0
176
     1
290
     0
176
     1
290
     0
176
     1
290
     0
176
     1
290
     0
176
     1
 90
       50
176
     1
 40
0.0
176
     1
 40
1.0
176
     1
 90
        0
176
     1
 62
    18
420
        0
176
     1
 90
       50
176
     1
 90
        3
176
     1
 62
     5
420
      255
176
     1
290
     0
176
     1
 90
       50
176
     1
 90
       50
176
     1
 90
       50
176
     1
290
     0
176
     1
 90
       50
176
     1
 62
   256
176
     0
 40
1.0
176
     0
 90
        2
176
     1
  1
strokes_ogs.tif
176
     1
290
     0
176
     1
 40
1.0
176
     1
 40
1.0
176
     1
1001
ACAD
1000
AcDbSavedByObjectVersion
1070
     0
  0
VISUALSTYLE
  5
3C
102
{ACAD_REACTORS
330
29
102
}
330
29
100
AcDbVisualStyle
  2
X-Ray
 70
    25
177
     3
291
     0
 70
    58
 90
        2
176
     1
 90
        2
176
     1
 90
        1
176
     1
 90
        1
176
     1
 40
0.5
176
     1
 40
30.0
176
     1
 62
     7
420
 16777215
176
     1
 90
        1
176
     1
 90
        0
176
     1
 62
     7
176
     1
 62
   257
176
     1
 90
        1
176
     1
 90
        1
176
     1
 40
1.0
176
     1
 90
        8
176
     1
 62
     7
176
     1
 40
1.0
176
     1
 90
        1
176
     1
 90
        6
176
     1
 90
        2
176
     1
 62
     7
176
     1
 90
        3
176
     1
 90
        0
176
     1
 90
        0
176
     1
290
     0
176
     1
 90
       13
176
     1
 40
0.0
176
     1
 90
        0
176
     1
290
     0
176
     1
290
     1
176
     1
290
     1
176
     1
290
     0
176
     1
290
     0
176
     1
290
     0
176
     1
290
     0
176
     1
290
     0
176
     1
290
     0
176
     1
 90
       50
176
     1
 40
0.0
176
     1
 40
1.0
176
     1
 90
        0
176
     1
 62
    18
420
        0
176
     1
 90
       50
176
     1
 90
        3
176
     1
 62
     5
420
      255
176
     1
290
     0
176
     1
 90
       50
176
     1
 90
       50
176
     1
 90
       50
176
     1
290
     0
176
     1
 90
       50
176
     1
 62
   256
176
     0
 40
1.0
176
     0
 90
        2
176
     1
  1
strokes_ogs.tif
176
     1
290
     0
176
     1
 40
1.0
176
     1
 40
1.0
176
     1
1001
ACAD
1000
AcDbSavedByObjectVersion
1070
     0
  0
DICTIONARYVAR
  5
2C2
102
{ACAD_REACTORS
330
2BD
102
}
330
2BD
100
DictionaryVariables
280
     0
  1
1:1
  0
DICTIONARYVAR
  5
2BF
102
{ACAD_REACTORS
330
2BD
102
}
330
2BD
100
DictionaryVariables
280
     0
  1
STANDARD
  0
DICTIONARYVAR
  5
2BE
102
{ACAD_REACTORS
330
2BD
102
}
330
2BD
100
DictionaryVariables
280
     0
  1
STANDARD
  0
DICTIONARYVAR
  5
2C0
102
{ACAD_REACTORS
330
2BD
102
}
330
2BD
100
DictionaryVariables
280
     0
  1
Imperial24
  0
DICTIONARYVAR
  5
2C1
102
{ACAD_REACTORS
330
2BD
102
}
330
2BD
100
DictionaryVariables
280
     0
  1
Imperial24
  0
DICTIONARY
  5
2C8
330
6B
100
AcDbDictionary
280
     1
281
     1
  3
ACAD_XREC_ROUNDTRIP
360
2C9
  0
DICTIONARY
  5
1A
330
19
100
AcDbDictionary
280
     1
281
     1
  3
BUMPTILE
360
1C
  3
DIFFUSETILE
360
1B
  3
OPACITYTILE
360
1F
  3
REFLECTIONTILE
360
1E
  3
REFRACTIONTILE
360
20
  3
SPECULARTILE
360
1D
  0
DICTIONARY
  5
12
330
11
100
AcDbDictionary
280
     1
281
     1
  3
BUMPTILE
360
14
  3
DIFFUSETILE
360
13
  3
OPACITYTILE
360
17
  3
REFLECTIONTILE
360
16
  3
REFRACTIONTILE
360
18
  3
SPECULARTILE
360
15
  0
DICTIONARY
  5
22
330
21
100
AcDbDictionary
280
     1
281
     1
  3
BUMPTILE
360
24
  3
DIFFUSETILE
360
23
  3
OPACITYTILE
360
27
  3
REFLECTIONTILE
360
26
  3
REFRACTIONTILE
360
28
  3
SPECULARTILE
360
25
  0
DICTIONARY
  5
2C6
330
69
100
AcDbDictionary
280
     1
281
     1
  3
ACAD_XREC_ROUNDTRIP
360
2C7
  0
DICTIONARY
  5
2C3
330
65
100
AcDbDictionary
280
     1
281
     1
  3
ACAD_ROUNDTRIP_2008_TABLESTYLE_CELLSTYLEMAP
360
2C4
  0
XRECORD
  5
2C9
102
{ACAD_REACTORS
330
2C8
102
}
330
2C8
100
AcDbXrecord
280
     1
102
DISPLAYNAME
  1
Imperial24
102
FLAGS
 90
        0
  0
XRECORD
  5
1C
102
{ACAD_REACTORS
330
1A
102
}
330
1A
100
AcDbXrecord
280
     1
270
     1
271
     1
  0
XRECORD
  5
1B
102
{ACAD_REACTORS
330
1A
102
}
330
1A
100
AcDbXrecord
280
     1
270
     1
271
     1
  0
XRECORD
  5
1F
102
{ACAD_REACTORS
330
1A
102
}
330
1A
100
AcDbXrecord
280
     1
270
     1
271
     1
  0
XRECORD
  5
1E
102
{ACAD_REACTORS
330
1A
102
}
330
1A
100
AcDbXrecord
280
     1
270
     1
271
     1
  0
XRECORD
  5
20
102
{ACAD_REACTORS
330
1A
102
}
330
1A
100
AcDbXrecord
280
     1
270
     1
271
     1
  0
XRECORD
  5
1D
102
{ACAD_REACTORS
330
1A
102
}
330
1A
100
AcDbXrecord
280
     1
270
     1
271
     1
  0
XRECORD
  5
14
102
{ACAD_REACTORS
330
12
102
}
330
12
100
AcDbXrecord
280
     1
270
     1
271
     1
  0
XRECORD
  5
13
102
{ACAD_REACTORS
330
12
102
}
330
12
100
AcDbXrecord
280
     1
270
     1
271
     1
  0
XRECORD
  5
17
102
{ACAD_REACTORS
330
12
102
}
330
12
100
AcDbXrecord
280
     1
270
     1
271
     1
  0
XRECORD
  5
16
102
{ACAD_REACTORS
330
12
102
}
330
12
100
AcDbXrecord
280
     1
270
     1
271
     1
  0
XRECORD
  5
18
102
{ACAD_REACTORS
330
12
102
}
330
12
100
AcDbXrecord
280
     1
270
     1
271
     1
  0
XRECORD
  5
15
102
{ACAD_REACTORS
330
12
102
}
330
12
100
AcDbXrecord
280
     1
270
     1
271
     1
  0
XRECORD
  5
24
102
{ACAD_REACTORS
330
22
102
}
330
22
100
AcDbXrecord
280
     1
270
     1
271
     1
  0
XRECORD
  5
23
102
{ACAD_REACTORS
330
22
102
}
330
22
100
AcDbXrecord
280
     1
270
     1
271
     1
  0
XRECORD
  5
27
102
{ACAD_REACTORS
330
22
102
}
330
22
100
AcDbXrecord
280
     1
270
     1
271
     1
  0
XRECORD
  5
26
102
{ACAD_REACTORS
330
22
102
}
330
22
100
AcDbXrecord
280
     1
270
     1
271
     1
  0
XRECORD
  5
28
102
{ACAD_REACTORS
330
22
102
}
330
22
100
AcDbXrecord
280
     1
270
     1
271
     1
  0
XRECORD
  5
25
102
{ACAD_REACTORS
330
22
102
}
330
22
100
AcDbXrecord
280
     1
270
     1
271
     1
  0
XRECORD
  5
2C7
102
{ACAD_REACTORS
330
2C6
102
}
330
2C6
100
AcDbXrecord
280
     1
102
DISPLAYNAME
  1
Imperial24
102
FLAGS
 90
        0
  0
CELLSTYLEMAP
  5
2C4
102
{ACAD_REACTORS
330
2C3
102
}
330
2C3
100
AcDbCellStyleMap
 90
        3
300
CELLSTYLE
  1
TABLEFORMAT_BEGIN
 90
        5
170
     1
 91
        0
 92
    32768
 62
   257
 93
        1
300
CONTENTFORMAT
  1
CONTENTFORMAT_BEGIN
 90
        0
 91
        0
 92
      512
 93
        0
300

 40
0.0
140
1.0
 94
        5
 62
     0
340
55
144
0.25
309
CONTENTFORMAT_END
171
     0
 94
        0
309
TABLEFORMAT_END
  1
CELLSTYLE_BEGIN
 90
        1
 91
        1
300
_TITLE
309
CELLSTYLE_END
300
CELLSTYLE
  1
TABLEFORMAT_BEGIN
 90
        5
170
     1
 91
        0
 92
        0
 62
   257
 93
        1
300
CONTENTFORMAT
  1
CONTENTFORMAT_BEGIN
 90
        0
 91
        0
 92
      512
 93
        0
300

 40
0.0
140
1.0
 94
        5
 62
     0
340
55
144
0.18
309
CONTENTFORMAT_END
171
     0
 94
        0
309
TABLEFORMAT_END
  1
CELLSTYLE_BEGIN
 90
        2
 91
        1
300
_HEADER
309
CELLSTYLE_END
300
CELLSTYLE
  1
TABLEFORMAT_BEGIN
 90
        5
170
     1
 91
        0
 92
        0
 62
   257
 93
        1
300
CONTENTFORMAT
  1
CONTENTFORMAT_BEGIN
 90
        0
 91
        0
 92
      512
 93
        0
300

 40
0.0
140
1.0
 94
        2
 62
     0
340
55
144
0.18
309
CONTENTFORMAT_END
171
     0
 94
        0
309
TABLEFORMAT_END
  1
CELLSTYLE_BEGIN
 90
        3
 91
        2
300
_DATA
309
CELLSTYLE_END
  0
ENDSEC
  0
EOF
