0
SECTION
2
HEADER
9
$INSUNITS
70
4
9
$ACADVER
1
AC1014
9
$HANDSEED
5
FFFF
0
ENDSEC
0
SECTION
2
TABLES
0
TABLE
2
VPORT
5
8
100
AcDbSymbolTable
0
ENDTAB
0
TABLE
2
LTYPE
5
5
100
AcDbSymbolTable
0
LTYPE
5
14
100
AcDbSymbolTableRecord
100
AcDbLinetypeTableRecord
2
BYBLOCK
70
0
0
LTYPE
5
15
100
AcDbSymbolTableRecord
100
AcDbLinetypeTableRecord
2
BYLAYER
70
0
0
ENDTAB
0
TABLE
2
LAYER
5
2
100
AcDbSymbolTable
70
2
0
LAYER
5
50
100
AcDbSymbolTableRecord
100
AcDbLayerTableRecord
2
0
70
0
6
CONTINUOUS
0
ENDTAB
0
TABLE
2
STYLE
5
3
100
AcDbSymbolTable
70
1
0
STYLE
5
11
100
AcDbSymbolTableRecord
100
AcDbTextStyleTableRecord
2
STANDARD
70
0
0
ENDTAB
0
TABLE
2
VIEW
5
6
100
AcDbSymbolTable
70
0
0
ENDTAB
0
TABLE
2
UCS
5
7
100
AcDbSymbolTable
70
0
0
ENDTAB
0
TABLE
2
APPID
5
9
100
AcDbSymbolTable
70
2
0
APPID
5
12
100
AcDbSymbolTableRecord
100
AcDbRegAppTableRecord
2
ACAD
70
0
0
ENDTAB
0
TABLE
2
DIMSTYLE
5
A
100
AcDbSymbolTable
70
1
0
ENDTAB
0
TABLE
2
BLOCK_RECORD
5
1
100
AcDbSymbolTable
70
1
0
BLOCK_RECORD
5
1F
100
AcDbSymbolTableRecord
100
AcDbBlockTableRecord
2
*MODEL_SPACE
0
BLOCK_RECORD
5
1B
100
AcDbSymbolTableRecord
100
AcDbBlockTableRecord
2
*PAPER_SPACE
0
ENDTAB
0
ENDSEC
0
SECTION
2
BLOCKS
0
BLOCK
5
20
100
AcDbEntity
100
AcDbBlockBegin
2
*MODEL_SPACE
0
ENDBLK
5
21
100
AcDbEntity
100
AcDbBlockEnd
0
BLOCK
5
1C
100
AcDbEntity
100
AcDbBlockBegin
2
*PAPER_SPACE
0
ENDBLK
5
1D
100
AcDbEntity
100
AcDbBlockEnd
0
ENDSEC
0
SECTION
2
ENTITIES
0
LWPOLYLINE
5
100
100
AcDbEntity
8
0
100
AcDbPolyline
90
8
70
1
43
0.0
10
216.58750000000001
20
-15.925000000000008
42
-0.41421356237309503
10
216.08750000000001
20
-15.425000000000001
10
216.08750000000001
20
-3.625
42
-0.41421356237309503
10
216.58750000000001
20
-3.125
10
231.08750000000001
20
-3.1249999999999929
42
-0.41421356237309503
10
231.58750000000001
20
-3.6250000000000004
10
231.58750000000001
20
-15.425000000000001
42
-0.41421356237309503
10
231.08750000000001
20
-15.925000000000001
0
LWPOLYLINE
5
101
100
AcDbEntity
8
0
100
AcDbPolyline
90
8
70
1
43
0.0
10
92.974999999999994
20
-54.024999999999991
10
78.474999999999994
20
-54.024999999999999
42
-0.41421356237309503
10
77.975000000000009
20
-53.524999999999999
10
77.975000000000009
20
-41.725000000000001
42
-0.41421356237309503
10
78.474999999999994
20
-41.224999999999994
10
92.974999999999994
20
-41.224999999999994
42
-0.41421356237309503
10
93.474999999999994
20
-41.725000000000001
10
93.474999999999994
20
-53.524999999999999
42
-0.41421356237309503
0
LWPOLYLINE
5
102
100
AcDbEntity
8
0
100
AcDbPolyline
90
8
70
1
43
0.0
10
235.63749999999999
20
-15.925000000000008
42
-0.41421356237309503
10
235.13749999999999
20
-15.425000000000001
10
235.13749999999999
20
-3.625
42
-0.41421356237309503
10
235.63749999999999
20
-3.125
10
250.13750000000002
20
-3.1249999999999929
42
-0.41421356237309503
10
250.63749999999999
20
-3.6250000000000004
10
250.63750000000002
20
-15.425000000000001
42
-0.41421356237309503
10
250.13750000000002
20
-15.925000000000001
0
LWPOLYLINE
5
103
100
AcDbEntity
8
0
100
AcDbPolyline
90
8
70
1
43
0.0
10
276.33125000000001
20
-15.925000000000001
10
261.83125000000001
20
-15.925000000000008
42
-0.41421356237309503
10
261.33125000000013
20
-15.425000000000001
10
261.33125000000001
20
-3.625
42
-0.41421356237309503
10
261.83125000000001
20
-3.125
10
276.33125000000001
20
-3.1249999999999929
42
-0.41421356237309503
10
276.83125000000001
20
-3.6250000000000004
10
276.83125000000001
20
-15.425000000000001
42
-0.41421356237309503
0
LWPOLYLINE
5
104
100
AcDbEntity
8
0
100
AcDbPolyline
90
8
70
1
43
0.0
10
97.524999999999991
20
-54.025000000000006
42
-0.41421356237309503
10
97.024999999999991
20
-53.524999999999999
10
97.025000000000006
20
-41.725000000000001
42
-0.41421356237309503
10
97.524999999999991
20
-41.225000000000009
10
112.02500000000001
20
-41.224999999999994
42
-0.41421356237309503
10
112.52500000000001
20
-41.725000000000001
10
112.52500000000001
20
-53.524999999999999
42
-0.41421356237309503
10
112.02500000000001
20
-54.024999999999999
0
LWPOLYLINE
5
105
100
AcDbEntity
8
0
100
AcDbPolyline
90
8
70
1
43
0.0
10
83.950000000000017
20
-72.575000000000003
10
83.950000000000017
20
-60.774999999999999
42
0.41421356237309503
10
83.450000000000003
20
-60.274999999999999
10
68.949999999999989
20
-60.274999999999999
42
0.41421356237309503
10
68.450000000000003
20
-60.774999999999999
10
68.450000000000003
20
-72.575000000000003
42
0.41421356237309503
10
68.949999999999989
20
-73.075000000000003
10
83.450000000000003
20
-73.075000000000003
42
0.41421356237309503
0
LWPOLYLINE
5
106
100
AcDbEntity
8
0
100
AcDbPolyline
90
8
70
1
43
0.0
10
264.92500000000001
20
-53.524999999999999
10
264.92500000000001
20
-41.725000000000001
42
0.41421356237309503
10
264.42500000000001
20
-41.224999999999994
10
249.92500000000001
20
-41.225000000000009
42
0.41421356237309503
10
249.42499999999998
20
-41.725000000000001
10
249.42499999999998
20
-53.524999999999999
42
0.41421356237309503
10
249.92500000000001
20
-54.025000000000006
10
264.42500000000001
20
-54.024999999999999
42
0.41421356237309503
0
LWPOLYLINE
5
107
100
AcDbEntity
8
0
100
AcDbPolyline
90
8
70
1
43
0.0
10
30.850000000000001
20
-73.075000000000003
42
-0.41421356237309503
10
30.350000000000001
20
-72.575000000000003
10
30.350000000000001
20
-60.774999999999999
42
-0.41421356237309503
10
30.850000000000001
20
-60.274999999999999
10
45.350000000000001
20
-60.274999999999999
42
-0.41421356237309503
10
45.850000000000001
20
-60.774999999999999
10
45.850000000000001
20
-72.575000000000003
42
-0.41421356237309503
10
45.350000000000001
20
-73.075000000000003
0
LWPOLYLINE
5
108
100
AcDbEntity
8
0
100
AcDbPolyline
90
8
70
1
43
0.0
10
207.27499999999998
20
-41.224999999999994
10
192.77500000000001
20
-41.225000000000009
42
0.41421356237309503
10
192.27499999999998
20
-41.725000000000001
10
192.27499999999998
20
-53.524999999999999
42
0.41421356237309503
10
192.77500000000001
20
-54.024999999999991
10
207.27499999999998
20
-54.024999999999999
42
0.41421356237309503
10
207.77500000000001
20
-53.524999999999999
10
207.77500000000001
20
-41.725000000000001
42
0.41421356237309503
0
LWPOLYLINE
5
109
100
AcDbEntity
8
0
100
AcDbPolyline
90
8
70
1
43
0.0
10
131.57499999999999
20
-53.524999999999999
42
-0.41421356237309503
10
131.07499999999999
20
-54.024999999999999
10
116.575
20
-54.025000000000006
42
-0.41421356237309503
10
116.075
20
-53.524999999999999
10
116.07500000000002
20
-41.725000000000001
42
-0.41421356237309503
10
116.575
20
-41.224999999999994
10
131.07499999999999
20
-41.224999999999994
42
-0.41421356237309503
10
131.57500000000002
20
-41.725000000000001
0
LWPOLYLINE
5
110
100
AcDbEntity
8
0
100
AcDbPolyline
90
8
70
1
43
0.0
10
64.900000000000006
20
-72.575000000000003
42
-0.41421356237309503
10
64.400000000000006
20
-73.075000000000003
10
49.900000000000006
20
-73.075000000000003
42
-0.41421356237309503
10
49.400000000000006
20
-72.575000000000003
10
49.400000000000006
20
-60.774999999999999
42
-0.41421356237309503
10
49.900000000000006
20
-60.274999999999999
10
64.400000000000006
20
-60.274999999999999
42
-0.41421356237309503
10
64.900000000000006
20
-60.774999999999999
0
LWPOLYLINE
5
111
100
AcDbEntity
8
0
100
AcDbPolyline
90
8
70
1
43
0.0
10
230.37499999999997
20
-41.725000000000001
42
-0.41421356237309503
10
230.875
20
-41.225000000000009
10
245.375
20
-41.224999999999994
42
-0.41421356237309503
10
245.87500000000003
20
-41.725000000000001
10
245.87500000000003
20
-53.524999999999999
42
-0.41421356237309503
10
245.375
20
-54.024999999999999
10
230.875
20
-54.025000000000006
42
-0.41421356237309503
10
230.37499999999997
20
-53.524999999999999
0
LWPOLYLINE
5
112
100
AcDbEntity
8
0
100
AcDbPolyline
90
8
70
1
43
0.0
10
211.82500000000002
20
-54.025000000000006
42
-0.41421356237309503
10
211.32499999999999
20
-53.524999999999999
10
211.32499999999999
20
-41.725000000000001
42
-0.41421356237309503
10
211.82500000000002
20
-41.225000000000009
10
226.32499999999999
20
-41.224999999999994
42
-0.41421356237309503
10
226.82500000000002
20
-41.725000000000001
10
226.82500000000002
20
-53.524999999999999
42
-0.41421356237309503
10
226.32499999999999
20
-54.024999999999991
0
LWPOLYLINE
5
113
100
AcDbEntity
8
0
100
AcDbPolyline
90
8
70
1
43
0.0
10
6.5375000000000005
20
-72.575000000000003
10
6.5375000000000014
20
-60.774999999999999
42
-0.41421356237309503
10
7.0374999999999988
20
-60.274999999999999
10
21.537500000000001
20
-60.274999999999999
42
-0.41421356237309503
10
22.037499999999998
20
-60.774999999999999
10
22.037499999999998
20
-72.575000000000003
42
-0.41421356237309503
10
21.537500000000001
20
-73.075000000000003
10
7.0374999999999996
20
-73.075000000000003
42
-0.41421356237309503
0
LWPOLYLINE
5
114
100
AcDbEntity
8
0
100
AcDbPolyline
90
8
70
1
43
0.0
10
150.125
20
-41.224999999999994
10
135.625
20
-41.225000000000009
42
0.41421356237309503
10
135.125
20
-41.725000000000001
10
135.125
20
-53.524999999999999
42
0.41421356237309503
10
135.625
20
-54.025000000000006
10
150.125
20
-54.024999999999999
42
0.41421356237309503
10
150.62499999999997
20
-53.524999999999999
10
150.625
20
-41.725000000000001
42
0.41421356237309503
0
LWPOLYLINE
5
115
100
AcDbEntity
8
0
100
AcDbPolyline
90
8
70
1
43
0.0
10
87.5
20
-72.575000000000003
10
87.5
20
-60.774999999999999
42
-0.41421356237309503
10
88
20
-60.274999999999991
10
102.5
20
-60.274999999999991
42
-0.41421356237309503
10
103
20
-60.774999999999999
10
103
20
-72.575000000000003
42
-0.41421356237309503
10
102.5
20
-73.075000000000003
10
88
20
-73.075000000000017
42
-0.41421356237309503
0
LWPOLYLINE
5
116
100
AcDbEntity
8
0
100
AcDbPolyline
90
8
70
1
43
0.0
10
169.67500000000001
20
-53.524999999999999
42
-0.41421356237309503
10
169.17500000000001
20
-54.024999999999999
10
154.67499999999998
20
-54.025000000000006
42
-0.41421356237309503
10
154.17500000000001
20
-53.524999999999999
10
154.17500000000001
20
-41.725000000000001
42
-0.41421356237309503
10
154.67499999999998
20
-41.224999999999994
10
169.17500000000001
20
-41.224999999999994
42
-0.41421356237309503
10
169.67500000000001
20
-41.725000000000001
0
LWPOLYLINE
5
117
100
AcDbEntity
8
0
100
AcDbPolyline
90
8
70
1
43
0.0
10
236.35000000000002
20
-72.575000000000003
10
236.35000000000002
20
-60.774999999999999
42
0.41421356237309503
10
235.85000000000002
20
-60.274999999999999
10
221.35000000000002
20
-60.274999999999999
42
0.41421356237309503
10
220.85000000000002
20
-60.774999999999999
10
220.85000000000002
20
-72.575000000000003
42
0.41421356237309503
10
221.35000000000002
20
-73.075000000000003
10
235.85000000000002
20
-73.075000000000003
42
0.41421356237309503
0
LWPOLYLINE
5
118
100
AcDbEntity
8
0
100
AcDbPolyline
90
8
70
1
43
0.0
10
274.60249999999996
20
-75.259999999999991
10
274.60249999999996
20
-71.050000000000011
42
-0.41421356237309503
10
275.10249999999996
20
-70.549999999999997
10
276.77250000000004
20
-70.549999999999997
42
-0.41421356237309503
10
277.27250000000004
20
-71.050000000000011
10
277.27250000000004
20
-75.259999999999991
42
-0.41421356237309503
10
276.77250000000004
20
-75.760000000000005
10
275.10249999999996
20
-75.760000000000005
42
-0.41421356237309503
0
LWPOLYLINE
5
119
100
AcDbEntity
8
0
100
AcDbPolyline
90
8
70
1
43
0.0
10
216.8000000000001
20
-60.274999999999999
10
202.30000000000013
20
-60.274999999999999
42
0.41421356237309503
10
201.8000000000001
20
-60.774999999999999
10
201.8000000000001
20
-72.575000000000003
42
0.41421356237309503
10
202.30000000000013
20
-73.075000000000003
10
216.8000000000001
20
-73.075000000000003
42
0.41421356237309503
10
217.30000000000013
20
-72.575000000000003
10
217.30000000000013
20
-60.774999999999999
42
0.41421356237309503
0
LWPOLYLINE
5
120
100
AcDbEntity
8
0
100
AcDbPolyline
90
8
70
1
43
0.0
10
21.537500000000001
20
-92.125
10
7.0374999999999996
20
-92.125
42
-0.41421356237309503
10
6.5375000000000005
20
-91.625
10
6.5375000000000014
20
-79.825000000000003
42
-0.41421356237309503
10
7.0374999999999988
20
-79.325000000000003
10
21.537500000000001
20
-79.325000000000003
42
-0.41421356237309503
10
22.037499999999991
20
-79.825000000000003
10
22.037500000000009
20
-91.625
42
-0.41421356237309503
0
LWPOLYLINE
5
121
100
AcDbEntity
8
0
100
AcDbPolyline
90
8
70
1
43
0.0
10
140.59999999999999
20
-73.075000000000003
10
126.09999999999999
20
-73.075000000000017
42
-0.41421356237309503
10
125.59999999999999
20
-72.575000000000003
10
125.59999999999999
20
-60.774999999999999
42
-0.41421356237309503
10
126.09999999999999
20
-60.274999999999991
10
140.59999999999999
20
-60.274999999999991
42
-0.41421356237309503
10
141.10000000000002
20
-60.774999999999999
10
141.09999999999999
20
-72.575000000000003
42
-0.41421356237309503
0
LWPOLYLINE
5
122
100
AcDbEntity
8
0
100
AcDbPolyline
90
8
70
1
43
0.0
10
173.72499999999999
20
-54.025000000000006
42
-0.41421356237309503
10
173.22499999999997
20
-53.524999999999999
10
173.22499999999997
20
-41.725000000000001
42
-0.41421356237309503
10
173.72499999999999
20
-41.225000000000009
10
188.22500000000002
20
-41.224999999999994
42
-0.41421356237309503
10
188.72499999999999
20
-41.725000000000001
10
188.72500000000002
20
-53.524999999999999
42
-0.41421356237309503
10
188.22500000000002
20
-54.024999999999991
0
LWPOLYLINE
5
123
100
AcDbEntity
8
0
100
AcDbPolyline
90
8
70
1
43
0.0
10
269.6875
20
-72.575000000000003
10
269.6875
20
-60.774999999999999
42
0.41421356237309503
10
269.1875
20
-60.274999999999991
10
254.6875
20
-60.274999999999999
42
0.41421356237309503
10
254.1875
20
-60.774999999999999
10
254.1875
20
-72.575000000000003
42
0.41421356237309503
10
254.6875
20
-73.075000000000017
10
269.1875
20
-73.075000000000003
42
0.41421356237309503
0
LWPOLYLINE
5
124
100
AcDbEntity
8
0
100
AcDbPolyline
90
8
70
1
43
0.0
10
164.20000000000002
20
-73.075000000000017
42
-0.41421356237309503
10
163.70000000000002
20
-72.575000000000003
10
163.70000000000002
20
-60.774999999999999
42
-0.41421356237309503
10
164.20000000000002
20
-60.274999999999999
10
178.70000000000002
20
-60.274999999999991
42
-0.41421356237309503
10
179.20000000000002
20
-60.774999999999999
10
179.20000000000002
20
-72.575000000000003
42
-0.41421356237309503
10
178.70000000000002
20
-73.075000000000003
0
LWPOLYLINE
5
125
100
AcDbEntity
8
0
100
AcDbPolyline
90
8
70
1
43
0.0
10
122.04999999999998
20
-72.575000000000003
42
-0.41421356237309503
10
121.55
20
-73.075000000000003
10
107.05
20
-73.075000000000017
42
-0.41421356237309503
10
106.55
20
-72.575000000000003
10
106.55000000000001
20
-60.774999999999999
42
-0.41421356237309503
10
107.05
20
-60.274999999999999
10
121.55
20
-60.274999999999991
42
-0.41421356237309503
10
122.05
20
-60.774999999999999
0
LWPOLYLINE
5
126
100
AcDbEntity
8
0
100
AcDbPolyline
90
8
70
1
43
0.0
10
144.65000000000001
20
-60.774999999999999
42
-0.41421356237309503
10
145.15000000000001
20
-60.274999999999999
10
159.65000000000001
20
-60.275000000000027
42
-0.41421356237309503
10
160.15000000000001
20
-60.774999999999999
10
160.15000000000001
20
-72.575000000000003
42
-0.41421356237309503
10
159.65000000000001
20
-73.075000000000003
10
145.15000000000001
20
-73.075000000000017
42
-0.41421356237309503
10
144.65000000000001
20
-72.575000000000003
0
LWPOLYLINE
5
127
100
AcDbEntity
8
0
100
AcDbPolyline
90
8
70
1
43
0.0
10
47.731250000000003
20
-79.325000000000003
10
33.231250000000003
20
-79.325000000000003
42
0.41421356237309503
10
32.731249999999996
20
-79.825000000000003
10
32.731250000000003
20
-91.625
42
0.41421356237309503
10
33.231250000000003
20
-92.124999999999986
10
47.731250000000003
20
-92.125
42
0.41421356237309503
10
48.231250000000003
20
-91.625
10
48.231250000000003
20
-79.825000000000003
42
0.41421356237309503
0
LWPOLYLINE
5
128
100
AcDbEntity
8
0
100
AcDbPolyline
90
8
70
1
43
0.0
10
183.25
20
-73.075000000000017
42
-0.41421356237309503
10
182.75
20
-72.575000000000003
10
182.75
20
-60.774999999999999
42
-0.41421356237309503
10
183.25
20
-60.274999999999991
10
197.75
20
-60.274999999999991
42
-0.41421356237309503
10
198.25
20
-60.774999999999999
10
198.25
20
-72.575000000000003
42
-0.41421356237309503
10
197.75
20
-73.075000000000003
0
LWPOLYLINE
5
129
100
AcDbEntity
8
0
100
AcDbPolyline
90
8
70
1
43
0.0
10
246.60250000000002
20
-75.259999999999991
10
246.60249999999996
20
-71.050000000000011
42
-0.41421356237309503
10
247.10249999999999
20
-70.550000000000011
10
248.77250000000009
20
-70.549999999999997
42
-0.41421356237309503
10
249.27250000000012
20
-71.050000000000011
10
249.27250000000012
20
-75.259999999999991
42
-0.41421356237309503
10
248.77250000000009
20
-75.759999999999991
10
247.10249999999999
20
-75.760000000000005
42
-0.41421356237309503
0
LWPOLYLINE
5
130
100
AcDbEntity
8
0
100
AcDbPolyline
90
8
70
1
43
0.0
10
59.42499999999999
20
-54.024999999999999
42
-0.41421356237309503
10
58.92499999999999
20
-53.524999999999999
10
58.92499999999999
20
-41.725000000000001
42
-0.41421356237309503
10
59.42499999999999
20
-41.225000000000009
10
73.924999999999997
20
-41.225000000000009
42
-0.41421356237309503
10
74.424999999999997
20
-41.725000000000001
10
74.424999999999997
20
-53.524999999999999
42
-0.41421356237309503
10
73.924999999999997
20
-54.024999999999999
0
LWPOLYLINE
5
131
100
AcDbEntity
8
0
100
AcDbPolyline
90
8
70
1
43
0.0
10
187.52500000000001
20
-94.675000000000026
42
-0.41421356237309503
10
187.02500000000001
20
-94.175000000000026
10
187.02500000000001
20
-90.075000000000003
42
-0.41421356237309503
10
187.52500000000001
20
-89.574999999999974
10
189.19499999999999
20
-89.574999999999989
42
-0.41421356237309503
10
189.69499999999999
20
-90.075000000000003
10
189.69499999999999
20
-94.175000000000026
42
-0.41421356237309503
10
189.19499999999999
20
-94.675000000000026
0
LWPOLYLINE
5
132
100
AcDbEntity
8
0
100
AcDbPolyline
90
8
70
1
43
0.0
10
238.01874999999998
20
-92.125
42
-0.41421356237309503
10
237.51874999999998
20
-91.625
10
237.51874999999998
20
-79.825000000000003
42
-0.41421356237309503
10
238.01874999999998
20
-79.325000000000003
10
252.51874999999998
20
-79.324999999999989
42
-0.41421356237309503
10
253.01874999999998
20
-79.825000000000003
10
253.01874999999998
20
-91.625
42
-0.41421356237309503
10
252.51874999999998
20
-92.125
0
LWPOLYLINE
5
133
100
AcDbEntity
8
0
100
AcDbPolyline
90
8
70
1
43
0.0
10
263.71249999999998
20
-91.625
10
263.71249999999998
20
-79.825000000000003
42
-0.41421356237309503
10
264.21249999999998
20
-79.325000000000003
10
278.71249999999998
20
-79.324999999999989
42
-0.41421356237309503
10
279.21249999999998
20
-79.825000000000003
10
279.21249999999998
20
-91.625
42
-0.41421356237309503
10
278.71249999999998
20
-92.125
10
264.21249999999998
20
-92.125
42
-0.41421356237309503
0
LWPOLYLINE
5
134
100
AcDbEntity
8
0
100
AcDbPolyline
90
8
70
1
43
0.0
10
96.054999999999993
20
-94.175000000000026
10
96.054999999999993
20
-90.075000000000003
42
-0.41421356237309503
10
96.555000000000007
20
-89.574999999999989
10
98.224999999999994
20
-89.575000000000017
42
-0.41421356237309503
10
98.724999999999994
20
-90.075000000000003
10
98.724999999999994
20
-94.175000000000026
42
-0.41421356237309503
10
98.224999999999994
20
-94.675000000000011
10
96.555000000000007
20
-94.675000000000011
42
-0.41421356237309503
0
LWPOLYLINE
5
135
100
AcDbEntity
8
0
100
AcDbPolyline
90
8
70
1
43
0.0
10
150.125
20
-79.325000000000003
10
135.625
20
-79.325000000000003
42
0.41421356237309503
10
135.125
20
-79.825000000000003
10
135.125
20
-91.625
42
0.41421356237309503
10
135.625
20
-92.125
10
150.125
20
-92.125
42
0.41421356237309503
10
150.625
20
-91.625
10
150.625
20
-79.825000000000003
42
0.41421356237309503
0
LWPOLYLINE
5
136
100
AcDbEntity
8
0
100
AcDbPolyline
90
8
70
1
43
0.0
10
211.32499999999999
20
-91.625
10
211.32499999999999
20
-79.825000000000003
42
-0.41421356237309503
10
211.82500000000002
20
-79.325000000000003
10
226.32499999999999
20
-79.324999999999989
42
-0.41421356237309503
10
226.82500000000002
20
-79.825000000000003
10
226.82500000000002
20
-91.625
42
-0.41421356237309503
10
226.32499999999999
20
-92.125
10
211.82500000000002
20
-92.125
42
-0.41421356237309503
0
LWPOLYLINE
5
137
100
AcDbEntity
8
0
100
AcDbPolyline
90
8
70
1
43
0.0
10
155.38749999999999
20
-15.425000000000001
10
155.38749999999999
20
-3.625
42
0.41421356237309503
10
154.88749999999999
20
-3.125
10
140.38749999999999
20
-3.125
42
0.41421356237309503
10
139.88749999999999
20
-3.6250000000000004
10
139.88749999999999
20
-15.425000000000001
42
0.41421356237309503
10
140.38749999999999
20
-15.925000000000008
10
154.88749999999999
20
-15.925000000000001
42
0.41421356237309503
0
LWPOLYLINE
5
138
100
AcDbEntity
8
0
100
AcDbPolyline
90
8
70
1
43
0.0
10
59.637500000000003
20
-15.925000000000001
10
45.137500000000003
20
-15.924999999999997
42
-0.41421356237309503
10
44.637500000000003
20
-15.425000000000001
10
44.637500000000003
20
-3.625
42
-0.41421356237309503
10
45.137500000000003
20
-3.125
10
59.637500000000003
20
-3.1250000000000018
42
-0.41421356237309503
10
60.137500000000003
20
-3.6250000000000004
10
60.137500000000003
20
-15.425000000000001
42
-0.41421356237309503
0
LWPOLYLINE
5
139
100
AcDbEntity
8
0
100
AcDbPolyline
90
8
70
1
43
0.0
10
74.425000000000011
20
-91.625
42
-0.41421356237309503
10
73.924999999999997
20
-92.125
10
59.42499999999999
20
-92.124999999999986
42
-0.41421356237309503
10
58.92499999999999
20
-91.625
10
58.92499999999999
20
-79.825000000000003
42
-0.41421356237309503
10
59.42499999999999
20
-79.325000000000003
10
73.924999999999997
20
-79.325000000000003
42
-0.41421356237309503
10
74.424999999999983
20
-79.825000000000003
0
LWPOLYLINE
5
140
100
AcDbEntity
8
0
100
AcDbPolyline
90
8
70
1
43
0.0
10
97.737499999999997
20
-3.125
10
83.237500000000011
20
-3.125
42
0.41421356237309503
10
82.737499999999997
20
-3.6250000000000004
10
82.737499999999997
20
-15.425000000000001
42
0.41421356237309503
10
83.237500000000011
20
-15.925000000000001
10
97.737499999999997
20
-15.925000000000001
42
0.41421356237309503
10
98.237500000000011
20
-15.425000000000001
10
98.237500000000011
20
-3.625
42
0.41421356237309503
0
LWPOLYLINE
5
141
100
AcDbEntity
8
0
100
AcDbPolyline
90
8
70
1
43
0.0
10
19.15625
20
-15.925000000000001
10
4.65625
20
-15.925000000000001
42
-0.41421356237309503
10
4.15625
20
-15.425000000000001
10
4.15625
20
-3.625
42
-0.41421356237309503
10
4.65625
20
-3.125
10
19.15625
20
-3.1249999999999996
42
-0.41421356237309503
10
19.65625
20
-3.6250000000000004
10
19.65625
20
-15.425000000000001
42
-0.41421356237309503
0
LINE
5
142
100
AcDbEntity
8
0
100
AcDbLine
10
2.9999999999999987
20
-95.25
30
0
11
282.75
21
-95.249999999999972
31
0
0
LWPOLYLINE
5
143
100
AcDbEntity
8
0
100
AcDbPolyline
90
8
70
1
43
0.0
10
174.4375
20
-15.425000000000001
10
174.4375
20
-3.625
42
0.41421356237309503
10
173.9375
20
-3.125
10
159.4375
20
-3.125
42
0.41421356237309503
10
158.9375
20
-3.6250000000000004
10
158.9375
20
-15.425000000000001
42
0.41421356237309503
10
159.4375
20
-15.925000000000001
10
173.9375
20
-15.925000000000001
42
0.41421356237309503
0
LWPOLYLINE
5
144
100
AcDbEntity
8
0
100
AcDbPolyline
90
8
70
1
43
0.0
10
120.83750000000001
20
-15.425000000000001
10
120.83749999999998
20
-3.625
42
-0.41421356237309503
10
121.33749999999999
20
-3.125
10
135.83750000000001
20
-3.1249999999999929
42
-0.41421356237309503
10
136.33749999999998
20
-3.6250000000000004
10
136.33750000000001
20
-15.425000000000001
42
-0.41421356237309503
10
135.83750000000001
20
-15.925000000000001
10
121.33749999999999
20
-15.925000000000008
42
-0.41421356237309503
0
LWPOLYLINE
5
145
100
AcDbEntity
8
0
100
AcDbPolyline
90
8
70
1
43
0.0
10
117.28750000000002
20
-15.425000000000001
42
-0.41421356237309503
10
116.78750000000001
20
-15.925000000000001
10
102.28749999999999
20
-15.925000000000008
42
-0.41421356237309503
10
101.78750000000001
20
-15.425000000000001
10
101.78749999999999
20
-3.625
42
-0.41421356237309503
10
102.28749999999999
20
-3.125
10
116.78750000000001
20
-3.1249999999999929
42
-0.41421356237309503
10
117.28750000000002
20
-3.6250000000000004
0
LWPOLYLINE
5
146
100
AcDbEntity
8
0
100
AcDbPolyline
90
8
70
1
43
0.0
10
79.1875
20
-15.425000000000001
10
79.1875
20
-3.625
42
0.41421356237309503
10
78.6875
20
-3.1250000000000018
10
64.1875
20
-3.125
42
0.41421356237309503
10
63.6875
20
-3.6250000000000004
10
63.6875
20
-15.425000000000001
42
0.41421356237309503
10
64.1875
20
-15.924999999999997
10
78.6875
20
-15.925000000000001
42
0.41421356237309503
0
LWPOLYLINE
5
147
100
AcDbEntity
8
0
100
AcDbPolyline
90
8
70
1
43
0.0
10
40.587499999999991
20
-3.125
10
26.087500000000002
20
-3.125
42
0.41421356237309503
10
25.587499999999999
20
-3.6250000000000004
10
25.587500000000002
20
-15.425000000000001
42
0.41421356237309503
10
26.087500000000002
20
-15.924999999999997
10
40.587499999999991
20
-15.925000000000001
42
0.41421356237309503
10
41.087499999999991
20
-15.425000000000001
10
41.087499999999991
20
-3.625
42
0.41421356237309503
0
LINE
5
148
100
AcDbEntity
8
0
100
AcDbLine
10
2.9999999999999987
20
0
30
0
11
282.75
21
0
31
0
0
LWPOLYLINE
5
149
100
AcDbEntity
8
0
100
AcDbPolyline
90
8
70
1
43
0.0
10
285.19499999999999
20
-52.935000000000002
10
285.19500000000011
20
-51.265000000000001
42
0.41421356237309503
10
284.69500000000011
20
-50.765000000000001
10
280.59500000000003
20
-50.765000000000001
42
0.41421356237309503
10
280.09499999999997
20
-51.265000000000001
10
280.09499999999997
20
-52.935000000000002
42
0.41421356237309503
10
280.59500000000003
20
-53.435000000000002
10
284.69500000000011
20
-53.434999999999995
42
0.41421356237309503
0
LWPOLYLINE
5
150
100
AcDbEntity
8
0
100
AcDbPolyline
90
8
70
1
43
0.0
10
212.03749999999999
20
-3.125
10
197.53749999999999
20
-3.125
42
0.41421356237309503
10
197.03749999999999
20
-3.6250000000000004
10
197.03749999999999
20
-15.425000000000001
42
0.41421356237309503
10
197.53749999999999
20
-15.925000000000008
10
212.03749999999999
20
-15.925000000000001
42
0.41421356237309503
10
212.53749999999999
20
-15.425000000000001
10
212.53749999999999
20
-3.625
42
0.41421356237309503
0
LWPOLYLINE
5
151
100
AcDbEntity
8
0
100
AcDbPolyline
90
8
70
1
43
0.0
10
260.16250000000002
20
-34.474999999999994
42
-0.41421356237309503
10
259.66249999999997
20
-34.974999999999994
10
245.16249999999999
20
-34.975000000000009
42
-0.41421356237309503
10
244.66249999999999
20
-34.474999999999994
10
244.66249999999999
20
-22.675000000000001
42
-0.41421356237309503
10
245.16249999999999
20
-22.175000000000004
10
259.66249999999997
20
-22.174999999999994
42
-0.41421356237309503
10
260.16250000000002
20
-22.675000000000001
0
LWPOLYLINE
5
152
100
AcDbEntity
8
0
100
AcDbPolyline
90
8
70
1
43
0.0
10
193.48749999999998
20
-15.425000000000001
10
193.48749999999998
20
-3.625
42
0.41421356237309503
10
192.98749999999998
20
-3.1249999999999929
10
178.48749999999998
20
-3.125
42
0.41421356237309503
10
177.98749999999998
20
-3.6250000000000004
10
177.98749999999998
20
-15.425000000000001
42
0.41421356237309503
10
178.48749999999998
20
-15.925000000000001
10
192.98749999999998
20
-15.925000000000001
42
0.41421356237309503
0
LWPOLYLINE
5
153
100
AcDbEntity
8
0
100
AcDbPolyline
90
8
70
1
43
0.0
10
222.0625
20
-34.474999999999994
42
-0.41421356237309503
10
221.5625
20
-34.974999999999994
10
207.0625
20
-34.975000000000009
42
-0.41421356237309503
10
206.5625
20
-34.474999999999994
10
206.5625
20
-22.675000000000001
42
-0.41421356237309503
10
207.0625
20
-22.174999999999997
10
221.5625
20
-22.174999999999994
42
-0.41421356237309503
10
222.0625
20
-22.675000000000001
0
LWPOLYLINE
5
154
100
AcDbEntity
8
0
100
AcDbPolyline
90
8
70
1
43
0.0
10
226.11249999999998
20
-34.975000000000009
42
-0.41421356237309503
10
225.61249999999998
20
-34.474999999999994
10
225.61249999999998
20
-22.675000000000001
42
-0.41421356237309503
10
226.11249999999998
20
-22.175000000000004
10
240.61250000000001
20
-22.174999999999994
42
-0.41421356237309503
10
241.11249999999998
20
-22.675000000000001
10
241.11250000000001
20
-34.474999999999994
42
-0.41421356237309503
10
240.61250000000001
20
-34.974999999999994
0
LWPOLYLINE
5
155
100
AcDbEntity
8
0
100
AcDbPolyline
90
8
70
1
43
0.0
10
11.300000000000001
20
-41.725000000000001
42
-0.41421356237309503
10
11.799999999999999
20
-41.225000000000009
10
26.299999999999997
20
-41.225000000000009
42
-0.41421356237309503
10
26.799999999999997
20
-41.725000000000001
10
26.799999999999997
20
-53.524999999999999
42
-0.41421356237309503
10
26.299999999999997
20
-54.024999999999991
10
11.799999999999999
20
-54.024999999999999
42
-0.41421356237309503
10
11.299999999999999
20
-53.524999999999999
0
LWPOLYLINE
5
156
100
AcDbEntity
8
0
100
AcDbPolyline
90
8
70
1
43
0.0
10
285.17499999999995
20
-24.935000000000002
10
285.17500000000001
20
-23.264999999999997
42
0.41421356237309503
10
284.67500000000001
20
-22.76499999999999
10
280.57499999999999
20
-22.764999999999993
42
0.41421356237309503
10
280.07499999999999
20
-23.264999999999997
10
280.07499999999999
20
-24.935000000000002
42
0.41421356237309503
10
280.57499999999999
20
-25.435000000000009
10
284.67500000000001
20
-25.434999999999999
42
0.41421356237309503
0
LWPOLYLINE
5
157
100
AcDbEntity
8
0
100
AcDbPolyline
90
8
70
1
43
0.0
10
270.32499999999999
20
-45.850000000000009
42
-0.41421356237309503
10
269.82499999999999
20
-45.350000000000001
10
269.82499999999999
20
-30.850000000000001
42
-0.41421356237309503
10
270.32499999999999
20
-30.350000000000001
10
282.125
20
-30.349999999999994
42
-0.41421356237309503
10
282.625
20
-30.850000000000001
10
282.625
20
-45.350000000000001
42
-0.41421356237309503
10
282.125
20
-45.850000000000001
0
LWPOLYLINE
5
158
100
AcDbEntity
8
0
100
AcDbPolyline
90
8
70
1
43
0.0
10
183.46250000000001
20
-22.174999999999994
42
-0.41421356237309503
10
183.96250000000003
20
-22.675000000000001
10
183.96250000000003
20
-34.474999999999994
42
-0.41421356237309503
10
183.46250000000001
20
-34.975000000000001
10
168.96249999999998
20
-34.975000000000009
42
-0.41421356237309503
10
168.46249999999998
20
-34.474999999999994
10
168.46249999999998
20
-22.675000000000001
42
-0.41421356237309503
10
168.96249999999998
20
-22.175000000000004
0
LWPOLYLINE
5
159
100
AcDbEntity
8
0
100
AcDbPolyline
90
8
70
1
43
0.0
10
54.875
20
-41.225000000000009
42
-0.41421356237309503
10
55.375
20
-41.725000000000001
10
55.375
20
-53.524999999999999
42
-0.41421356237309503
10
54.875
20
-54.024999999999999
10
40.375
20
-54.024999999999999
42
-0.41421356237309503
10
39.875
20
-53.524999999999999
10
39.875
20
-41.725000000000001
42
-0.41421356237309503
10
40.375
20
-41.225000000000009
0
LWPOLYLINE
5
160
100
AcDbEntity
8
0
100
AcDbPolyline
90
8
70
1
43
0.0
10
202.51249999999999
20
-22.174999999999994
42
-0.41421356237309503
10
203.01249999999999
20
-22.675000000000001
10
203.01249999999999
20
-34.474999999999994
42
-0.41421356237309503
10
202.51249999999999
20
-34.974999999999994
10
188.01249999999999
20
-34.975000000000009
42
-0.41421356237309503
10
187.51249999999999
20
-34.474999999999994
10
187.51249999999999
20
-22.675000000000001
42
-0.41421356237309503
10
188.01249999999999
20
-22.175000000000004
0
LWPOLYLINE
5
161
100
AcDbEntity
8
0
100
AcDbPolyline
90
8
70
1
43
0.0
10
164.91250000000002
20
-34.474999999999994
10
164.91250000000002
20
-22.675000000000001
42
0.41421356237309503
10
164.41249999999999
20
-22.174999999999994
10
149.91250000000002
20
-22.175000000000004
42
0.41421356237309503
10
149.41249999999999
20
-22.675000000000001
10
149.41249999999999
20
-34.474999999999994
42
0.41421356237309503
10
149.91250000000002
20
-34.975000000000009
10
164.41249999999999
20
-34.974999999999994
42
0.41421356237309503
0
LWPOLYLINE
5
162
100
AcDbEntity
8
0
100
AcDbPolyline
90
8
70
1
43
0.0
10
130.86250000000001
20
-34.975000000000009
42
-0.41421356237309503
10
130.36249999999998
20
-34.474999999999994
10
130.36249999999998
20
-22.675000000000001
42
-0.41421356237309503
10
130.86250000000001
20
-22.174999999999997
10
145.36250000000001
20
-22.174999999999994
42
-0.41421356237309503
10
145.86250000000001
20
-22.675000000000001
10
145.86250000000001
20
-34.474999999999994
42
-0.41421356237309503
10
145.36250000000001
20
-34.974999999999994
0
LWPOLYLINE
5
163
100
AcDbEntity
8
0
100
AcDbPolyline
90
8
70
1
43
0.0
10
111.31250000000001
20
-22.675000000000001
42
-0.41421356237309503
10
111.8125
20
-22.175000000000004
10
126.3125
20
-22.174999999999994
42
-0.41421356237309503
10
126.8125
20
-22.675000000000001
10
126.81249999999999
20
-34.474999999999994
42
-0.41421356237309503
10
126.3125
20
-34.975000000000001
10
111.8125
20
-34.975000000000009
42
-0.41421356237309503
10
111.3125
20
-34.474999999999994
0
LWPOLYLINE
5
164
100
AcDbEntity
8
0
100
AcDbPolyline
90
8
70
1
43
0.0
10
69.162499999999994
20
-34.975000000000001
10
54.662499999999994
20
-34.974999999999994
42
-0.41421356237309503
10
54.162499999999994
20
-34.474999999999994
10
54.162499999999994
20
-22.675000000000001
42
-0.41421356237309503
10
54.662499999999994
20
-22.174999999999997
10
69.162499999999994
20
-22.175000000000004
42
-0.41421356237309503
10
69.662499999999994
20
-22.675000000000001
10
69.662499999999994
20
-34.474999999999994
42
-0.41421356237309503
0
LWPOLYLINE
5
165
100
AcDbEntity
8
0
100
AcDbPolyline
90
8
70
1
43
0.0
10
279.74624999999997
20
-13.899999999999999
42
-0.41421356237309503
10
280.24625000000003
20
-13.399999999999999
10
281.91624999999999
20
-13.399999999999991
42
-0.41421356237309503
10
282.41624999999999
20
-13.899999999999999
10
282.41624999999999
20
-18.109999999999992
42
-0.41421356237309503
10
281.91624999999999
20
-18.609999999999992
10
280.24625000000003
20
-18.609999999999999
42
-0.41421356237309503
10
279.74624999999997
20
-18.109999999999992
0
LWPOLYLINE
5
166
100
AcDbEntity
8
0
100
AcDbPolyline
90
8
70
1
43
0.0
10
50.612500000000004
20
-34.474999999999994
10
50.612500000000004
20
-22.675000000000001
42
0.41421356237309503
10
50.112500000000004
20
-22.174999999999997
10
35.61249999999999
20
-22.175000000000004
42
0.41421356237309503
10
35.11249999999999
20
-22.675000000000001
10
35.11249999999999
20
-34.474999999999994
42
0.41421356237309503
10
35.61249999999999
20
-34.975000000000001
10
50.112500000000004
20
-34.974999999999994
42
0.41421356237309503
0
LWPOLYLINE
5
167
100
AcDbEntity
8
0
100
AcDbPolyline
90
8
70
1
43
0.0
10
88.212499999999991
20
-34.975000000000001
10
73.712500000000006
20
-34.974999999999994
42
-0.41421356237309503
10
73.212500000000006
20
-34.474999999999994
10
73.212500000000006
20
-22.675000000000001
42
-0.41421356237309503
10
73.712500000000006
20
-22.174999999999997
10
88.212499999999991
20
-22.174999999999994
42
-0.41421356237309503
10
88.712500000000006
20
-22.675000000000001
10
88.712500000000006
20
-34.474999999999994
42
-0.41421356237309503
0
LWPOLYLINE
5
168
100
AcDbEntity
8
0
100
AcDbPolyline
90
8
70
1
43
0.0
10
255.74625
20
-18.109999999999992
10
255.74625
20
-13.899999999999999
42
-0.41421356237309503
10
256.24625000000003
20
-13.399999999999999
10
257.91624999999999
20
-13.399999999999991
42
-0.41421356237309503
10
258.41624999999999
20
-13.899999999999999
10
258.41624999999999
20
-18.109999999999992
42
-0.41421356237309503
10
257.91624999999999
20
-18.609999999999992
10
256.24625000000003
20
-18.609999999999999
42
-0.41421356237309503
0
LWPOLYLINE
5
169
100
AcDbEntity
8
0
100
AcDbPolyline
90
8
70
1
43
0.0
10
23.918750000000003
20
-22.174999999999997
10
9.4187499999999993
20
-22.175000000000004
42
0.41421356237309503
10
8.9187500000000028
20
-22.675000000000001
10
8.9187499999999993
20
-34.474999999999994
42
0.41421356237309503
10
9.4187499999999993
20
-34.975000000000001
10
23.918750000000003
20
-34.974999999999994
42
0.41421356237309503
10
24.418749999999999
20
-34.474999999999994
10
24.418749999999999
20
-22.675000000000001
42
0.41421356237309503
0
LWPOLYLINE
5
170
100
AcDbEntity
8
0
100
AcDbPolyline
90
8
70
1
43
0.0
10
107.76249999999999
20
-34.474999999999994
10
107.76250000000002
20
-22.675000000000001
42
0.41421356237309503
10
107.2625
20
-22.174999999999997
10
92.762499999999989
20
-22.175000000000004
42
0.41421356237309503
10
92.262500000000003
20
-22.675000000000001
10
92.262499999999989
20
-34.474999999999994
42
0.41421356237309503
10
92.762499999999989
20
-34.975000000000009
10
107.2625
20
-34.974999999999994
42
0.41421356237309503
0
LWPOLYLINE
5
171
100
AcDbEntity
8
0
100
AcDbPolyline
90
4
70
1
43
0.0
10
109.72506661148118
20
-86.924999999999983
10
112.12506661148119
20
-86.924999999999983
10
112.12506661148119
20
-84.524999999999977
10
109.72506661148118
20
-84.524999999999977
0
LINE
5
172
100
AcDbEntity
8
0
100
AcDbLine
10
0
20
-60.274999999999999
30
0
11
0
21
-92.25
31
0
0
LINE
5
173
100
AcDbEntity
8
0
100
AcDbLine
10
3.5999999999999996
20
-53.875000000000014
30
0
11
0
21
-53.935206794191579
31
0
0
LINE
5
174
100
AcDbEntity
8
0
100
AcDbLine
10
0
20
-2.9999999999999987
30
0
11
0
21
-53.935206794191579
31
0
0
ARC
5
175
100
AcDbEntity
8
0
100
AcDbCircle
10
2.9999999999999982
20
-2.9999999999999982
30
0
40
2.9999999999999982
210
0
220
-0
230
1
100
AcDbArc
50
90
51
180
0
CIRCLE
5
176
100
AcDbEntity
8
0
100
AcDbCircle
10
190.67490735917426
20
-85.724530002994541
30
0
40
3.150000000000003
210
0
220
0
230
1
0
LINE
5
177
100
AcDbEntity
8
0
100
AcDbLine
10
285.75
20
-60.27499999999997
30
0
11
282.14999999999998
21
-60.27499999999997
31
0
0
CIRCLE
5
178
100
AcDbEntity
8
0
100
AcDbCircle
10
104.87506661148119
20
-85.72499999999998
30
0
40
3.149999999999995
210
0
220
0
230
1
0
LWPOLYLINE
5
179
100
AcDbEntity
8
0
100
AcDbPolyline
90
4
70
1
43
0.0
10
97.62506661148123
20
-84.524999999999977
10
97.62506661148123
20
-86.924999999999983
10
100.02506661148119
20
-86.924999999999983
10
100.02506661148119
20
-84.524999999999977
0
LINE
5
180
100
AcDbEntity
8
0
100
AcDbLine
10
285.75
20
-54.074999999999982
30
0
11
285.75
21
-2.9999999999999982
31
0
0
ARC
5
181
100
AcDbEntity
8
0
100
AcDbCircle
10
3.0000000000000231
20
-92.249999999999957
30
0
40
3.0000000000000231
210
0
220
0
230
1
100
AcDbArc
50
180
51
269.99999999999955
0
ARC
5
182
100
AcDbEntity
8
0
100
AcDbCircle
10
282.14999999999998
20
-57.174999999999983
30
0
40
3.100000000000005
210
0
220
-0
230
1
100
AcDbArc
50
90
51
270
0
ARC
5
183
100
AcDbEntity
8
0
100
AcDbCircle
10
282.75
20
-92.249999999999957
30
0
40
3.0000000000000071
210
0
220
0
230
1
100
AcDbArc
50
-90
51
0
0
ARC
5
184
100
AcDbEntity
8
0
100
AcDbCircle
10
3.5999999999999996
20
-57.075000000000017
30
0
40
3.199999999999994
210
0
220
0
230
1
100
AcDbArc
50
-90
51
91.916263137037717
0
LINE
5
185
100
AcDbEntity
8
0
100
AcDbLine
10
285.75
20
-92.249999999999957
30
0
11
285.75
21
-60.27499999999997
31
0
0
ARC
5
186
100
AcDbEntity
8
0
100
AcDbCircle
10
282.75
20
-3.0000000000000138
30
0
40
3.0000000000000071
210
0
220
-0
230
1
100
AcDbArc
50
0
51
90
0
LINE
5
187
100
AcDbEntity
8
0
100
AcDbLine
10
0
20
-60.274999999999999
30
0
11
3.5999999999999992
21
-60.275000000000006
31
0
0
LINE
5
188
100
AcDbEntity
8
0
100
AcDbLine
10
282.14999999999998
20
-54.074999999999982
30
0
11
285.75
21
-54.074999999999982
31
0
0
LWPOLYLINE
5
189
100
AcDbEntity
8
0
100
AcDbPolyline
90
8
70
1
43
0.0
10
258.41624999999999
20
-18.109999999999992
42
-0.41421356237309503
10
257.91624999999999
20
-18.609999999999992
10
256.24625000000003
20
-18.609999999999999
42
-0.41421356237309503
10
255.74625
20
-18.109999999999992
10
255.74625
20
-13.899999999999999
42
-0.41421356237309503
10
256.24625000000003
20
-13.399999999999999
10
257.91624999999999
20
-13.399999999999991
42
-0.41421356237309503
10
258.41624999999999
20
-13.899999999999999
0
LWPOLYLINE
5
190
100
AcDbEntity
8
0
100
AcDbPolyline
90
8
70
1
43
0.0
10
4.7152500000000108
20
-39.249999999999993
10
4.7152500000000197
20
-35.039999999999999
42
-0.41421356237309503
10
5.2152500000000179
20
-34.539999999999999
10
6.8852499999999983
20
-34.539999999999992
42
-0.41421356237309503
10
7.3852500000000054
20
-35.039999999999999
10
7.3852499999999965
20
-39.249999999999993
42
-0.41421356237309503
10
6.8852499999999983
20
-39.749999999999993
10
5.2152500000000179
20
-39.75
42
-0.41421356237309503
0
LWPOLYLINE
5
191
100
AcDbEntity
8
0
100
AcDbPolyline
90
8
70
1
43
0.0
10
4.7152500000000197
20
-35.039999999999999
42
-0.41421356237309503
10
5.2152500000000179
20
-34.539999999999999
10
6.8852499999999983
20
-34.539999999999992
42
-0.41421356237309503
10
7.3852500000000054
20
-35.039999999999999
10
7.3852499999999965
20
-39.249999999999993
42
-0.41421356237309503
10
6.8852499999999983
20
-39.749999999999993
10
5.2152500000000179
20
-39.75
42
-0.41421356237309503
10
4.7152500000000108
20
-39.249999999999993
0
LWPOLYLINE
5
192
100
AcDbEntity
8
0
100
AcDbPolyline
90
8
70
1
43
0.0
10
258.41624999999999
20
-18.109999999999992
10
258.41624999999999
20
-13.899999999999999
42
0.41421356237309503
10
257.91624999999999
20
-13.399999999999991
10
256.24625000000003
20
-13.399999999999999
42
0.41421356237309503
10
255.74625
20
-13.899999999999999
10
255.74625
20
-18.109999999999992
42
0.41421356237309503
10
256.24625000000003
20
-18.609999999999999
10
257.91624999999999
20
-18.609999999999992
42
0.41421356237309503
0
LWPOLYLINE
5
193
100
AcDbEntity
8
0
100
AcDbPolyline
90
8
70
1
43
0.0
10
255.74625
20
-18.109999999999992
10
255.74625
20
-13.899999999999999
42
-0.41421356237309503
10
256.24625000000003
20
-13.399999999999999
10
257.91624999999999
20
-13.399999999999991
42
-0.41421356237309503
10
258.41624999999999
20
-13.899999999999999
10
258.41624999999999
20
-18.109999999999992
42
-0.41421356237309503
10
257.91624999999999
20
-18.609999999999992
10
256.24625000000003
20
-18.609999999999999
42
-0.41421356237309503
0
LWPOLYLINE
5
194
100
AcDbEntity
8
0
100
AcDbPolyline
90
8
70
1
43
0.0
10
33.385249999999999
20
-39.249999999999993
42
-0.41421356237309503
10
32.885250000000006
20
-39.749999999999993
10
31.215250000000022
20
-39.75
42
-0.41421356237309503
10
30.715250000000015
20
-39.249999999999993
10
30.715250000000026
20
-35.039999999999999
42
-0.41421356237309503
10
31.215250000000022
20
-34.539999999999999
10
32.885250000000006
20
-34.539999999999992
42
-0.41421356237309503
10
33.385250000000013
20
-35.039999999999999
0
LWPOLYLINE
5
195
100
AcDbEntity
8
0
100
AcDbPolyline
90
8
70
1
43
0.0
10
33.385249999999999
20
-39.249999999999993
42
-0.41421356237309503
10
32.885250000000006
20
-39.749999999999993
10
31.215250000000022
20
-39.75
42
-0.41421356237309503
10
30.715250000000015
20
-39.249999999999993
10
30.715250000000026
20
-35.039999999999999
42
-0.41421356237309503
10
31.215250000000022
20
-34.539999999999999
10
32.885250000000006
20
-34.539999999999992
42
-0.41421356237309503
10
33.385250000000013
20
-35.039999999999999
0
ENDSEC
0
SECTION
2
OBJECTS
0
DICTIONARY
5
C
100
AcDbDictionary
3
ACAD_GROUP
350
D
3
ACAD_MLINESTYLE
350
17
0
DICTIONARY
5
D
100
AcDbDictionary
0
DICTIONARY
5
1A
330
C
100
AcDbDictionary
0
DICTIONARY
5
17
100
AcDbDictionary
0
ENDSEC
0
EOF
